<mxfile host="app.diagrams.net" modified="2023-05-05T12:48:39.419Z" agent="5.0 (Windows NT 10.0; Win64; x64) AppleWebKit/537.36 (KHTML, like Gecko) Chrome/112.0.0.0 Safari/537.36" etag="zrkSChbL80Qk2Ym6qywF" version="20.6.0" type="github">
  <diagram id="7tDp16Ov8bP0z911WyZB" name="Page-1">
    <mxGraphModel dx="2882" dy="929" grid="0" gridSize="10" guides="1" tooltips="1" connect="1" arrows="1" fold="1" page="0" pageScale="1" pageWidth="827" pageHeight="1169" math="0" shadow="0">
      <root>
        <mxCell id="0" />
        <mxCell id="1" parent="0" />
        <mxCell id="XR_6WtsRUjD9yIIPg-Dq-41" value="&lt;blockquote style=&quot;margin: 0 0 0 40px; border: none; padding: 0px;&quot;&gt;Azure Devops Cloud&lt;/blockquote&gt;" style="rounded=0;whiteSpace=wrap;html=1;align=left;verticalAlign=top;fontStyle=1" parent="1" vertex="1">
          <mxGeometry x="-360" y="70" width="1430" height="662" as="geometry" />
        </mxCell>
        <mxCell id="3WEeOtxJ8EWqyAxaKdDb-2" value="Azure AKS UAT" style="rounded=0;whiteSpace=wrap;html=1;align=center;verticalAlign=top;fillColor=#B3B3B3;" parent="1" vertex="1">
          <mxGeometry x="354" y="89.5" width="360" height="455" as="geometry" />
        </mxCell>
        <mxCell id="3WEeOtxJ8EWqyAxaKdDb-1" value="Azure AKS&amp;nbsp;preprod" style="rounded=0;whiteSpace=wrap;html=1;align=center;verticalAlign=top;fillColor=#B3B3B3;" parent="1" vertex="1">
          <mxGeometry x="331" y="109.67" width="360" height="455" as="geometry" />
        </mxCell>
        <mxCell id="1CO7n0s6yhx_Fcr47NkD-4" value="Azure&amp;nbsp;Managed services (UAT)" style="rounded=0;whiteSpace=wrap;html=1;align=center;verticalAlign=top;fillColor=#E6E6E6;" parent="1" vertex="1">
          <mxGeometry x="830.01" y="120.82" width="185.99" height="542.18" as="geometry" />
        </mxCell>
        <mxCell id="1CO7n0s6yhx_Fcr47NkD-3" value="Azure&amp;nbsp;Managed services (preprod)" style="rounded=0;whiteSpace=wrap;html=1;align=center;verticalAlign=top;fillColor=#E6E6E6;" parent="1" vertex="1">
          <mxGeometry x="780.01" y="142.69" width="200" height="544.31" as="geometry" />
        </mxCell>
        <mxCell id="XR_6WtsRUjD9yIIPg-Dq-44" value="&lt;blockquote style=&quot;margin: 0 0 0 40px; border: none; padding: 0px;&quot;&gt;&lt;br&gt;&lt;/blockquote&gt;" style="rounded=0;whiteSpace=wrap;html=1;align=left;verticalAlign=top;fontStyle=1;labelBackgroundColor=#E6E6E6;fillColor=#E6E6E6;" parent="1" vertex="1">
          <mxGeometry x="-310" y="320" width="380" height="260" as="geometry" />
        </mxCell>
        <mxCell id="XR_6WtsRUjD9yIIPg-Dq-2" value="Azure AKS&amp;nbsp;prod" style="rounded=0;whiteSpace=wrap;html=1;align=center;verticalAlign=top;fillColor=#B3B3B3;" parent="1" vertex="1">
          <mxGeometry x="310" y="130" width="360" height="455" as="geometry" />
        </mxCell>
        <mxCell id="XR_6WtsRUjD9yIIPg-Dq-3" value="&lt;p style=&quot;line-height: 1.2;&quot;&gt;&lt;br&gt;&lt;/p&gt;" style="rounded=0;whiteSpace=wrap;html=1;verticalAlign=top;" parent="1" vertex="1">
          <mxGeometry x="360" y="176" width="70" height="294" as="geometry" />
        </mxCell>
        <mxCell id="XR_6WtsRUjD9yIIPg-Dq-4" value="&lt;p style=&quot;line-height: 1.2;&quot;&gt;BACKEND SERVICES&lt;/p&gt;" style="rounded=0;whiteSpace=wrap;html=1;verticalAlign=top;" parent="1" vertex="1">
          <mxGeometry x="480" y="175" width="160" height="295" as="geometry" />
        </mxCell>
        <mxCell id="XR_6WtsRUjD9yIIPg-Dq-11" value="" style="endArrow=classic;html=1;rounded=0;entryX=0;entryY=0.5;entryDx=0;entryDy=0;exitX=1;exitY=0.5;exitDx=0;exitDy=0;" parent="1" source="XR_6WtsRUjD9yIIPg-Dq-27" target="XR_6WtsRUjD9yIIPg-Dq-32" edge="1">
          <mxGeometry width="50" height="50" relative="1" as="geometry">
            <mxPoint x="430" y="315" as="sourcePoint" />
            <mxPoint x="500" y="277.5" as="targetPoint" />
          </mxGeometry>
        </mxCell>
        <mxCell id="XR_6WtsRUjD9yIIPg-Dq-12" value="" style="endArrow=classic;html=1;rounded=0;entryX=0;entryY=0.5;entryDx=0;entryDy=0;exitX=1;exitY=0.5;exitDx=0;exitDy=0;" parent="1" source="XR_6WtsRUjD9yIIPg-Dq-27" edge="1">
          <mxGeometry width="50" height="50" relative="1" as="geometry">
            <mxPoint x="420" y="325" as="sourcePoint" />
            <mxPoint x="495.00000000000045" y="334.25" as="targetPoint" />
          </mxGeometry>
        </mxCell>
        <mxCell id="XR_6WtsRUjD9yIIPg-Dq-13" value="" style="endArrow=classic;html=1;rounded=0;entryX=0;entryY=0.5;entryDx=0;entryDy=0;exitX=1;exitY=0.5;exitDx=0;exitDy=0;" parent="1" source="XR_6WtsRUjD9yIIPg-Dq-27" edge="1">
          <mxGeometry width="50" height="50" relative="1" as="geometry">
            <mxPoint x="430" y="315" as="sourcePoint" />
            <mxPoint x="495" y="416.32500000000005" as="targetPoint" />
          </mxGeometry>
        </mxCell>
        <mxCell id="XR_6WtsRUjD9yIIPg-Dq-48" value="Git push" style="edgeStyle=orthogonalEdgeStyle;rounded=0;orthogonalLoop=1;jettySize=auto;html=1;entryX=0;entryY=0.5;entryDx=0;entryDy=0;" parent="1" source="XR_6WtsRUjD9yIIPg-Dq-17" target="1CO7n0s6yhx_Fcr47NkD-7" edge="1">
          <mxGeometry relative="1" as="geometry">
            <mxPoint x="-580" y="479.25" as="targetPoint" />
          </mxGeometry>
        </mxCell>
        <mxCell id="XR_6WtsRUjD9yIIPg-Dq-17" value="Git User" style="shape=umlActor;verticalLabelPosition=bottom;verticalAlign=top;html=1;outlineConnect=0;" parent="1" vertex="1">
          <mxGeometry x="-740" y="446.84" width="30" height="60" as="geometry" />
        </mxCell>
        <mxCell id="XR_6WtsRUjD9yIIPg-Dq-19" value="Azure Managed services prod" style="rounded=0;whiteSpace=wrap;html=1;align=center;verticalAlign=top;fillColor=#E6E6E6;" parent="1" vertex="1">
          <mxGeometry x="740" y="165.82" width="200" height="540.18" as="geometry" />
        </mxCell>
        <mxCell id="XR_6WtsRUjD9yIIPg-Dq-22" value="Kubernetes Cluster" style="shape=image;verticalLabelPosition=bottom;labelBackgroundColor=default;verticalAlign=top;aspect=fixed;imageAspect=0;image=data:image/png,iVBORw0KGgoAAAANSUhEUgAAAOEAAADhCAMAAAAJbSJIAAAAk1BMVEX///8ybeYhZeXS3vkua+YqaeUkZuUoaOUcY+X8/f/u8/31+P4XYeTx9f3p7/z2+f7c5fo2cefH1fdRgeltk+yguPLg6PvO2vi+zvZ1me2WsPGCou6nvfOxxfRciOrI1vd6nO1GeuhkjeuIp++uwvSQrPBVg+lBd+edtfFIfelpkOuOqvDAz/YFXeQAVOOmu/MAWeO1iXdRAAASkUlEQVR4nO1d65biKBDuIARUjEbteL/bXlrd3vd/ujVqFAiQIontzB6/M7+mFSkoirrz8fHGG2+88cYbb7zxxhtv/K8Q9YejwRmjXe/VU3kKWl3GfErOoD7arquvnk/ZqHxz4j2AmTeuv3pOZaIn03cBC3eNV8+rLLSnKEVfDBQO/xf7eNyn9y+Bj1a1V8+vIKr9Dscm+uLzSP1V9OpJFkB1smc2+q400vlfS+M6RFn03Wgc/I001sde5v7daSSnbuvVE3ZE4zNkQPKuIKz7Nyk69WGInOi70IiWs1dPHIjal+870xeDsk771ZMHIFghCj1/6X3kneMfrrBGI5qfvguNrNN/NREWRIOC9MXAaDF5NSEGtLqcFKbvQiPDf6JxVema1U93oPDnD1PKZ0u9+ZAb+Gxc/UE0zjYl03eBj7/+EBqPnTL5U6IRHYJXU3c2jzZW86gYsE9XL6ZxsmBP2r+ExpcaV9V1CDYfitDIX2Rc1ceO5sNtvjnuzDONlV+nr7HLQ59HSXewzbHxv25c1Yeeu3l0Bpo3Yt8GyPRXaUTT36OxdmA5zaPRdYBjnu2PDY/fMSCjVX71unkbY5pPABO+OT6fvjnJTR8ZJKNMcvG4dzGunmt4RAO/gHlEV8k4x7wUxudx+zwaWwXNh1IovCjl66ZtnnlR6RZVrxNBU4BLb0Db8o2rXgnmEVkmo33RgkNhFO5K3cdZKeYD9pNJLUsYzUfD0qJzvU1J5hFLdK88V34K2Pe/yolcrUozb9nNjdbg5YyHfa8EuVqd5lJAtPB/rmNG5Q2JukV9VtVNUaEggB6ug/YKilJpzEVBTh2VOBmPdK+DFroOVdBOoYujV9KJuYJsrqMWvQ5l+N0iFO5L9VHgxXXUcT7TxAReIA4QlbqFHt5eh92VS6Hn5aewXHby8P467GfJFPL8QblRiYL0DHRTTPvlsoag8DpjUaorDe8TqVeG1iYOvMhLYOCVSiG7O1qaxYNwIrCX1208K+sYYkIR4v/c8y2qmCO/zFBVXgfOsIxjiM/E0elqfWwJpkCrvT5MCWI+LmUz6TAnhcWPC/HpYt43uayD46FDWAlh1Yfl6YZGWPCHfTT9bGVoxtFkQIrHPsJ8pmKrkFAn3NvB4g2NyZQXPA88X0rV2ChoMMladYKmLq7NaEX8bGY1f8If56JwbiID7b+noU0vIejbNZTS2GXkUSEaUuMnHq5YJ2wNa0bjrJ7a0BhgwXyZJ1RU//TMq0a8cdAIfoysE+YhMDAcQ367fI76v2MU5lUTGyuTQ8i/2bkVk2jgee78vt7X8JDMPd2Sk9x3U4xoqmVEOk0+YNKUWR4L6qDnGfr1WIO0z4x1CiaKrnF6G8nm7httG47iw5/ugL3+nAkUfkzUbeZfhZOZgo06KAkfLNgzOLES09MFdYN2TKbCh8bSuSC0lODXl0wFCQVfk9Fi9d0dUkaHGBcF5afAqHRhPO6N1uTQEb7X6u76kdEtfxQXl2zFUTsmAc7clW+jIY634nL93C8N9G1werU+v0OOKBMpPFHEt4O1QempePfDKC/b2uhp9d0F3Lfx7iGhuF6TG6OyuXaYaLj3r4YSFWRQFDMIJoh2xlruCrY3menvRY1zYlZ83JXvpum+j6fG58K8ZjgmAWk9Ce0NTyaFibAZwY0Pz0Syrk49qHdofK6lZWsMbOlXW1flu2X1FlFfKFkKDl/dk05aT/aC1YA9YVVqgo5J+FRzhpodFnanQliiOiZW9Ry5XlOpi0DZRrSV7liNGtNWCoJCQbLIhhlh0/Q+NkaS3OovMoIdaO1IYaabDbOujS9q32rISlQd68oZIGhkDXjWuplpRmTuRmDVKJYfoL5ZVZqkNUyRwmpKnaDEcpeuUbb9iBduykYN5ITic/23G5olT9zBV2zSC8hXhik2uqAET+amfLdhIT601M2qFWqWXNKFtDlDaKOdY7SFOQCQm/INdbPpoiIahTym8Fv8zLdufEI0F0e1A5xKEp0EApqX5X+mvjrW23CyJBhox8c8fRhrUG+RfAwyAXZCheqy7wyHRrZvTKI6zRPwUBx3yT+pgCPtvuohae31Qkq2jPUZNZgv1aM4gTv8mEt6JnzhSFqv/NKeQ9kdpg0hEo3LrAbPTPF3DhR2oT5a9KP5dlvniENSYohuCZHWP2A2J1Q4Kd9Qb7fhmq1107wle1I0liw/aMeqdsAe8RB+50dQF7TRAbRO6TRMUl1T9y3FJg+dyTWTBoUr333goKRjXqSOwoeyHFA8CBhZlNwldL0dlO8V9L63eEarB5lTmbTAFYl+nYgRVgN6Eh2U7w2M9S1bGKNNxYWSfbYt8U9ob2cv4HQ83IEexBpwzeRTmGazxlIQ9Vz6e/RwNmGmsZ6lD8+gdyKFKt/ATCi8FZWIfqgZfkzvy3+S/hDcg7++LghQoZKqZHDdpsCg3kxgRo/k3qqGNNTwWmWRjMWk/2/cJ9XVuKJm1JcskTHwJIreaitg9z2moi9wjM7/oVGbqqMrQ6jX8fbyG+SkE3/986pwcSzosZEtNDOqOYZrhjEjaTPMjoRiTJiywbPzhYlRR+cwvRgnshSbA4U7ginfwGw26fa56iiY6ZS4oEv9Tcqd1luGi6FO9g2vPy86kMG3Pocp38BsNi4eoJtbBzOtGVoLdKQ0tLL9xtUeFY2WJlCN9HUrnAaMJSSD8yF9Da5vMLrJ8mIsymZjxF0GUPkGLpdoqwiLgpYFCiGam4cYR6KeA0wrxj7kV4BuA/GcVMWv0E7uOohgL7CPLMmAl74q0LSAnWpMhK2SLQW6zZlIF20lXpT0POCljyDlCbCSHYnjlVNCcK6y3QqVh5HYFOj8o3PAD8H0XNF3V1UlHc4TDG6rLixpEYF1p5BU0xpMMIvs0EqvL3MuZtFZ/eK0gLoyzj4hFZjUEo+0ZnKYubiFPuJwueY3RGFmiWdK38lO5oGlmUtpudoLlDslX690WyRpTeaYtASA8q33RqcoXAiiVH9ymUOu2Uh7yiSbHeh3yL7zm7Ds9aT8JYYpDzXt41jFLWgH3VRSgSEcK6lNP1AXbtZtHMBkFhXiLIHh5Poqnw45ueCkiqGBYX/EsLEhCS0FnnVTZUS37xTOH18xpdP5infiLvCxGnM3UIixYFxB83kzlW8gu4txFtPqKlwaPE4rWcisZFpWX9iPCOrhzDr+QO1IjLNogxyYcOXMLwR5RKVg4kd1ow/Ti4lOATit305gHcoLwnWXdutggvBG4ZaB9CmmSJvhlmqKcUVnXgCkz+P27HJgdFuiUFEZMeXbeT+lWshXCk3xUmu89JhyRETFCahrZSrf0MI5MfZ7eMzrvHl8M6zoEtxkhV7rgK8dR1suJnaJnwJTmFHnBY1ui+cwoRD7yP+emPRC2SgzyvTWT4exxF2ci0J7qmkVGskSlaOYSzFFdL+aWbzqUv4KppZPNvrz7bUsKheXYqvnuwJVHERW2CHK8Pc4q3xEVJ2zHJvVym7qMyJLGqgstSrfa2isjgjlxZ90dAQ4LsTkBEhmSK0/PwlzBcc07XVeMLXbkzcB6HlqozuD+AhoIQtDQ298O4Ok081MwHv3lPXGrb0wCvP07ABHEa11XgG4tpPnqhaLW0Sz8DOXL84h7QSZlW9oEy7Mjzmdos3xOOc3owOcQnNE+QBzs1GezvX6BVROQClhUb6t9z0mhFLEeLhZ/X6PvwsmHT9+5iSTQrw1CQlTEckZPmfb6Xw1XLejF767UQ2Ou/l0izg76z0WSo11XsbKMBr+RK6ys1mZHL4hHVYn08Xg8+jU3jJo9fq7jjlx2JjmY3KzpbLzrKg2WpNhN+RxQTrlmaUscQdp4p+3ZT//aQcunViCgemKNNZ5GRx28MTNWus4HHQwf7AQ3mbM+VHFiKl/PuTT0bhnrhdS8GUg0ej5NhxDUG1f1N4NOqGPKJFt8axNVBNNyZlOst2M1j1IeMeUb29INQ1Oho+nsyWqyqlccXTmSd3PZS2PzpuMvbgHw0lVL4P0PEwXuME4M3mzFArrs68NpV+RaMabM3D8DBFidhJKDrlg11+eTuFAMT9NlbwG88IkSsVtqLbnIY875VJ+Eu0Dk0Kbmf9hjNCLPuePj/HpUmBEGF1OhAU3uSQMtXpGj+TdMRuswoeIlmxpk9mVfYaHhknKfo67lwcT5g2S3YXVSD5g2nKPhO24Pv3YPcm+FoEVTKVu2UmtkUnNEL8px+/IqTOuNJvBl7HSxHTlGw8TZuF0g1R3n6T+/eiLsFVp0YxSv63PwGKS6qsqzMRnXmhuNYGRYTlt0V+NoJQcItVQt57qWva3iHaVG1KbN4ClLaxrDqvNzjMGoMyNMPSQUvd0QpEordRmJ+xhXzWedQwuZxm6duRipmThmmtzIypuh8YwUa/7a+SOKUFMzcIqDmPHflWYGq0DQ5MBI5B4WNIiQ3V1JFvBlAtWs/tydaVjGxmLT7ihPUy2sUQSdupMlWKMu7xVU0JSeg2XuQwYwn/AovC1HHunyjXiKT6V92p350YlfqiqGlQ+vs6n0OrIc/D3XCAWaH80ZKVb2SrhlMuVeurSECm7+ixI3VZdDWupWLl1T5VFwky6gpmsWIhWhNJ+TN4lIu+wSekxzSizFebUrWWTLC7XAgsoRpqUl6vUMYj3HVYSjSNAeyVx5EWmcekobeSr+WP4YAEljierLlz+o6CzKFLmA172dAXAHdJye39CEc2P1B8sLaaqJMttjx4bzBRH5afbqYG1wXSUNkoMIkn+UYIvqpxFn7o/Y9UT23JTQjiw/8fBSTyrfRlvLbKQxC6aplLSVdK+pa8rLFp1a4KbLWUSgKvFLiAbWXVZx5eqciGkL20l2yb+QLqDz9xJjpIOOGLQcNMi0Fz+etsjSnW8RvWUC1Li3EQ/VeD14/jUp4PTteX2TBVXMkuCDZNM36buS/JVGlA+UHcAXNF1xcmpi5qjssvVDI+hlF76pWW2k6QRzFNJIvYGMimoUjgLJmerAb5NFwwMPbU2lu+cbxC3i9nNMR/DTdp4vsXza2ovYO1kEYROYpTsneOSTUeFFxlPgdGHZwuVOxIIL64UEDmaw8bk9alxqZgxWNtyJDA7AqQDtKL7Boz0R739j4nfsY8M7oaZ50agq5RJ4ChtPKb1HjQmc4/LAU3sYeIzvh8akqjWroZ4vvalH4YuMrZf6hhOQ9D/WoYe9RFD538+9bbfu6OpD2B15PhoZJ7Ul+S3XP02hFrEYyOq9NrH46xXCWxyL+q4thGnBR7x0FTDZEBqVpcHa0AqggxAEYkF7k3+i71uE7k/a6OqjK4YOv+i92/+Hp/Rv86tvf15MQLP0sb1MYr8LxV8WLp3mkDAnSKMaDrevR62q5t2ODe6z6PLqIAndt5wKvCjjm+UYqfeUEa4Pqr5iPu3gPlTjyVx+yVbjp4Thk4X1COkVvPD0SwzByhaL0/3nYB2xrmiuJRJ4GRJ3WPo9bnvURR21+b66lp7taeI4G0ifuGZwPFauvWgs6G6hQuAu7+rf4tCxw91TIf9VlMSetVabz0PzxrcJdaBeaJZOjzeg71yns67IIL/bNKOKhDi4phQxrnXWQ5Go8NqNO9OF+TEpMy7xPyBtjGJLZNSHwgGP5XmJ45gzYm6ZKjGICRVpnUPvUN70ZQmZRKAdZsbLzbcAirCIxzAQEV5UiZBF3RA7s0r9dknFtzjH7DmMRlduPKgCXGwP3ygzpFpjBJJBLmccFiilEkQQRKsk9svxxs1jwSxbNUNo6c8Q56t2zxCuzmeinqk+dQyKTQmzBTELmNjhFBirhfb7spbVuqSvgF8GRjYLalHjhe4Bk6EkMdof+Uqw1leBM2FjX8EwzDXG45CCwVrhdlTpEwCa7mxEDJ0NmQvCO9auk0Bx/SpBS1ty1F85PTDW45KeLjAbW0+1FSGspFK7RJ/OzmHeV+GxLdNrFqi98+TMgks0iZJ6s4QSGYkA1j6qdHnSZkEtr6+tDOrN9pq91kH0MWxUa8szUz+VCmTwCZtCMPU0dWiUHA2qSwvuWP/V8rmZobKk+scCr/XaBsg1fflSXDMUyoPz5cyCdzSXEoDzfkYZw44dBEvEfJDU09G8IJNxJn9kUpFuc/Kg5DK2XkyHBOyikPXE/u5+GVpQ7Uv2jwV4PdfSgHO+eJvIdR+kUIM6rxaOnqOOSEF8NtSJoHhVaDygdweOioRo9+RNr+oy6QAfZehEDJr+p+JWjnv29sJfI2USdDTdMorGa+SMgla2yefxaxCreejPrfY5IWBuWM/4qegN+X0GecxbmuwyJUZWz5ahy31UbnwKQnnfwh9FwSVstH6RXv3jTfeeOONN95444033iiK/wDpWyMpdIpCEgAAAABJRU5ErkJggg==;" parent="1" vertex="1">
          <mxGeometry x="487.5" y="505" width="45" height="45" as="geometry" />
        </mxCell>
        <mxCell id="XR_6WtsRUjD9yIIPg-Dq-25" value="" style="endArrow=classic;html=1;rounded=0;exitX=0.997;exitY=0.442;exitDx=0;exitDy=0;exitPerimeter=0;entryX=0;entryY=0.5;entryDx=0;entryDy=0;" parent="1" source="XR_6WtsRUjD9yIIPg-Dq-2" edge="1">
          <mxGeometry width="50" height="50" relative="1" as="geometry">
            <mxPoint x="460" y="322.5" as="sourcePoint" />
            <mxPoint x="779.7399999999998" y="252.75499999999988" as="targetPoint" />
          </mxGeometry>
        </mxCell>
        <mxCell id="XR_6WtsRUjD9yIIPg-Dq-26" value="" style="shape=image;verticalLabelPosition=bottom;labelBackgroundColor=default;verticalAlign=top;aspect=fixed;imageAspect=0;image=data:image/png,iVBORw0KGgoAAAANSUhEUgAAAFEAAABrCAYAAAAPbm79AAAAAXNSR0IArs4c6QAAAARnQU1BAACxjwv8YQUAAAAJcEhZcwAADsMAAA7DAcdvqGQAAA1/SURBVHhe7Z0JUJTnGccfIyDHAgqCgGg8UdRRU4/aeFQTrxHwaNV4lNSZGq0XNV7xHusxaewoSYy2xkxbTdRpraNE8Gi1Kmp0RBxFEc8IgsQIooDgwbF9npdvcXf57mPZjfub2dnvfd/P3e/77/M+z/MefDYwI+BGE29w72404BZRB9wi6oBT+sSCkipIzSqDjJwXWGoA0c09oXUzL/h5O5+aE5wMpxIxr6gCvr3wFFLSnkJJWRVX+4oeUT4wqpc/DOrsy9U4B04h4t2HLyEJxTuEr/Ln1VytMN3b+kBcLxMM7erH1dQv9SrijfwXTLzD+KqoVH4ZnVt7w8ieJhjxlomrqR/qRcSMey+w25bCERRPDzq0bARxPf1hFApaHzhUxAvfP4dv00rh+OUyrkZf2jZvBLE9/WA0CurRsAFXazwOEfG7m89QvKdwJtMY8expGeaJlmlCywwAHy/jxTRUxBPXypl4aTfKuRrHEtHUEy3TBKMxovv7GJcSGyLifzLK4ACKd+nOM66mfglt4sHEpPQoyNSQq9UPXUVMvvgUDmCwuJb9nKtxLoICGkIsCjkKfWZooH5iahaxCtO6/WklkJxeBrfzaITh/AT4NYQYzDMpmjcP8uRq1aNaxPKXZvR3JN5TyHlQwdW6Fr7oJ0ewAOQPrULUi6lYxOLyakjCNCUlvRTyCyu5WtfGCyP4CC7PbBfmxdXKR7aIZHm7ThUz8Qqf1B3X/hRoiG5yOIr5q97+EBUuX0xZImbcew6fpTyGm7nO7fO64DBwxM9MsH5vIVejDurm04c1YWLKQTJ5KiypguU7C5xeQAtxPUyQODWMCaGW8mfVkLj/EZy6Li+/lfymfedL4HGpa3Xfnm284XMUspWCLsnH/vPyxvaSIh7PrJ/RhlY6oIBbUEjq4mo5j5aY/fAlVxJGVMS8RxWQ+6Nrpi8EDfX+8kEYDEE/qZbMPI0iXrsv/QGuwMqxTWHRr5tyJWVckzGAEI3Onx4sgr2nS7hSXegXDmssPXw6lfUMsn/Q9oPEvxPIHQkT3sSTBRYhaCpu2c6HLHDIpX1kI/jbzHCuxI+oiNO/fCA6Dv4Uu0oPGT7nBgqY8NUDRRdvDVmRmDhKoGtZ++9CRT/q/iUtINhf2FgEu3MJ3vCNXH0mEsjJL1bZncja9RKQUBNwrkikd4Iiki+o0jGzGdTJF95/tzFXkgelKB/GBHEl/VAacKT8oqCImQYk1x+giH2i5S13UrL8yW9CDZ1MlRtwsnLFu77gFV43KDLThctJgtdNDoWIJh5cyRiePq+G1GvSefCN+y+gskp4dCxsiTnGTKySZS1HIcWGZTNjmrBRh5H88LgSZmx7AOeypEV8hmJfvifcM3nv5BoqX1quLpLKQSzQkJ+a2Fc6ndHCzQcvYcoX+Yoi9BURo+IV0Qh/aI9QoInRMRLzQUsYv/s8X3G6lSUycuHNE1djHvVf/DK1UPD4c3woVxJn4dcPbbpUSGMP2JEQASZv4e5OQqSk172+9hFeME8kmm9MKYJ9Z4QHD2LQ+kzS4hZcyRbeK83QuNBEomw79oQriWMfaAqeVDJhhaCuuAnFuHr3eZ3XrXx+a6EAQp+pVkCiqKQK7uB381FHRJp0+LFI+7T/DhSR1p2l4As0JAhZjT0kxuIdyoZtSgKIFJcE/GIdEfWcdPh4byGzHCn4Ag1ZDXVba8iayFLloiaAiJEpkC/WEfGqSChXClnMmj2FzIKk4As01G0tPwJZJlmoXNQGEDGyBEYudUSs2Z2qH2QFf0Qh5WA/oiEBqPvuPlOsyJ+R4J9gcNSbvIcV8Ihnlt9GRJp0uIM5ot5oDTRbUh5zJXH0CCBSXOIxMhsR5UxAqkVLoJELWb0eAUSMDJ7gYnOlfCfoiZJAQ2NnZ4QvZtiIeDlbnygmhJJAQ2NnGkM7G7ewt9pPRth253vGWiKhJNDQGFrJIpOWtWa50PjOfjKi9lszSWEVm8/lYn2DSgINTcrKXT9uE+alekFKCZftRnS1d2bfoCfULWePsB3TKgk0NDkr18poKeGrORGGWqV9GmglojGR2TK1RTc3pm8AV1uD3EBDk7NKAg0Fpr/PjpBtwUrJspvlqhXxqgGRmW7Ceo2EZljsk2mjAg0JTwtScpcjlEDXbT0ZwUTMKayAkjL9hkcEdSe+NRL7ZNrIQEPfTVNyY9627QF6YD0Zwe7QiK4stEbCl0wbFWgszIsN0j3gXLn3yhLZpOyXRx/D1/8r5qrkQzfjxzN5GoPWIrVWfByDyspvbOcN16DlDuwk3f3yH1dCcnopV3qF1A4IrZsIrKF1a1p2JTSJKHcHhBDxm2ynqcg6N+FnRqnY8isX+gE+wh/P+nvVYC0iM6MuLY1dWeODZlrsb0RJoFGLXgEnxOpPOJiIb0f5QFiwsWu81tBcn9BMi5JAoxY9As6kfq/+ba1DmxcXzB0ZC+WFNNkqhpJAowW1AWf8gADoGNGIK1mJ+Au0xt8q3CujFOqmctdI5I5otEDXc1Dhqmbfzr4wZ7jt6MsmtE5FEXuimEahdI1E7ohGDfS5tIClZMmhNWYjC3h6rI2IROKUZmDyrVOtGaVrJIRRgSYdr2MOCqg0Qn8YFwRNA+ruU+RVS2iRWi1igUQKvQMNXctcFFBprvgR+s63WvFnMYI7ZenXoi8Tg5JtsZ0KFr7HrqNHgiuFde7Gh9qdHZPfCYTfDxYet4tuN96RWgzbDstbJHIGhEQkd0D+WKk7IQZ29YM1E0K4Ej+iZvT+gEAWjVwZNQHEQkRTD1gwUjr1k+yLf5ocyjbzuCJqA4iFFeNDIFBGkJU+A9E70DgCtQHEwvL3QqBL5KuEWgxZIhJ/lfhbDmeCAoiWHRBTBjeGYd3kP/1JNLDY88/vSuCLZPEhW31iyRbU+D8LSvZWWlAkIrHyXwVw/JJjnm/jaPx83oC9i1qAXyNlz9KR3Z0trEZn68gZH0fy2dQwxQISikUk9syP5I5+OqyaFMpWCdWgSkTiHwkR3JHr894vA+HdLurzYdUitg3zggVjjN9tYDT0xLvZw7Tt+VEtIjGqlwmG48uVoaUCrWgSkViG1vhmmPanHNUHO/4QAV4e2p9qp1lE4puE5tyR60BTW/SwXz3QRURi93zXEXJoDxPESqyLK0E3ESODPdl409lpFuQBK3TeDaGbiASNN0cbsO9FT/Ys0D/H1VVEYn5sEHsetjOyZUY4GPFwVMVjZ7mo3ZpiBNFvesPKscHM5RiBYSIS2QUV7C/47xUas+wpBW1w6tDcC9rjwMDIx/MaKuLrgu4+8XXELaIOuEXUAbeIOuAWUQfcIuqAW0QdcIuoA24RdUCTiKdOnYIGDRpAYmIiV/N6oklEy4jxdR85uruzDugqYlpaGgwdOhTOnz8PU6dOhRYtWkC3bt1g48aN3Bk1ZGRkwNixY6FDhw4wbdo0OH36NMTHxzP3QOzcuROGDx8OV65cgfHjx8PEiRNZfWVlJaxbtw569+7NPnvKlCnsHGtOnjwJM2bMgICAAOjcuTMsW7YMXr58NYsk1a4KmsVRC14Q9WPzhg0bWPnQoUOsTK+oqChzQkKCuU2bNqyclJTEzsGbZmV/f3/zhAkTzKGhobX/Zvv27eycNWvWsLKlbf78+aw+Li6Olbt27WqePXt2bTv+aKz97NmzrNyrVy/zihUrzH369GHlRYsWyWpXiyEi9u/f31xeXs7qbt26xeqWL1/OymPGjGHlzMxMVqbzJk2axOrsRSTR7t+/z+oOHjzI6hYuXGiurq5mddnZ2axu3LhxrLxq1SpWvnjxIisTaOlMLEKqXS2G+MSZM2eCj0/NEkG7du0ArQ5u377Nyvv27QMUBzp16sTKdN7cuXPZsT1ogRARUbNd5fDhw+x98ODBgOLB3bt3AcUEFKC2DS2TvU+fPh327NkDBQUFsHXrVkALZPVS7WoxRMSQENtVPxKKbrioqGZvIwlrjeXm7CF/agEtmr0PGzYM0EXUvs6dOwelpaXMX5Ifxm7OfDP5Uvrcfv36wdGjR9m/lWpXiyEiNqT/HYYHX9+aTUN5eXns3UJubi53ZAvloBbImgkKQlevXrV5oWsADw8P8PT0hE2bNkFxcTEkJyezHnHmzBkYMmQIPHr0SLJdLQ5Ncby9vSEyMpJ1vyqrh3gfOHCAOxKGIilBXZCO6RUdHQ3oI2Hp0qWsbdasWRAbG8sib0xMDGzevBnWrl3L2nJyciTb1eJQEQmMhKz7UTfavXs3LFmyBNavX8+1CkNdkSB/RjefkpICI0eOBAxmLK0iBgwYwOrnzZsH6enpzMp27doFmClA9+7dJdtVwwUYVaSmprJoh3kgKx85coSVT5w4wcoW0PeY0Qex44qKCvPq1atZikPnomWyMh2js2fnoHWwMnY7VrZw7Ngxm5SIXiiIGa2atVOkp7TJup2+hyK7nHa1OHy1Lz8/n72Hh4dDWVkZmEwmQNFh0KBBzLdZorYQlBhfv34dUBBo3749BAfX/WMd8rl0TmBgIHTs2LHWn1qQalcMk9KBWBJmHLWwMnZt88CBA1kdWakr4nAR0Q/VdiXrrkmuwFWpl8V76oqU3124cAHatm1bOxZ2Vdw7IDQD8H+rj/9f6zzz2AAAAABJRU5ErkJggg==;" parent="1" vertex="1">
          <mxGeometry x="374.3" y="382.79" width="41.4" height="54.69" as="geometry" />
        </mxCell>
        <mxCell id="XR_6WtsRUjD9yIIPg-Dq-27" value="NGINX" style="shape=image;verticalLabelPosition=bottom;labelBackgroundColor=default;verticalAlign=top;aspect=fixed;imageAspect=0;image=data:image/png,iVBORw0KGgoAAAANSUhEUgAAAH0AAACbCAYAAABPnZS6AAAAAXNSR0IArs4c6QAAAARnQU1BAACxjwv8YQUAAAAJcEhZcwAADsMAAA7DAcdvqGQAAB+kSURBVHhe7Z0JYBTl2cf/e+be3AcJ4RYFFOQM14cHAhVEBERA8Kx3bSvVntpq+9VatV+trUettdp6IHKoIJcXhyB3CAJy30cScpJrr5nZ73ne2aEhJrubZDe7m+xvM0l2Znbed97/8zzvMe/M6lwEInQo9O6/EToQEdE7IBHROyAR0TsgEdE7IBHROyAR0TsgEdE7IBHROyAR0TsgEdE7IBHROyAR0TsgHf4qm1OWYJfskBWZCkOHGHM0TEaTe2v7pMOJzqer0+lIZAX7Sg7iy8PrUHBuN6pOV8N0FhhwaX98b9R4XN6zDww6A5UQ/9CvdkSHEt1FL4k8u7iqBAv3foSF+z+CTbaTIejhPGmHsp8WswuW6ARMHDUBt02cje6dukKnJ9GplNhY2gMdQnTFpUCv08Nut+O93Yvwwd6lKHGUQJIU4cNsDPIpSYgOjuxubbPSsjB1zGTMnTQLSXGJF44T7rRr0VlMxuqwYcvp7Zi/eyF2FH8DcnbyWjXUC0hHIfo+8np3dS6cWt0JA3pdgbtvvB3DrxiKuJi4sPf6dim6JjbXxQeLj+DFra+ioHQP6mw2sf47p9yI6BqatiazCYN6XYkfzXyQ6v0r1JVEONb37Up0cSqkAQtxvOIUluxehuVHV6PCUQlFYnGaOFUPojP8SfZshV7RUdG4ddwtuGXcdOSkd4JerxfphRPtRnStvrU6bVi+/1O8settFNWUCJ29nqIX0TU0r+eGXUJMAu6dcidum3QrTAZjWNX3YS+6FsptTju2n9qJ9/YsxLaiAsiywtWx2MMrPoquoVb1LuHlef2GYub46Rg1YARio2JEcqFe34et6Cy2KHjyruMlJ/Hy9texoXAzbHaJ1ivuvXykmaJrsLh6WnRGPYZfNhg/u/NR9MrpIfImtodo2A9L0TnL/DpTeRbLDqzGiqOf4kx1ESnnk19/FxJdf1YH+56aZomuIRyblsykDFw/aryo77tm5qri00+oeX5Yia7Vm5Ii48sjX+GFTS+j2H4OLknffO+uD9XR+rNosegaBgr3sk5BpiUdj8x6GNePHAez2Rxy9X1YiK5l0SE7sfV0PpZ8+zG+PrMVDkl1bS2cthg/ic6wV3N+jHoDBl46AHdNmosRA/JgNpnV7SEQ8kNadM4av7ggS2vK8dLm17H0yEpyed7GheenrPtRdA2O6CywywBMG3UDHpx9PzolZYrzCbbXh6zoWrbKasux9MAqLDu0EscrT8OlBCC7ARBdg8Vn+8xKzsDNV9+EaWOnICMl/YLHB6O+DznRtVAtyTLWH9qEVwv+iSNVx6GT9aJuDAgBFJ0RXk+/JJeMrum5VN//ANflXQODwSDWt3XIDxnRtWxwIXB/+51vPsD2ol2ok+pAZXXBGAJCgEXXEF5NP0YSezT162+fOAeDqN43GoxifVuJHxKiax7Mlzzn716MRQc/Rp3DBp2iNooCThuJrqGn9BQqdu7jT7t6Cn4w4z6kJaVe8HphHAEkqKJrSVfZq7H025X48OAnOFZxktaQ2G2ZrTYWnRGykrhsAJ3SsjDjWqrvr5uK1Phk1dDpJ1DiB0V0TpJfdsmBb87swcs7Xsee8v3U325jsTWCILoGezuXhaJzoVdWdzxy68NiSNdsMl3wfH/TpqLzyfFJ8Hy0PYX7MH/vInx9eguq7XW0NUiCM0EUXYOdmkWOjo7BsMsG4e6b7sCQSweqZcLb+JefaDPRhTUrCiqslVi8dxne3b0QNRIVstLK0TR/EAKia7DnS5CRGGPB7HEzcDOF/ZzMbFF+/urfB1x0zbtryZs/2rcCHx/ievsEnBIPuqihPuiEkOgMl4v6V4ecjGzMGnszplP/3hJnEeUptrXC8wMmupY5vuS579xB/GPHW9hyNp83kNDqHiFDiImuweILceknr+8Q3DFlLob0HoSY6GhRfC1t6PlddHE4d2aPlhzHP3b+G5sLt+F8HRVoKHh1Y4So6BqatjExMRjTfxTum3Y3euf2UkV3l3Vz8Kvowrvpp6j6HFYf+ALv7luI0rpyWhfERpovhLjoGlzfy1CQSGGep2zNoC4eD+nyZI7meL5fROfBFbY2mf5+sm8V/lXwDgprS8Qc85AWWyNMRNcQDm7QIzc9G/dOuRsTR09AtClKOJ0vXt8q0cVHKQ3ugu04VYAF+z7C5rNbYXU41CthbH7hQJiJzqherZbviCvy8P0b7xCzdPm2LMaT+C0SXQvjnPDpikL8M//f+OLEOupvW0VSrbCj4BCGomuI6VqUf7M5CmMHjsFPZv8QWRlZF2nUkGaJfmFXOk5JTRk+O7gGC/YvxumaQs9TjEOdMBadEbLSL76Em5mUhpnUv5929Y1IS1bH8xuK77PovBt/UFIkbDq2DS/nv47DFUchSWKr2CdsCXPR68Nj+TqdHikJSfjpHfMwccR4sgd1qFcb3PFJdN5Fdsn4tugA3tu7CJ8dWUdVtgyXwtYT5oIz7Uh0RnVuF6Kpfh/VfzjuuH4OhvQbdMFxvYqu7fjZgTX4383PocZWFxpDp/6knYmuoYZ0F+JiYvHY7B/jlvHT1Uma6mbPbD2Zj+e3/g3VdVa4ZO5ztyPB2zHssOzStTYrfvvmH/Hp1i9EiPcq+nl7Nf669TWU1JaqB2kP4byDwfMK+Y67t5fPF9PQvIp+vPwkTtWcok8a3GsihCPssHuO7sX2gzu9i36w5DDqnBTWOU5ECFs4QlttNmzeucWH8O6spsr/v328COFNeU25d9EjtC9sFLUjoncQRO1MAbvKWRFY0XkkiLsIRvfCj+jidfwKBpyugfPh/husfAQDd5ddEDDRjXxo6TwU2ylIZF2SVAvZXgiX7Qx0ihUmfkZbGxa6gZsy9rOUh2IoslXNi7NYzUcbDjvwna18c6OBFlWFtm8gex2Re3372/h7/puQJS4Z7xlk7zHSfiZXFQbnXItxPa5DZmKW2FZjq8Heon3IL9yI/ec2QTZkQSKPC2Tfn/NjdsmINkiYfMkcDMkdhJioGFRYz2PDkbX44vgyyLp4SEUtvz/dF9RBERccdhucLgkmg0ncycozEfjGh0DDni5TH/3qUcP9L7pBcSA7LhM/v/qXGJTTHzEm9fquBl97r7bXYm/xfryx7XUUFFIXwpwmJmAEAoNci8tT+mLeNT9Dv8xLycuM6gYqBH4+zYajm/H8+mdQdqIa9m+dARGdPbus6iSG9srDsH5DEBufiKracuTv3omCYzthiSfjV/jKVeAiX8BEN1Km400mvDjpRQzI7nvh1p36aFbN48LldZX4y7qXsPLwEigGC1m9d6NqDmYK3almI16Z+k90S+YnQ7DHqfkRKVFeOB+fHlyHx+b/BNhroMjjX+PTU3J2axl+MGUe5k6fg7TEVLGey6G0ogwLVi3EXxb9FdGmOD+f/cXUF91vdTo30hSpEtP7TEX/7D4XFXB9eJ22PiU2Eb+89lGM7TkRLsUmGlf+gsOpzXYME3pPEYKr6/6bH/6PBWebH9V1KIZlDka1s6rRPLcU9nCbsw6P3fE47p97H1ItKUJszfDTk1Nx34zv45ezf4rquhJ32oGUXsVvpcwHcjnLMSw3jwrUe8Gpe+hE/frDkT9A9/gEMkWbT5/1BW6bK5IVeZ2HCXHVK06Nw1OMhncdjbrqYr+lz0dxKk7kJCXjpmumiMucnAfN6Hnh92ajCbMmz0Re78Ew6blu8U/6nvCfa3FxUX61OtyXrPM+vGRTQ+/PN7yBrnEpfmzVU+ims0uIine/94QOsboY4fX+8jMWtLqqCOOG3iAmNKgd5UagU42LjsOIgWNQUlMsokOg8aPoF9OcwmNj6ZrWBfOuegI6RyGMfEN6mMPnL0vk6Vk56hTlJlFjS6eELNTVVLrfBZaAid6crPOJspeN6DYMT1z3AiS5BmYR6sIb7pDw1OTmlUbgCZjozYXrOG7ITeo3Hrf3v5X6s8WicRjB/4SM6IxobFFcvCfvAUzoPplaQhW0rvVZjEz8oDLgInAHnJASnWHdE6Lj8fPrfobBWYNgkOtE+G8NbVFPhgVu2w890d0CJcUk4rFrHods1EPvcoh1EVoOO5NGyInOcJjnPF6S3h2vjP8rLEYdjJH63W8ETXRv9axWv+d1H4J5eU/AXnswIryfCJjo/mg6aR4/7vJr8dCIJ2GQKtVLthFaRcBKsF4VchHs4Tz2vPP0XnHBRRuHbgoWPsZoxt15d+DKrtfA6Syj7l1E+NbQ5qXHGnPk3ld4AH9Z+xwcssNrVHCRCfEY9VNX/xwDMvtDJ/PdsU2ZVeBgY+NJED4ttK/e1Lw8GkxmGBs7VlOLMH4uPR/jqjs7QXMZszkaS779DxZ/s5QMQfHo8ZxXFjnLkoGnJzyH7KhYmEXW20Z4Ltxoijay0w6btdanxW6rg2xv3nCyo7oMVpu10eM1tiiyTPmK8j3yuYvYb9fTTTojZOshvDVrJfpn9xN7NiYJi8uevmjXCvz+y0fIYs144to/4qbLJ9F6vjbWNHxMvhdr8/HteHzVPNQoOkhNNO54Tp69bh/mz16Dy7P7uNd+F+0iy/urF+GR5+9FRnpvkYYGT2s6X1OIyzv3Q59efZBoSedMuLd6xm6vxdSx0zG470AqjMZjk1ZOmwq2YNn6JYiNSRaPXvOKXoeK6kLsP3wA+08cRHxCurjJtClH4DLnCSxXj/TjJIqGojdFfdGfXvNjREd1Q6LegT9PeR19MnuL4VhPqBLp8NFu+vzaX0NnTISzkQs0/hCd81JZeQI/nf0bzJk6G6mWVI9G2RA+cqCroXPlJViwchFeWPwi4qIs4jtkG0OI7u9JFA3xaEn1sENCmSTj8eUP41jpSfE5T58VhUhCTexzHe4ccBccjkLfw1szYA93Slb85r5ncP+se5GakCIMhI3W14V+fC4HprFjeFvSk9Nw34y78bOZP0EFRSRvTsMETHRf7ZtFlHUmHLdW4Q9rf4daR50Q1RPcojcbTLhn5L24qcdMmLhh50fh+fiK04lunTJwy4SbERUVJdZxgTZ3aY6fN/Z5b4soC2oAzp0yB9f0GyOmd3sztaB7OsNhUG+Ixc7CfDz9+XOocVAjxQfhowxmPHDVg+iTdhl01JXzVyjllkXp+ZOYMHgKEmLivRph0KHTjo+Ow8ihY1BlOy+iVFNIFFUDJnpzETfLm5KxfN+bmL9jgTAEr0VNJ9uJWvSPj30SGfHdyMplv8jO6SpOCVlZ2WRcIVNEHlDPuktqF9hqSz1eknY4HMEP7/Xhr7uIiu2Ff+98BesOfC3qUE/tTPZsbirxGP3vSPhoVzUJ3/JTEu03yjjnXWfQobam2mP6oUYlVZH6qAThQJ4IOTPmGwFsujg8uvoBbDm5Q4RxTz7PArEwg3OvxKMjnoZZpvDWAu+UYl0wJ6kewunFWTKxcdcG2BzqNzGHMnz+dtmBrQVfISUmxes9BCEZu/ipKCZjMp5f+3ucPl8o4q1Hj+dGDdVjkwaMx11DHwZsZ90NmuYRlWuCkmWAy6xDIvWXdxzYia93blYNj9Jv2HL2ZfE1UvBejX3el4VPddOuLVi5eSV1YY1e0wxJ0dnTnHojjlNj6verf4fi6lL3lqZhifnuldlXzsS4S2ZSd6ta3dAc6CBKLEWbHB3sqS5I5Pi/eukXWL3hM9TZrLSDOsbARtCcxRd4L961sc83tTBWhxXrtq3Hg889DJM5UXw7pSfEZ8kqPJpFoAdn9FG5tK7xcCTGuuU6TOw1Ab+67gnRTdNOtin4dCptVfjFskex4cRSLJizzqfBmXe+WoinFv8I5vjuIjzqdNSjkHQw1NL/RTYMvSwPN141GamJKapCPsDDpJ2yctC7Wy9RdI3lndPmtWdKzuLg4YMwGJtuhDWkqrYaH67/BBt2fgoDCe4pY5w0D86MGZEX2qIz3DCTqDv24NB5uHPYrSS8WfRPPcG5PHzuKB5aMhd/vuGfuKJzX3VDIzQlugaLH2UzoaawAvZzpXDRe19EJ39C9fFq/PX5f+D2yXMu9Kkbwmnz2vkfv4+77r8TqQMTyViaLo8L8AddOphiE5Acny4eIKSeSdMo1FDmYdiQDO/14Uddm00peGPHn/H5obWi4EQ95gEuxJ7Uov/DpFfEjQSMtwJpCv56T3u0hKgeFiT374k0Om5GUnekpXpe0mmxdLeICzW+Ets3DukpPRo93neWNFrSuyGBGm5Oftq2l/MT9ubeJWCit6yIG8fJRzOk4qWvnsW2E/lu7/ScAnvWkNwB6JLSWbxnz2spbGOyQu2MGAWOXB2cKWR4empEKYoY625skShaqNGxefDjvxo7XlNLS4w5YKK3vIgbx0lLmSTh16sewvHyU/TOewostD9vE2LxFTqcRNW6M5f+STJC3OTa/HJvc0RwdBdZyIf3/0KepTOgxKHg2XXPiC/e5fMIRnmLNA0KnGmUpy4kfAw/cIBKNITFr9+cCCPRKcRyA8sQi22nN+BPa1+ENYjPt+O6npOWoijs59DfbPJ86t+z5zfSXgsN3EUVFnV6fbgWM5gzsOboUry3gx97KWr8oMJDwUqsAiWHijPVAJ2e/J4yFarih02dXh8eo5ddSXh2wa+xfPtn5HFkCkHyeA32fJmc3ZlKnt+ZPD7eSCtDR/UwrdNV+NEsjkoZ1cV1MEV3xTPLn8Smo9tFVy7YwjMsvmIk4TMp2nd1P98mBAjPOp0y7aySYSuywVntoL46vdfJsMoKfvPur3Cs2D3rJgSE58xyNWS06OFMcq8KMvWLJbRFd1unVEdin3PCUeWuv+uZrUNnRmFtEZ5a+DhKq0ovNukIFxDF4hY+YKL7w99kuwu2Ugn2MkeT04l5gEQxxGPHmd14YRm16B1WryN2bYk6xBw6+WH8Kzqdm12yu994hudtN/rNjGSRXE72cifsJSS21enZe2kbd+VkxOCD/Pl4afXr4Km+zStmFxwOuxZY/Mq5snN0dO+5qXLUUK/E7NO+LSEg4V0MCJqSsbtoj3tN01gdNuws3kGpX9zQYbGdNQqshVYR0oVB+BKuaR9+/lt0TBbe3vAaPitYIy4u+OrxdqcD+ce2Q29O8GubwBidjk3HN7svyzYOp+ckI93yzXpkW3IvutjjT+oXo99E54n2JlMKlu/7CMU1VLfSyTQsQH7PrexdZ/dgy+nVMJoyVcumDEm1CuylVG9XOGi/lvmcwyVRyzkWTy1+DMu2r6I1avqcbv2XWMcvd362nSjAphMbYY7KFMbrD/j4RkMsDhftxYYjW0Q6Ih8NFmbjrk3YUZxPnm4SY++Bxq/h3UFWevT8ITz96dM4c77wQsGyx/GpsGEcLDmCv6x/FnadBXxtCIpOhHJHhROyo3m3ATWGw6WH3ZiA3y76OV5e+SrOlhWqEwsoKS5jXkQEoB+H5MSGw1vw5PwnYJMpxCs8wu8/2AhlXTSeev9xMefPIbkfrsA2TYtI/+AmPLTgLthTo1HXifIZpw7sBBK/PiaUYYvWyzXITeiEGf1ux4CcK8SMFvEc1mMb8MmBD1Bir6OCj6LWuExhnFrkAYhoXHE4pTp0jU/EiEvHYUyfMchMyxTTpvmUi4qLsKJgBb489DnqqNvHc+9V0/QvrC8/LzfOZMb/9BiN6wZOQHZsJgqtJVhesApbD69BjczzeNUHI+spCwYrlWE5xRybO+60LPBdBIf3gD0QmBGXMWlX2XaMSj8JelM8FPs5sc1s7gy7TYadwzhPFuDcBAgDHZsXa/Vxekeh3BhNsS2W/qdQay+DISoeJnOmmIwZaMw6IxzOEuqFVLnXUP7MqZR+0nfS54kbOlkPQyX9T44BicyhlcUkRHffyxaQLpvwGErEGNuD6u0UGMjvjNG5tCEbNaV22Mpsat0VQMEZmezZQV06U3w3MSPGFJUFMxmgyZQAc0J3Msa0NhGc4VCvN6aIfGiL3mxpNH0xqkcuL/E8vc4G6JJo4eLyzecapb5rB0R0hoXnPiq/JJm8rYzELrW5+9uBFbshnA9uFfO3hEqUNnfoxHs2zjaE0xPdSy0/tHiCheIhXUcaGUGuegmXo2hLSk/4l/t0Aya6mjMddcFcsJ2zUd0tmm1BxUtNFrKwA4lLuNlksJ0MQBSJ34p2UGBEJ7OSuL9d7KBWuQ0KtYwjtB6OVEo8GQCJDw75evJ6H4tW2Ls7RPhXdDoaXwWzFdnhqHRCcVIoD3C93dHgGkGhcnamk2NRfQ8Lzxf2sYzdBuIf0SlNbo84yvnCiF30t8M1lIYLos1kopCfQQ3WbPJ6ru+5yJsoduF7/vJ0FtdRIVMot1H9zX1uSjXi3W0Ga8z34Tmz9VDSjTAYPdT3boNomejs2XQAFpmHToXYTVhYhDaAyp49X04iB8zVwZVCYd+9viGJ5lTvokcZo0jji01HkWQSW1KHTu2taEZG8CvseGKKNk/Z6kqemeD2+nriJ0YneRe9p6WLeFA9D69yI81OQtuKJMg2vuTpnyZBBP/CEzVhooZeBmnWyQjEsk46mIwmDO07yLvovdJ7ksEkwn6exC62Q6ptxiXPCMGD5yqQRHKCAjmH/kk3oEdOd+T1H+pd9LS4FNxx6SwYbS0bCYoQXNT5+TrIycC0yVNhiU3wLjp/6cys4dNw+4iZ0BtbOggYIVhwtQy9gun9p2D2qGli6NfrVTaGd+FLoyt2fYq3Ny/EgXOHxSib1w9GCA5uv2S9Oydm4fujb8PNQybDbDQLI/BJdIYlZi8vr63EW+vewzvbF6LaVicO4uMhIrQBQlQS20j99bG9/we/m/IrJMUlCg/XHrLos+iM2JUOyH/3nN6HNze+jzX7v0Kdk+eARcQPJiKMk2PyFyGMuGQQ7ho1B0O7DRZPz+aQrG5XaZboGqJeYIui17r9X+PZFS/geOUZSLISET4IsJzc3sqKz8Avr/8xxl1+jfBqLTo3pEWia2gHLakqxao9X+A/mxbgZMUZuBTyenpFCCzCeWlJi03CrXk348ZB16NzUrbQpL5nN6RVojP8cX6xZZXUlOHlz9/A0j0rUWu1CtlbefgITcCaxkZFY3j3gXhswiPomdFVlLUvD0dutegammfbnXbsPrUP721dgpW7PxOzVNjyIuK3ngv1ttGAId0H4J5Rt2Fo14HiG5u5+D15d338JrqGFvLtkgNrDnyFV794E4dLj8HJTz+KCN9iWE9+jk4nSyZuG3kzhfMZ4rqIFmWbg99FZ8Qh3UZ37nwpVn7zOf618V0U1ZZQK5C3q9sieEfz7uRYC6YOnERiT0eX1NwLztUSAiK6hgj5fHTK27GSU/jHmjex5vBGVNRUccoR8T0gtKZf8VRvD+rSHz8e+4B4Hp4oU97UQsGZgIquoXk+3zO25/S3eG3df/D1sa1wSlJE+AYIsamw9PS3a1oOdcHmYWj3QYg1x6jbWyG2RpuIrqF5Pg/mLN2xCu9tWYRDVN+L254i6gvB+QH9mZY03DpsGuYOn0kt9BhRbv4QW6NNRdcQ870p1eLz57Bk53L8Z/MCVNRW0jp1QKGjIQTVu2CCEbcMvxH3jr4dGZZ0YQD+FFsjKKIzmtdzQ0UM6X71DjYc3YYKa6UY3OkI8O1L7N48VDq822A8eO3duDLnchgMBlE+gRCcCZroGppnOyUn8k/uxp9W/g3fFO6jcNC+R/U4lHNPq2tyNtXbP0Fez8GI4Xrb7QiBJOiia2iez9/WtGjbUry/bQlOlp8Rtxm3p+peCKpTkEti3zhgAmZTfzs9PtW9kX8CKzgTMqJraPd3na+rwlsbF+DVdW+IwuAZ/uHs+Vp/m2+VHt/3Ksyb8BCyk7LEtuYOrrSWkBOd0eozSZaw68gevJO/EOsPbkK1vTYsvZ71NhuNGJJ7JW4bdQvG9B4Jo0F99EpbeHZDQlJ0Dc4av/i+6m1Hd+IPy1/AobKjcMnhUd9robxTYgYevvoe3HDl98TMYrEtCGJrhLTozIXsURmVVJdj2c6VWJy/DIdL+EEDvF38CSmE1vQrNS4R0wdNxqy86chOVEM5E+iGmjdCXvT6CO+mn/PWKryw6lV8tGcFrHZ+hFloXMVj7+U8GvQ6DO02AH+c/hSyk+uJzZYbAoSV6IwW1rm+33a0AO9QY2/90c1w8J0YYswnOKcj6m2TCf0798HteTNxbZ+rYNLq7SB7dkPCTnQNFpc9h7+/5LO9a/H86r/h7PmiNp61Q3mglrdO70KCMR4Pjb0Ld4+eK9LnYm3rVrmvhK3oTP2sF1YW4cP85fiwYAVOVZyBQl6vhdtAIJyXlvioGEwfTPX2sGnokdaN7cC9PbS8uz5hLbqGJiyLfKrsDP5v9Uv48sAG2Jz8XDj/yq6K6YLJZMDAnH54ZtpTyE3NUSeL8iuExdZoF6JriFOhMueH9G0+vB3//vp9bD62wy+jepqWLOyALn1xz+g5GNlrOOKiYoV3h4PYGu1KdA1tYj/7+AdbPsJra95CYV2JeBZeS/yeBeWKgodLbxw4Hg9fe7+4vq2lE260S9E1WGA+vbMlhVhc8AkW5S9Vn1vrY2OPpYbBBYs5DlOvvB4zhk1Fr8yevDbsvLs+7Vp0hk+PX+yRBwoP4+9r3sTaIxsvTNFuDFVLHaKMRvTP7StG04b3HCq2seLCGMKYdi+6hubZdXYrdhwrwJub3sPXR7epdX09z2fBDXq9uK5928hbMPqS4UiIiQ9rz25IhxFdQ6uH+Sreyl2f4+NdK3Gq/Ix4IrOJPDvLkoEpAyfhpkETYSGx2RjC3bMb0uFErw8bQI2tVgzr2px2MYPFEm1BIt+4H4YNNF/p0KJ3VNqvOUdokojoHZCI6B2QiOgdkIjoHZCI6B0O4P8BMv8wStYAyIQAAAAASUVORK5CYII=;" parent="1" vertex="1">
          <mxGeometry x="372" y="267.75" width="42.34" height="52.5" as="geometry" />
        </mxCell>
        <mxCell id="XR_6WtsRUjD9yIIPg-Dq-32" value="&lt;p style=&quot;line-height: 1.2;&quot;&gt;&lt;/p&gt;&lt;span style=&quot;font-family: monospace; text-align: start; font-size: 11px;&quot;&gt;&lt;font color=&quot;#080808&quot; style=&quot;font-size: 11px;&quot;&gt;Container&lt;br&gt;&lt;/font&gt;&lt;/span&gt;" style="rounded=0;whiteSpace=wrap;html=1;verticalAlign=top;imageVerticalAlign=top;" parent="1" vertex="1">
          <mxGeometry x="495" y="217.75" width="130" height="70" as="geometry" />
        </mxCell>
        <mxCell id="XR_6WtsRUjD9yIIPg-Dq-33" value="" style="shape=image;verticalLabelPosition=bottom;labelBackgroundColor=default;verticalAlign=top;aspect=fixed;imageAspect=0;image=data:image/png,iVBORw0KGgoAAAANSUhEUgAAAH0AAABoCAYAAADcm/8NAAAAAXNSR0IArs4c6QAAAARnQU1BAACxjwv8YQUAAAAJcEhZcwAADsMAAA7DAcdvqGQAADSMSURBVHhe7X1ndBxXlt7X3QAaOQcSIAiABMUoZlIiRVKUyJFEhdFoNFmjndXs7M7a/uHj4x8+Pmd3VmOfY8/axz5eH+/uzO5O0iprlKWRqEhSokhKYs4BgSSInDM6+vtudQENEGCmRFG6wOuurnp1672b3r33varyRKPhKL6CLxV4Y99fwZcIrmumR6PR4fIVjMBXmh4DycWXRTau0zFd2g00t7bidN0ZhCOSbu7wxA6PARFAxZ+UhCmTJyEvNxcezwSVrwO4rpm+8d1NeOK5ZzEwFDSuOnxUd+MZ6mzzDEwqLMJ37r8Pq1feZPuuV8Zfl+bdTDX/evr6cPpMPRp8qWidVInWIpUb4soMZ19+ORqjyWhoakZvf18My/UL1+mY7jH9laJ64UNy5QLkrP46slbdx3JPXLkX2avvReaKu+CvmOVQ4/pU7lFwfTLdHbDMklMAEvzwJafBl5IGL7+9yalxhfu1L9EfY/j1z/Xr33snD102aoweW5wDsfIlYLjg+mf6GJiQ8V8i+NIx/Sv4iulfSrhOme7E4rLcX6Vgz4bPnelubjwUCqGvb+C8pXd4uz9WRh+3MuB8B4LBGNN5jUj4nIUfToOGXf+rD27fP2v43DNybsdP1dXjlTfeNNpHPeM3aexeD/dQn2O/4kAVieNYVQ327tuHxIVrkTJ9nk4YA6oYRSQ4hMGqg8hrP4WfPPQ93LXudjt6tZy8SERCHkZLW6sJe0F+HpKTkuDxej8Tx/IaYDqJEA3j41178R/+6meIsuPwp8WOjgaHlxSSYIDfIXj8qYzBE52D8cCKrAUvv8P9XfD604Gk1HGY7tRTI6JD/SjJTsNPfvgQNqy/ekyXgIfCYdScOo3nXnoFre3tuPfOO7B0wY3ISEuDx0fGj9fQKwiff+6dV4/wT0z/j3/1KKJTpsM3Y5EoHqsQAzFG3+EQwnXH4e3rRtqcZUjIn2SHR4HxkRrc342eTS8hWjoTCSXTzsYZg2goiPDpE5jc30Kmfw8b1t1m+68W05up4X94+TW8/Oa76BsKYEZpMR64ZwNWrViO7MxMeK+yxl8Tjpwr2V5+eTJzkFhcgcTJ5aPL8L4yeDNz4U1Nh39SOVLLZp1dymchrWI2kqdUwpuYBG9WLs8bB6fKJO4vLIMnI9vR+qsMQZrzg4eP4oOPP8VgRiGSZy1FVfcgnqTWb9q6DV3dPRziIiYcVwuuCaa73bPv8/ZVIiIhuVBNIMKrR7+LAjGyvaMTu/YdQEPXAFJmLET64vVIvXE1GgajeOmPb2DHzp3o7R+wuleL8dcO010enqOfHjZX5cIZfhFwFVDGg6xIhBrc0NiMIyeqgawCWplyeJPTkTLtRqTOW4narkG8/MZbOHL8RFzkceXhmmD6lwEkU/LUm5qb0dTeCV/uJPjSs7mXEUiSH/7yeUiuXIwjp5vwzubNaGlt+4rpX3zwIBAIMkxrQ28gjISMPHgTGKbpj7z1MrpInr4AoH+x7dM92HfwMIYCgdi5VxauHaZfHaG+piDAULOzqwthjw++1Ex66C75aQf4n5CRi5Tp89ER8uLDHTts/L8a2n7Vme46JOdqvJIsAn1ez7wPBkPoH+hH1OejSU9ClIxWGQaGaYoyfEVTceB4FU7W1VlMf6XhqsXpYrLM2YmaGjS1cHyiEzMcesauqN8Oo6M4Xl2L3z/1LDyVC5A4b7mZvbFgcsM4PVR9EJ7edmQsWoOkolIdsePDoJ88PdTdga4/PoZw+RwkVcx1LugcGgbDGRxCoOYgshtOYP2aW7Bw3rxxrh4D2mKdUjJpEqaVM+RLTBzp13mgobERv3nyGby55xgyV96HpEnKHTjtcXrgKEf/4R0Y2Pk2fvKtr+PB++5FamrqcBinbJ7A5yOFeOHx4vnzxfhXjenyVDu7evDk8y9g28efUGIjjMPZGIn2SC/tJ7uDwcFBtDS1IKoYPCcPHgXt8cD6xqAoa/d0kqMBJOQWwZuS7hyMB/3ktaLBQQRPn0AkIwcJdJpcrRqmSQyn5d97upDQ14Xs7EykpzoZQcsGj2mGTgqz/vpbV+O7D3wDmRnp5yWyC03NLfj908/htU8OIH3FvfAXV3IvHbm483XJQGMNOt5/BrfOqcT9d99F2gyhvb3D1u8pfav6KclJyM7JRlF+PiZTAHOyMmMCOL4gxMPV03QyvZVe6v/79W/xzo5PESmcCm9qlh1Tm4yBBo7mQISvPkCvthDJ5bPGITaBFaOREIJNpxDsbAXypxBn5shBF7TJi0SHBhGp2Y/EKZXwF9IiuDjjcQsnrUew6TQCrY3wFpcNp4FlbcY2I9LbhVDdCTywfg1++qc/Qk521nmJ7EJ7RweeeuElPPPuR0hddhdSKpz5gPirqOmh7jZ0vfMk0oe6MLkwj0PCIPqHQqD/Zwqi2l5KZKo/AdlpaZhUVIiZldOxdNECVEydCr/fb7gmatfVS8OSq8b0f/kN3tl3FJ4bV8KXV2KHPDET6YKaFqWnOrj5eRJiFrJvuVd77Fg8aE+UGt63bxv6Th5Dwswl8OVPjh2JA1NpjzEouOV5pC1fj4w5y50LnQWsFxhA38Ed6Ks6iMSFq+GlZ+0cORtCLWcQ2PkevrlqOf78R39CpsshG5+4Y6G3rw+vbnwL//KHV+CdvQppc1fA40s46zrhvm5q+lMItjUCakt2AXwpFO6kFNb3mZmPhoaAgT5EetqR0NOCLG8EFaXFWLVsGVatvMkEwUtHcby2XV1Hzr2eLp6UPLwY0TNqYSKLJk78KTbZ4mEY40tNZ8k4u9CU+5LTnUWMIpZw8jydP14RTnVRcfC4+KwQJ/EKp8frY+hEfLF2qZ1nFV5T/RlfJM4NSXTeigoKkZ2ShFBXK4VtaBQWY6bkNyERvmkLkbj0biQuXo+k2SuQSF8noXw2EqbMRELpLCQyrk+auRT++WvgWXA7OgoqsftINd7Z8gFOnqo7Sw/i4RoJ2dh1G0Cvb/BRqCYXFqKUJdRWTzPezL3OPL4Y7gB9BtLDW0Qvnp58QnahCaUnkQLu45hNYfeqSEgZ23vTc+AtKIEnOx9e+kG6O2dKSbFp+EQW6Nph+pcAxIQiMnzunNlIGuhG8EyVaXu8VoZCQUvKRGXJNM08FkQqI5dOckqUUUq45gAKM9OwZuUKmvaiCRkuuEaY/uUAaWJWZgaWLLgRN5QUYJCMGmyoQSQaMk1XVBCgEITpWJ4LHKtAppKx4d5OBA9vR3pfK1bfvBwrli1FYoLv82G6K4fjwoiQWhnt1l0CjME3FoYt54XAWFxjyyg4a8dZ4IzTI0WML5k8GbNnzkRidysGDm5DqLWeEUQEQwxbg0HddxeHN3ZdY7Ttl/dOXIyOQq11GPz0LfhbarBq+VJ88757GEKOvwAlHi6Z6fEdmQgcWXNbzV/DVXUkvvDTPWY/nX0XB6PxGRCnfl18J+NxjVfOD/H0EYOUt+jq7sX2T3fhn//1Cby9aTMG2UCLFBJTMBQcIsNp1o2ezjWc83lu1MnK2aoianCktxuBQx9h6KOXkdZZhztvvQU//uH3MVke+3hDwhi4dE2PdeiCQebGTI4uObbEr3ZzkrKOPI8uOubW5cfw74lwOmV8XOMVB/d4uOKLgzPWgAlBtBkcCqClrR27DhzEY08/i//88/+Kn/3if+L197egMzkXmaseRObS9Qgz0ggODZlwcFCn1gctHwGVcAA0AQh1NiNQsw/9H72GgXcfQ2T/ZkzLTcO/feRH+Okjj6CY47jL8HOZdsElx+n9jBF37z+Eo8erR18kJgj6HBgYwMef7sSJ1i5Ey+dSqpUVo7BYjREwLWcHwwc+QnJBOZLnLI7tPBuUSBmqPYqh5gZ4S6bBk5Fl+OJrO+wjDPYjfHAr/DMWIblspvaMCxFqWJBx/2BTHTzlc+BNSUNkArpFu9oQqtqHeaVTsGzhAqQkO4kQtSCq1An73zcwhO6uHjQ1NaC+qRmtHR3oJ1N9KRnwT56OlBkLLBsn73soFECAx2QJIn2d1ODtCHc2WlQYZSM8FABPoB+sZOv4EhMTMLWkFLffugp33bbWnDYNGQ4LJvbY4+GSmd7U2op/+PXv8Obb7zG29hETL2bar6P84E81QH+y7N6YeTeN4v8wOFVtQ1omc2btPkerorGkAw2dyYYFPfE4BcLLg0pVK/0b4cbYKsNgB/QRd+GJKisNrIuyP1bTOuycoxbZiQnsB8MzXwLDLKWAc4uQNKkc/qIy+DJzbTFnhOdJu4eUNZSGE4InD1GDNyHHE0JycrKFeIn+ZKSlpqKgIBfTKsoxb9YNqCyfhsysDPiMDnaqwYUwXHDJTK9vbML/+odf4cODVfDNWgJvaoYRwufzWRLClvOynpA7K17ODY7+kzH8ElMnAgePajuYHUJPBBJC4iQxzsFyB6yeI3jnxuh86m9sPU2V6riPTLW4WkkfWg2PYmoPPWoekzUQk4PU3CHXpBMiZH5g93vI7anHX/zwO1g0f57RMYG4kpISkeL3E28CEbC+03Xnw/7HtuTccElMl3DX1dfjF//377Gzvhv+mzfAl5ZjnU5ITERySipNDrVfhLlA6btewPFzaIGMEaP7riNicpBxuDRcIZoDDNcaqhDeswmrZlfgLx/5E5SVlprZvhowrkqp4Sqayw2GwmYarS9xEGbjA3Q6TCn1wfZFPZoOUFFnJMEa48JXrcirjWiiRmXMsUsvavPFt1vtsLaYJhoxRKZhMJqKZsMm3ZktM52g5x5uqkWaN4jlSxfbzQ/j6YpwiBehYNjo7/LpYmFiO0ro6enB8ZpqNpIepCF3L8Bv/rvtssWK7pjtVtPxqEyljvG3xlTWcUz95Rdd1UOckb5uhPu1bFjmdvy6F1pAIddkR6S/N9aHC2+vJjfcYtYtjmlijBIug3R+h4YGHA13ucrrhDqaEGHMPWtaGebMvAEpKckOjlGgBsmBHsSR6io6yQz4LoHhggmZHg5HUFVdi1/99nf46JNPzAPVogiNR7qYGqUQwZE2abXTAPtNBqjTNn4FBhBsPYOh+moyp9uk3TmHxc64cOApdo5pFokXaDmD3r1b0LN3MwLNJ3mtfh5zxsgLBbVC+ML09AfZxp5d76GPUUSoo9HablaEf3K87NrOaecFp66dSYsZwGBHKwbqTiDU1UIuKyRzMKkf4foqZISHcPPixbY4I57h6rNorvG/sakF72/5EP/8+9+bTxW5yL664Hv00b95NLZtoKYEydwzDY14+c2NeP/DbdjL0Kyvt48NoBesVhD6+wfxye69ONPZC19JJTTbZcIgs0UiYqgPQRJu4PRh9O/fiqETe+yeMY83kZ4tOyVHzzRC2qROjnR0jJrwn4Ki+JVMCDOs0ZTj0Kkj6D+4DUM1+xForGWY02L1IIfJCrHasBOP1wXhZD8YDkWofWLwYO1B9DH2DdCD1vRpiPgiipHNfLMu/2PNJQj3eHjj9klYyNxgbw8GGmrRf/RjhA7vQLij2Y4Jr/oWbjuDaO1+zC8rxob16zB5UqGdLqXTmrrunl4yuxkHDh/Dq2++jedeetkenpSamoKS4slITU6h8+zqrngzXrtGgyccDlqfQiRqP+Pq9s4u1NSexIfbduCDHTugO0NlEHzEpcmCG6ZXoLxsqoUU72/diiONnUiYfZOzmIFE1PjkC/Kc3naE2psQ7mols4acq9HJS8yZjESGLgl5k+BLzbLpTy9Dm+GwT22mFkRpahWTa4WMNDhM5oR7OsmMJsMbIX5dS900huhEOpAJecVIKixDYnYhw6UseDUVat4zCcN6prkhxsUaV3s7zLQGm04i2N7AOHiAiGIEJFE8DJd8mflIyCmCT3Pa6TmMtemNa0qXbSa1SZqYcMXOiZDRanOYMXWI7Q201iPUWGN0UMwtoYwmsT0M5bzEDQ4lvq4G3HrzMqxZsQLpaWk2Xislq7td9MSrmppas7rN7e3D2p2dlYbbVq3GiuXLMbV0CnKyM8zDT6CH77ZnfMHk/kBgMNpDLdY6a3nkx6pqcfjYUbS1dThjjyQiJj0yVtrysrMJZFJHVxeaOzmepucimuAns4LwsNMemzCImZ7h62pD5zvhkxYG2g2ILD4WMCzxetRgKYLDcC2siAbIHJltJSdITNMQg2HEFuaNAiGRMKWm2xy4zZH7EnV5wyGzHRnso5Zz7NY1xGAdjIHck3icsnCSek+i2kxcmtIkzqgIrEWOYr7qq90htlfWg0VCpJstvcQ/qolsn4eM9QQHkUDnNzcnhwpVYAwXw9SeAJmu8XuIVjdMvA7/9OHiiiDBl4BJkydh9gzG7tPK7cGHBXl5SEtT9ET/IpahGwvG9A5qt9Zjd5GJuohMuF3jHKDpv5179+H19z9AMKcEUWqwCwrXvGSi7sB0GupgM8kTAYyi2hapHYI7e/Tndss5xxETZ+tiwBhnG+55/GWbEkYdjFVQRYOJ8DvHremqw/+RFjm4LLdgv/kZCVH2SUM9plKg6zscGwHu8/Z1wdt6ChUFWfjarWtQVsYQLVZP+B0aOL8c7GPB2Sf66LxkarmWbonpWVmZli+ZUNPpxJh5n+D4hKCFjJu3bscv/uGf0J01BZ6y+UQSMytkekKKn4ynJpiv6CIffRFrtj5iauUePUvkrI7+nXrjQfwR52zn090/ci63uHkWH2LH3d3x+ATjip4hGtk2ZrOEqRATA8+hpfE0HEd2XwO+vm4tvn3/fSgqoKknTMSoCwU1Sdc4Fx7j0qVcx0fzXlCQhzyOJZ5Bmngzvc4xeegy0WrBCJHOvoj26NoiqENUp4xsxQo/9D1m76gS/+fsc2DkV9zWyOFhGH2u+2vkzwW3hvXNLexrmN51mIpgDB/p9BjgAU2m0C9J5Dg+v7Icq1fchLzcnNjxywej1XkYOr7RvwDwcbxQY8vpRHjpqWOgO0YNgUMIx8RNSIGLAAeHPocLP5y9nyOoDcEQGU5mk+kROsMG49HcGkx6MPrwttaiLDcD69asxoxpFWaKBZer5RcKl8x0NTArIwOzZsxAkp4K0dfhdCwGkZCcGk0PXj5rTJvk+HA7McGDpASFezpghz8TGNZqhY8K4+hohrXKxbSb2ivLdi7QuQM98LTUojAhhNtuWYFlixchhVGQuvJZMVxwGUz32uzPzOnTUJhFL7m3jVKv8E6ccKQ6TC1wZ5AuFxITPajI9WPlpGSsKU3DnOIsJCc5GvJZgSt8Nm4PKuyLaTf3mxROwDgdjgY5jrfUIKO/FTcvnG83S+TSUsrD/iwZLrhkpgsUE5YWF2M2Y3dvbyfAuDceLNaWFpBQJFds78WDvNOitCSUhtvRvf8jFA60Yu20XJTnpZBgl4f7fCDNVmws7bZHnwwFEBpkHE7Gq1+s4VQcC2YVYtsMzdB6EqkcxxfOqsR9d34NU4ons1+XRf5Lhsu7KgU0Lzcbi268EVnURA8dFDAudcIgFnY6zLhdxU07XjxE6TR6kOGLYKj+JA7t3IntWzaj/tA+ZHoVq+paV4fpwyadzI7QQQvRlGv1qiWNdE3rpj7GAe63I0rWtJ2Ev6Uas0qL8c177rYhMVHTpJ8TXBbT1anUlGTMnTMT82ZOh6+nBdGeVudgDLTgT6bQCGeJlfMzaGTsVGEoRIWKUCsSOf6FGQfXn6lDS0srGGzyGPFdAZ4PM3j4urRSETqjMVNu5lzCyzrnB4ZMqhchw6nhSc0nMGNyvr1AYNH8G+H3f3aPDxsPLnkRhQsiUG9fPza+txm/fvo5tCRmITplHjxJaY5UqPOSekq2LznJWahvc+3jd9gaI6K7v8xBiiI/KwXzsrxI7Wyw34O5xTjY5UFT15Ap23Aq9BLBZTo5ZX2SExqhTxKVQ3pBjI5BrG40HECUXnpSw1FMK8jFj777Hay6ebndgfo58XoYrgDTpW0RnKw7g8fI9Le27UKweCYihRWU5tEmTOlKX7IfvtjdlU4SRpfntxGdZpPaZGlSRQPdbfB0d8CTmoWEGQuRkZ6KLD8FhtW7hyLoGWR8zOYL18VqjZPDds6z/JccNPkexmxqNJk9LHwXgjtGRWKyVDQajyOxuQrTisjw730HK5cvo+NLH2SC1OhnCZfNdIEYH+CYt33nbvz28WdxuLENobxi54F90moW00SZNBWGXEYlEtVD86/cuidEjR2g9z/Yh+hgP7zUFC3aDyenI1RYDt/UOfAm+C3vb9fUpIxtmQxcNAxrr4RNQ4+EjcyOGDkuhSQSIgp5gO2vO4wkmvUbphbjz374A4ZmC2wy5IKE5zOAK8N0/klLent68eY77+Px51+0GSGTanbUpa+442RcY04OP+SZJyYkItHvRUpqGrJzclBYUIjS0hLkTJqE/V3AR3W9znRslMJDN+RCaecyVvW16VoD2y9hkzeuteaKMqT52q9TLvQCBjpH/eT439cJ38n9SOhuxuLZM/Hnf/owZt0wA37NQ1wUzqsLV4TpAhFSpYkO1pMvvIQ33n0XU8rLMHvOHCQlJtGDlyMnbeBFKQyaIdKCv8yMDGRkZCI9Ix3JdApTklNtnZ3miEOsf6y1D49/WovWLsa5IhxLTGTOC47jSGui8yJeM+GyLiExmuO1mGwCoHKpTBH15PS1n0HCqUNICnThttW34McP/YBh2SRn8kkCew3BFWO6C5oLPnm6Do899Sw+2bcPy1auwPIVNyE1LS1OifhhhNZvj6V0/f5k+MVsGwrsgNXvZlz81pEmvHOwnt56jIETMd3dbT3ih/61nl5et4SO2i2ttlWvDCuHhcdp1EWAhEfazQsMURjPHIan8Riy0lLx8Le/jfs33Im0tORY4uXz89IngivOdFFaU7PHjlfjt08+hT0HD2PJTctw0+qVyMjKiE0fmuvkED1GD8mANEKE8nlp7ikASv6IIac6+/H87lOoauyx3y645ttADJbGqchcyykzx8yxLnYBgXt6fK8viik80XDTUnQ0wHvmKJIGuzC7sgJ//vAPsWThApuMiocvAdMd0MT/8eoa/Oszf8Ane/di5tzZWLV2DfKLCoYnGMaCmCgCmRbGCKVvmflDDT14fV8d2nsCDuOMyWq6tFZf0j6dEeuOjvPvckO5ERBCFlqMaG8bvE30zjsbGUpm4u471uP+ezagMC/Xan4eqdWLgavGdDFENKo9dRpPv/gSPti+AzkF+Vh16xpUVE6zFZ+20CGOOC7TXdD57s/+QBif1nZg0+FGdA/E7um2YyP1nZ2C+H2XC+xHhEOCllkpzazYu6sJmXQ8F86Zh2/dfzdunD3HLFP82P2lZLrAYXwULW0deO3Nt7DxvffQx9BuweKFWLBkEXLyc41YF0agKJkdxMc1Hdh2ooXbWuYUO3TFgYiFXMvF5PT1MRKho5bc04rMRGDmjOm447a1uGnJYrvf3A0jr2VGx8NVZbrAZbzWe33MOP7VjRtx9EQVMnPzsGjZYkyfWUnCZdNjJ+FItPPRTQmZT0+24+PqFrR3D5njaHC5BBeTbYiQTxCAZ7CfF2uFj1rtD/YhJ8WP6RVTbfHiTUuWoCA/x5kw4XXdZU5fFLjqTBc4jFfGK4ozjc3YtOUDbN66DY2trcifVIjZc+eirKIcmTmZ8NPsOys6xyOk49EPBEI42NCNHVUtaGjvR4DO2sSd0JEJmGJMZpHjp5U/Q2T0QBe8HLP9/E5n7J2fl0XNnmGMnj9nti0cSfiCafZY+EyYLrDkh33TYjJGlpO3+YOt9O4P2iuvk1JTUMq4fipLfkEB4/YM+JMlAFp5SyGgc+Rqs3CFKEAn2wax62Qrqpq60dUfsAcUxjNYW7rVyvhumuwIny1FVtFjuQa16qcLnv5u+AP9SPdFkZudiRLG2LNpxjWDOK2iAmkpqWyDY4k+rynRKwWfGdNdkNY7G6Q3x/faU6ewa88+Y37dmQY6bINIYUyfR084v6AQWTnZJgApqalI8idZ3l6appW2PnKgezCEI41dOHCmE40d1PqgM0GjcE03XWipsWmxZrz4HVXKl4z28juRZjyFQpGRnGiMLp40GdPLKzBrRiXKppYiNyfLsoWuRn9RNXssfOZMd8FMfmxbd3O0dXTgRFU1jhw7bsmd5uZmdPX0IhjWTZJeJJDh/mQ/zX8qklNSYnG8z8bTMLW+tXcQtS296KXG242EZKgvEoCX8bSPzCfr4E/wICXRay/IyU7PoOnOQ2FRPkqLS+wu0eLJRchIT3fmuiWc1xmzXfjcmD4WHOtLs804uKurG43NLahrbLDnqepGjK7ubvT09tpdOLrtyr1zU6O5WKKcvEIm5QCUHEmiY5jsT0YqBUTTmXqGa3ZWNrU3G/n5ecjPyUFONq1IWopzPz0Ze70xdyK4hpjuePlGdiO+Mnu0AhQCPbtlYHDQbrHq6++3x5rohj49iUkLKVTbyeQlIDEpAX4yUc9H1aNBUpJTkCwLwd+udZCImAMXgy8TwwXXDNMFxvRh4ksIjD0xIbgccHAZiMH8GvYtCF8mhguuGNOdu1lJPPt2mPdFJKbjazh9cVt/vQnFFWO6nlihpxxrTE5n+CVzKpP7RQFjNP91j55u+NdQoOHhWs+jXwpcNtOlGc7kSi3e3rwZPd09WLp4IVYuW0ZP+PxPL7xWQJaqq6sH2z/diX0HD9GTn2S3HJWWFNvU7/UEl90bMV1O1v5Dh/DHje9g43ubLNumhMsXBST16kd9QyPefOdd/PGtt/H6xrdx8MhRE+jrDS6b6TJ9esWEwqw+mneZR9363E8v+4sCZrzJ+b5+5z59rffTW5VUhm85vo7gijBdFHO9YcuOczv28wsD1gu12/TeejTcp+sNLorpRpRxCUGSxTs7cZsTgYtrbBl77HIgHs+l4Tu7I5eCa+QcbY/8/rzgIjXdIcKVbHQ8riuF18XjFK1ucr7HHrtcuBg88dXi23AxOMaD8XCpnAtGPV1quK5tKKcd5vjcjboz9bYC5kxjI1rb2tHHkMZSnUlJVn1gcACHjh7HvgMHbSn05ElFWLZooT1HxYVRDbGGAT29/agnztN19Th95gxaW9vRS19ANZNscQVlMu68iUKnsZ3U7+7uXsN5orrGivL5eoiS+uRP8tukjXue8GpbbZH3rrFcef4F8+bac92UxXMvoXryWfSye9FAad+xoelIe5yl4ZpD0HtVDh4+zHLEXrLXQ/9HNE5K9NvK33g4X4go/O4VNG+h9LRopzZpEkurj73EORGeUbegGDIWTVFq6vO9LZtx4NBhMrrN3vutK2laUVOeevSVGLt65UqkpSTHMJwf1Eg9Euv9rR9i1959aG5uweDAEEMmvbfNiyTG97m52ZgzaybWELemN5VWPR8hRFyVeuLbvPUjfLJrNxobGiiQQ+Zo6nwJaUZGKmZWVmL92lsxn0xVLD6ShhkfRGCRWW3XO1Cfe/llCmodhWKeLXXWHLvbPpeGKm1UkE0fbcMH2z9mZNCA/r5+tjFsQqLVv3l5OZg3Z7a9guOG6dORankB4Rm/PS5eftizgY4er2Jft+Jo9Ql0UjmVI9Ek0r133mH9S0ocfYeRCxanGyKCvlrbO/DKxo148+330djSbN6riMmK7Jg6H8u08T+FGqPGrl19Cxqbm/CHl1+1fPiihfPxbx75U8yfO9tppCGXd9yPd7dswUuvb0Tt6dP0koPErU44TLE1c05Vm0MvzM/HHbfdim/cvQEFBfnDpBgRABGBn/xQ2PjRjk/wwquv43hVDQYoSNQzHpP3ba1WbZ7shZcaWkDBup94v//gN+0hPernJ7v34P/88p9Qe/IUMrMy8fB3v40H77sHyRQWTe7sOXAYv3n8CRyitorAur/8v//NX2P2DZVsk7RVLdcDq4ImdM+8+DIOHj1GBlGobYWu2kEw+rFFsQki9fP2Natw7x1fs7c+SPNH+uj0z/1WPkHPlXuOuN+ncMsqKTHmLOnWG6ESsY64/t1PHrHJpXg8LgzbFTFWZufv/vGXeOKZ53Gmvt7uwVac6s5mhfkpSdUjL7XMWDNe+w8dNEK8s3mLHXOuMfpCwi3T85snnsSvfvcYjp44YZMmNgVKnFrPri0RRXU10xIi4RrqG6xzesS4zPOwAMXAiMD6esCeBO4ff/1bS6wo9NJ7UdRO4dYbESJsUsglHomkR6Zt/+RTM9XnAp2iZ+Tu2reP/Xyc/T1s7zbXdYs4jGVmuO9lU1s01AXwIgXvv/3vv7Onb6mfOl94VM9u62J1UVRDjfWzoZH9fAW/ZD+PnagyyxQPbj+FQ8/Xf/QX/xPPv/pHu3M3MBS7QyfGl8REH3JysmztwUSQIIQqDU0t+NVv/xVbP95BbSXzJLUk2GRq2CKa8ell5fZ8MpmsA0eO4CBLb08fGx61MSXaEyNoHMONSSw6/uQLz1vCo6fHid9lOXIyszDPxs0ZyMzM5DjXi2PHj2P3vgPGDEm17ojdsn07EijBP/2Th1GQn2t4RTih1yspZZmee+U1tHFcUwt0PCcnB8uWLMaNs2chOzub9QbsIXxbtu9APYVJdbQ/JUXvbhsHhNxIEKWGH6LAPmOmXRor2kyZUoJHfvB9FBbkGjOFT+W1t9/CL3//GIYGncUcurEiMy0N8+fMw+IF81FYmMfhbNAEf+eePahjWzR0atZw07Ztpv0/+dHDKC8tlVHitUboebyqCv/lb/8HquvOIMEEzXngkx70f0PldLalADNpeZctWnDOIdcTCgWiWrT4u8efIvHeRh8Jr8anp6fZem7dRF9SXDxsckQLSe/+Q0c4tr2CHXR8ZOpckAldxM79Jc27CC5z//Ibb+Kp5/7A4UJZOo5nNJdrVizHd75xPyqnT7M8fawPpkXHyZwXXn2NPsWHRiBJuZ6P9m3W/9b99yE1RVJMR5OSrSdb/uaJp3CC54hBWgBxy/Jl+O63HrCb/zWt6oKGErVBDmcv+7l00WJMLZls4+hZ5j0zA9/71oMm7E+/8AL2ykklw8WDqWT4X/74EaxYtmTY3xDNJBT/6ec/R3tXj+3TfehLb7yR/fw6/Yd5jv8Q66i0WY7jW5s2442337WX76oNwvfw97/PYeVuZGWlm58j3HotyKO/+Fvs3nsgtnTceYLn1zfchTvW3sbt/JFhQUyKgXu9ePD97Gd//ahM14uvvY5mvf2Y9dOp0Y88/BDHuwfoGDgL+HWyU/T8l0R7reOcmTONSfLste5Nx1QkeXrvp56NVlV70kzviVoyhbjlXOjGgJ88/DCmlpaYZ+yc5zROXqeWLs2fPQcpdHaOV1cjEApiiMxXlFA2dYq9oEbVxcAXX38De0gIOVl6CP7ta1ZTUx7CDAqTM3c+uuOpdEKnV5Rhzg032MIKOd46LsLGe++JsUeLfrJnFw7Q69Yw56Nw6JGcet3myqVLbO2+NYT90is8/v5ffo2jR6ttnz85CetWr8K//+lfWFskjC4NBfrOpGLNmDadP7yooaC5Q0E/+7nwxnn2lA9pum7HfubFl/DWu5vM+mkuYOqUKYZbipnFfmifVhEJu3sd91pjwdtPB2jHzt1246E0RaHMXevXYcO6dTQReqaLc6vRWAS6iG7Qk+bdTM2SQzL2GooCZBp177puAdbhJRwqHiDT1SE3rDgbN8el7Czcc+fX6Il+DQkUFHX2FMf1nbv22sOIpRXH6L3Kgx0KBmyM1Hr0B+7dgJJJ0t6z26wGSBvsGBlonvLYOjFQGlnvn5HTFqZW6hwtqfrxDx/CyuVL7WZLgYRF5RAdth103nSLm8/jw1wK1Z/Rsy/Mzxu3LTpH4dWx6ipangMMMbvNSrKy9TfK+oabVk6riN7bshUhboc9EWRxWPwLKqUsTcJ4/TwPeBV3a3GixkaZjSk0d3fcfhtDGz2ndGKJ0T51pmRyEW6n957P8INttOKCxuOTJ086HeIBLVfasH49JtEsOStLz8bNPdzndCQ7O8PuAJ0pbSD09A+gmm1toVOokEUWRuEkKyMtORVrb7kF5VOn2jjn4o7H7+AeU/g3HsjrN4c1pggVU0vxQ3rzK5cttSVYw3jZLw0/H9LvsPkG7vYn+3DnbWtjFmn09UQH1VckIw//dxyaJFzy+PWUjkkcl++4dS1K9EIenUMaHzl2FK1USgm+pOqWm5Zhxc3Lh4XJLRcKxnRzmtgQ+ZR6d0hJcZFp8oWAkijTy6YynnbeBR4P3T1KYjDG5xAgKZaZq6Rp1Vh3ISCN11CxYN4cExJpt55h29LaigE6Pm0dneYAqbuaClUixXmo7oUT4Fyg3ojoZRyGvk8fYc2Km82ZjQddSuHi4WPHQVGDlydlUxOV2Bl7E4QYrmGoo6MLmz74CL994mlzWkOhiK26nV5ehoe/9x18be0aM/2yjZQ5VHOIVNhH1iI5MQlrV91iYeal9tPbS89ab25QgxJI5DJqShLjb8GFIFWd9PR0FE9y7sU2ELVYBqiZ/QN68H7UpHLKlGJjirZVzgXCq6LO6aXwieysQAsctFZOvoSFfQpXeK2CwgJahqyYj3BlmC48U0uK8e0H7sfqFSuM4ePhlta20frwoDFGkYgWXbp9EIgGct405fzme+/h8Wf/QA++2rQ3ieP/vNkzGQ18z/ISehOTYwmd86SYqqffGRy/S+lIurjHa8/5wGvPSDMuEYjAVrxcJCKNzQqpNDyIAURkRdtqtCRAjbPXTrHuxYDGXTmOEhJhUnsV3w7fikz8+pP10IMOrhTIrMvazZk1Cwvpecu5HZ8qjgVSW6yBrKTEkoq1jO2TFdV07an6M4xk3rAbOmvP1NlxCdKyJQvx8A++gxX0FfRcmhH6OwTVMnAnxcShg/xJlqU0ul4aeNU415TryQ1KuJipH7+H44LMt6TdsmvqNBlrS5FV7GFDEgCOY7HlVI4gXBjIa5Zm22IG4hbzHdwkrOXnpVsejqcD1H7HYl0R4LV0zSPHj1tiRkuwxSSH9PHAMJFhlpZbO7/IJI7PYrIJJIssqfL/zzOKeen1N6nt7Wy3l9Yg01bnPPTtB7F4/o1m1dS/0dob02b+S6mkM+ezkucDbzZNkZ4FJ8TimTJfgxw/zurbBCABaW/vtAkFaYfiSklvaorf1pvr5gFpt8yT8tXKnjlacf4L6BwldhQ3S7AoOhZRZKSlm7Qr5BLBBY2NTWhtbbtooZoIRA/hqWKo+fwrr9tjzju6umO+Tzx+OpFsk26DitgTLrTsqsvCP9VVDuQAI4CnX3gRb7zzrr2tQS/RUzh757rb8IMHv4m5DH3lG50XYpe93N55C/LzoeLGtPsOHcYphlimWedBrw72UcM0w1ZVU0uGO7lf5cn1oPksCpQSCDJJIo4cEjk8mgQRQx3NGR/ENzFa5+w/eMh2yILk5+Yy3MuFHqQrP0LPrBGappYWS8F2xhhzJRgv0BNG9HoTJYs2W667h/hjB2OgoUX3vOmWZV1VjP3o40/paHbh41178PhzL2DzR9vRx34r768I6b4778CD99yLaXTe7DYtWaxRGn71wKt4WPdupWkRI+3HaTJ847ub7N0hYrzMsgjoEtHdVt5cS6OO0RnZsnUbOmn+BEryT6M3L4dNFuSGymnIJZNkgsWQt9/fjKNV1ZbMiccbDyKqkhRn6htsgqauQQ8MhFmO8rJSSxgplp1eUTGcLVRbFDYpc+a+vsrF7W67RUJxPsFQ5CCLleSnr8J61dR4TeZs2bYDXT2uxjsWQX6H7lUv1kt3iFLh13ubPrD8+BPPPodPd++2fUkcShW9aBJHTFfEITMf37ZzwbmPXjj4fv7zRx/VlKMyX61tHTSPQTQ2NdmL9qRVmlBwnS9XENU4mS1p+Euv/xE79+61/LFMlPLLumFfaVONPXLeTtNp0dufdLeKPNGe3h6zBDnZzm2/wjss5eyZcGkW7pU33mJos5XXGjJLVDmtAnevX2dZOQ0jSpAoTq8+WYuhwYDNobe1d1jqVTNgNkayngtqt/wODRnyQRQmuWOojsVn5FJSk23qVTNgCmlldSS0mk2U8CkGd9LHTruVtu7u6TNTzvEL3bzGiZpqm0zRcKbhSNPF37z3HssnyLuXN9/d02PxvZxh+Snx2i4mSw4+oDBrmFHbszmk3UOB0ZBihLsEsEUUmRx3leyQNGuGSo6HxnYtEgyFgzGvOEpHKWST/1qcsP2TnXjtzbfxCaVYcaoaWz61FPfddScWzJ1rTBLBlchQh2o5nmtMDBGHiFvf1IhBxthu+lBjsTJtTc2tjF334dWNb5s57aEPIL6J+Hetux2rViw3QZLlUEpXueo6tkfnKQZWSCQh03nmVZNqsioaUprZHw0V737wgd0pS92yO1Ul1GOZnkqma8p49c0rTEha2lqN8XpZkaY2MzisKBWtyEJ9F47C/AIqz0laySbDrddrChR+lUwuxp0UWA0Dyh7qJUmf7tmDTR9uxe69+43GevOi3prswtVieoIarDFp9cqbbf584zvvW/JA8fsH27bjWE0VKkqnIi+HWskO6r6yVhL2FJnY3CJCOynKEpoqMUULK4YnOdgmX4LXOqpU4vO9fbbMWJ7tvv0H2XESmWOfZp50z5nmhTs6Ok2oNPukehIIaYUSErexZKQzhtUfcavt06eVWwZRK3zkV4Q47FTXnDQP+ePd++hT5DEMSiNTfOZgneE1G5rlZDH+ZWw9lyGZhiQReDSQLkl+avts+JPpZPF6O3fvscyl/IxnX3rFwrI19L713HsxR3e9PvStb2KAinPkxAnDKbboWyuCdlLQNByGqUjm7JEWWr+goULOs+YiUkuKdfGrCqbparA0UjlrNVHv/Hbmu52lPhrn1dFjVVUWepwhU0yTOKxJECo5tmoSRZP3Gm/FqHgzJW1U6lVhTRMFS+fK5Gklid4kWFN7CseIV/ir6am3dXZa0kVe7uSiImz42jrcc8d6jt9jc+oeI7ysQArH35b2VnTSFGuCQgLTTO1U22uoJdUUiJpTp8xUB4acDKHy4qtXrrC+y3dRv6Xp7d1dZrrnz52D+XNmWdulxdJyvUJclqOjq9MswhIOZ3rujNqiZhXFHGMdV8JG1kdcVygs7dbESjX7K4FXJBPUcVZQNm7h/Hnm/LogYTFN37aNAn3SaCbHVYst9DK+eBpfDAyvkRMxlVkrLSmxRsuUdff1mImSmZS3La12VoBEzJHSGrhVN92Eb5DhK29aZsuGhMd6HwM1TEXetphWVFhk0t/NcV3m3XGqnJf52mINXkdamZOVhSWLFuD+ezfgtjW3xDJ+yuSNMNzttCyVTK0ERGZS47XjzIngMcdNpp7XESgBoskZEU+P8ZRfIWinldm1/4A9FkWvKllOqzWTTq6ENp99K2R/xehmRgqKxWWKb1u1Cjm0FK6gq+1FbIdm47LoD+llulKgoB5gyOsruWQJJpp4DXtFFDwlZe64fS0q6AA7S5ycfmnIUYt30yoeOXbMaC/n7x62+3LSsKOWSwlMA0mwOpoezQAdP15liw60wEE0E4HUyTJ26obpldTychQyRBPhz9UIdtekdmiQjmJzszmOMnWn6bB10huWU6OQR2nGspIp9kKbGZXTzSO295zEcI+9htt2fctDlh+iaVzNwJ2kZstqyEdRu6UlmneuKC+3qGJaWZndeiWcOr+1vZPj/YfmbWvO/C4OG9JA+R0iv/AfrarBW+++j1OnTmLJ4kW4f8MGc0rjm6UmaWaukxajlr6R+lrFiEURUd8AnTbiy6JQi4azZ8wgHaeZArnJGRfUJuHate8Ann3xJVrIHqxbuwZf33CHOaGXxfTY9gjoYvyS8yNPe4ANDQQUvjk5dDXOEjDUGHns8Q09NwirCKwbBYfoNwzQeeuzKUZpojqhh+emMdyTNso3cDT7wjvnMr+PTmGv2h4YdKZGOVTIZGsOXOGkFjRIK+NBplgmV9k3Hc8mY5R3sKsbgaMYCoYtQuinEsjXkGnXEHMWsI/KoEk7Zdo1pGkeQqGl3gUrQVZqV22RwliUMUE35UfIeVRUo9lMCa9ofmlMB/4/Ns1fzrNNQswAAAAASUVORK5CYII=;" parent="1" vertex="1">
          <mxGeometry x="541.97" y="253" width="36.06" height="30" as="geometry" />
        </mxCell>
        <mxCell id="XR_6WtsRUjD9yIIPg-Dq-37" value="" style="endArrow=classic;html=1;rounded=0;entryX=0.319;entryY=1.001;entryDx=0;entryDy=0;exitX=1;exitY=0.5;exitDx=0;exitDy=0;entryPerimeter=0;" parent="1" target="XR_6WtsRUjD9yIIPg-Dq-2" edge="1">
          <mxGeometry width="50" height="50" relative="1" as="geometry">
            <mxPoint x="220" y="646.8699999999999" as="sourcePoint" />
            <mxPoint x="540" y="480" as="targetPoint" />
            <Array as="points">
              <mxPoint x="425" y="647" />
            </Array>
          </mxGeometry>
        </mxCell>
        <mxCell id="XR_6WtsRUjD9yIIPg-Dq-60" value="Pull" style="edgeStyle=orthogonalEdgeStyle;rounded=0;orthogonalLoop=1;jettySize=auto;html=1;entryX=0.001;entryY=0.719;entryDx=0;entryDy=0;entryPerimeter=0;exitX=1;exitY=0.5;exitDx=0;exitDy=0;" parent="1" source="SYkxdP-PGaikRAJM0KuG-2" target="XR_6WtsRUjD9yIIPg-Dq-2" edge="1">
          <mxGeometry relative="1" as="geometry">
            <mxPoint x="249" y="458.30769230769215" as="sourcePoint" />
          </mxGeometry>
        </mxCell>
        <mxCell id="XR_6WtsRUjD9yIIPg-Dq-51" value="Git webhook" style="edgeStyle=orthogonalEdgeStyle;rounded=0;orthogonalLoop=1;jettySize=auto;html=1;entryX=0.5;entryY=1;entryDx=0;entryDy=0;entryPerimeter=0;exitX=1;exitY=0.5;exitDx=0;exitDy=0;" parent="1" source="1CO7n0s6yhx_Fcr47NkD-7" target="XR_6WtsRUjD9yIIPg-Dq-50" edge="1">
          <mxGeometry x="-0.3115" relative="1" as="geometry">
            <mxPoint as="offset" />
            <mxPoint x="-472" y="479.25" as="sourcePoint" />
          </mxGeometry>
        </mxCell>
        <mxCell id="XR_6WtsRUjD9yIIPg-Dq-53" style="edgeStyle=orthogonalEdgeStyle;rounded=0;orthogonalLoop=1;jettySize=auto;html=1;exitX=0.267;exitY=0.004;exitDx=0;exitDy=0;exitPerimeter=0;" parent="1" source="XR_6WtsRUjD9yIIPg-Dq-50" target="SYkxdP-PGaikRAJM0KuG-2" edge="1">
          <mxGeometry relative="1" as="geometry">
            <Array as="points" />
            <mxPoint x="91.43100000000004" y="462.12900000000013" as="targetPoint" />
          </mxGeometry>
        </mxCell>
        <mxCell id="XR_6WtsRUjD9yIIPg-Dq-52" value="Git merge" style="edgeStyle=orthogonalEdgeStyle;rounded=0;orthogonalLoop=1;jettySize=auto;html=1;exitX=0.786;exitY=0.01;exitDx=0;exitDy=0;exitPerimeter=0;entryX=0.705;entryY=0.995;entryDx=0;entryDy=0;entryPerimeter=0;" parent="1" source="XR_6WtsRUjD9yIIPg-Dq-50" target="1CO7n0s6yhx_Fcr47NkD-7" edge="1">
          <mxGeometry relative="1" as="geometry">
            <mxPoint x="-520" y="520" as="targetPoint" />
            <Array as="points">
              <mxPoint x="40" y="505" />
              <mxPoint x="40" y="550" />
              <mxPoint x="-498" y="550" />
            </Array>
          </mxGeometry>
        </mxCell>
        <mxCell id="XR_6WtsRUjD9yIIPg-Dq-50" value="CI/CD pipeline" style="shape=cylinder3;whiteSpace=wrap;boundedLbl=1;backgroundOutline=1;size=15;rotation=90;html=1;horizontal=0;" parent="1" vertex="1">
          <mxGeometry x="-185" y="329.25" width="90" height="300" as="geometry" />
        </mxCell>
        <mxCell id="XR_6WtsRUjD9yIIPg-Dq-55" value="" style="shape=image;verticalLabelPosition=bottom;labelBackgroundColor=default;verticalAlign=top;aspect=fixed;imageAspect=0;image=data:image/png,iVBORw0KGgoAAAANSUhEUgAAAKwAAAA6CAYAAAAtDrKGAAAAAXNSR0IArs4c6QAAAARnQU1BAACxjwv8YQUAAAAJcEhZcwAADsMAAA7DAcdvqGQAAAklSURBVHhe7ZzPr1VXFcdPrQFMaQw1TXHQYCKFWCdtojP76ASSjqvRCTNIbCL/ARot/A80IZ3ArKVTmzDiPZ2YmLaTQrCYQE0qiLaJQII6eJ7Peef7WKy39j7nvnvfJUfXp9m59579a+21v2ftffZ55an1liZJJsLX+s8kmQQp2GRSpGCTSZGCTSZFCjaZFCnYZFKkYJNJkYJNJkUKNpkUKdhkUqRgk6Vz9a/3m7v3/93/mo0UbLIQTr1/rfng4zv9rzprN75q3v7wz6PLW/KPX5K5IWIiQHj+2V3N9/fvbVYO7mte/vbe7pqH6Lr22VfN+x/f7sr/6o3vNs/v3dXn1knBJlvQcj1WREAdhLvaRk8+ATG+9aMXq8KV0MeKNgWbbOGd3/2lWf3sy+47ous+WzGRvrf/mU6ANXHZCAq1KErZc21/fNbELVKwyRbYW67e+LK5e6/8YIQIjxx8blPAEVa4lH+9Lf/mqy/0uY+gHH1+evv+oGhTsEkVxNR9tuLl+7XbDzajr5B4IzEC9Vj6aQMxvvXai1uircR9pb1RaqJNwSYzg7jYp3rx1oQrQdYetCij7UFpC5GCTeYG0X7wyZ3NLQSCfPOVF5ojLz3X/baw9Eu0USRFrERjxIpoPU//uqX/niTb4jvf+kbzgwPfbJ7Z9fXm7oN269AK94+f/7P5+/3/dNctCBQxrrbR9uqdB22dp7v6gt8/bOtc+MMXzVPtf17QGWGThaKl/5I5IfhlYfnXkVYUaYnabA+IsjYvBZvsCAjyTP+gVdoiUObUe9eKe1p7Rivy1ez/EGfPnm327NnTpYsXL/ZXnwyIj8j641f3d6Jlj+tfxVKGEwPyJU4Led3LCPNgl4JNdgwEufLSvk3Rsk3woiXq/qTP54WFhfqvt/mXWrGLFGyyoyA6jrkQLfBCwp/jks8+9Up7Xa91BXm8cBAp2GQpSLTaHnhhsvzDud9vjbL2XDcFmywNK9p3WmHy0CXsftZvDSwp2GSpsKdl+UeYnCJYuE7ibwpKzCzYW7dudWlWtlOnxHZtgHnqWtbW1hY6pv8XiKQ/528Jnt3VifaxV7tt3pGD+za2De7hTAwKlok5efJkc/jw4e64hE99P3bsWJcfwWRyzEIZ1dMn7ZEXob6UVI5+bFs2vyQcjnas7bYubZGiutRTOZUVtEc7XCuNgTZVzvZbs1V1SKV2hcZFKvnfYv0gu8fUA1tX9blWGscYun3pKxv7UvazFiIsYuaPYEJ4cVDiwoUL67t3766mo0eP9qUfcebMmbCsT5S7efNmX2sD2rNl+L26uvrYNZ8oM9ROLTFOSzRu8G2eOHGiuy6w89ChQ4+ViRLj9mC/8umnBv2qrLXd+p3rts0oRf4XQz5nnKW6Y3n7tzfWf/buJ+vn1j7vr2xw5U//WP9pe/3TL+71Vx5RjLCKrEOsrKz03zaoRR4P5Wz0iuBOHiqDrdz1lgMHDvTfhmGcNmJEdYeimexUO7Rx+vTpzWT9xLjH+HYesIOICMePH2/Onz+/aYfGhx0kO3bAl/I55al7/fr15vLly11b4Me7HRRlr7Z7VvsARpQFe/66SS/cLUQRijubO5c7k3zuMu5EYe9wmyhLno0MNtlIVSqjVItg9o5XhKBv2c01PqOxcU0MRRcl2e0jGWONoJzt247btmFtibA+KkVYUikKMj7rR9vGGDtsP6WxjqUUZX/TXv/Fe1f7X48IBesngMQAa0R1SFbQgHN8GSv8kmC5LufjpEi41vHg+7ZE9dX+kGCxBRvUX0lAEfRhRSsbrf8WJdja+G1ZfGF9q2s1rP9Udzv87d6/OsGecuK89NHtcFsw+pSA0F9bEqM8lg+/ZYiuDbWtZUlLmV9iS/gy2jr47YMYWt7o/+HDh5vLq5ZHtcdvXStBG9QXY7dPs0I/NR9hv/ypcfMpe4bGYfOH/FaDBzAdc9mXCRx/+b/UglCwDESDsbBnITFB3shIcCWHRdeHBOsZ24b2Y3qyZ+/o96xiyPHs4TxW/EOTLKyY5pnsGmNssT7Ed94WfpeSxf+eFf6XcLAnBhKypxhhSwNmYEy4jmlETXCeSGw1optnCJwogc5iW4nSTWwna5Zxyb+RABbBGJ9Ze7HB+om51VFWlOzcz2u/hGkfvEoUBcuSYZfhCIy2hntKdXdigiy0XxMqYlnGTTOWnfbHdmHMY9M8lLYFEdU9LBPLcYbd73gQLA6P8meZiHkHbWGZ9mJFoIxFe9AxS+ayWOTYZ8HPj7UDH+GvMWkRvnx5/0aU9S8SPKMeuhAshrGHi5yLOKKIVYpw0fVZI16NqH1v+6KimrXb7meHsGWxaydsG8L2wzisDaW52yn49w1gaFswSrCCQdknXMHAS4L1zud3NLE7LVhvx6ImhEmW7bXtkYW+1b+NThIMtnp7LWNsHyrj58ELdsiGRcPr2DEUBcvGmocWBm4Nj8TGQO3ECeqpDf1mb+nxzpqXqC3s1jgW9SAG9CXR0T5+q0G/+ESweglrd8k+Px8l7Hgj7DzKBjsW+onmeqdgHwvsY6v057GPYQ+xh5I9YJ6lnpI/oI5eHESH8Vzz5agLURtjkvqJXhzUDvMZt30ZwJi8zZQZOtj3+b6NaMy2jH8ZwGf08sD6x/sfO1WXRJtci6DvUt524OUBLxF4mVAijLCzRB+7ReAOjbYMJWYtP5baQ6KI8sdErgiNQysM7ejozya/ZfArkrdbbRCR+dTqNMZnipTUVaINzqOj6Cron7qyA5tlA8mOa5ErFYyJsqFgMdY6LgJn8yDjnc5geUDzjvCQTzlffxFgO5NaGoP69vnbFSyoTztu2lOKkAAt0cOhtgHyeWlc6od87JAPqK82hNqSsC3U9XOrNrTVsG0tk+q/S4CB9lOOYiAlp1k0MDtA6lpHeNSXJSpv2xTY5O2So4E8a7vvS/XHtl2CurZffmvcXFOkpT0bmS2qT13Kqb5QlFQeqDxYIVqRqWwk1AiNwdoiP4xtYyycEBBdeQBTtPXkP6SxZJh0llYJCwERzZJxzHSslcwP0cluG4hcy3wanzop2CcAS2m0vCfD5JbgCcGWgCft3BLMRgo2mRS5JUgmRQo2mRQp2GRSpGCTSZGCTSZFCjaZEE3zX4GAHwsjx9u8AAAAAElFTkSuQmCC;" parent="1" vertex="1">
          <mxGeometry x="-150" y="391.25" width="112" height="37.77" as="geometry" />
        </mxCell>
        <mxCell id="1CO7n0s6yhx_Fcr47NkD-8" style="edgeStyle=orthogonalEdgeStyle;rounded=0;orthogonalLoop=1;jettySize=auto;html=1;entryX=0;entryY=0.75;entryDx=0;entryDy=0;" parent="1" source="1CO7n0s6yhx_Fcr47NkD-7" edge="1">
          <mxGeometry relative="1" as="geometry">
            <Array as="points">
              <mxPoint x="-540" y="661" />
            </Array>
            <mxPoint x="100.00000000000023" y="661.2749999999999" as="targetPoint" />
          </mxGeometry>
        </mxCell>
        <mxCell id="1CO7n0s6yhx_Fcr47NkD-7" value="" style="shape=image;verticalLabelPosition=bottom;labelBackgroundColor=default;verticalAlign=top;aspect=fixed;imageAspect=0;image=data:image/png,iVBORw0KGgoAAAANSUhEUgAAARwAAACxCAMAAAAh3/JWAAAAkFBMVEX///8AeNTS0tIAdtMAbNEActIAcNIAc9MAddQAbtH1+/7P5/gAb9Klyu35/f5cnt94seZvq+MAadDp8vsVetTW6Pix0fDu9vzA2/Pc7flpqOJJl93m9PuaxexIktsuhdi62vOJu+kgf9YyitlhouGCtueSv+oqgteXw+tWm9/G4PVBj9sAZc+xsbGEuegAX83TUnCQAAANBElEQVR4nO2daXuqvBaG4c1AwiQioxMIOPd0//9/dxIGp62puBWsV55PrY2Q3F1ZKyFhRfnff1K3pPynSN2UhCOQhCOQhCOQhCOQhCOQhCOQhCNQz3B2Rr/3F6tnOAHe2P3WQKS+4VA4DPutgkB9w0EqzHb91uG2+oejauBdu9YbwFEBHUz7rcYNvQMcVcVJ0G89rus94KgaXvVbkat6Eziq6s79fqtyRW8DR0VZ2m9d/tb7wFEJHur91uZSbwSHRa3Je80meoaTYvVU2LP6rc+5eoUTRhNyBkcFcDzqs0bn6hFOPNsTpF4ImPn7RK2+4IRpobnkEk0ZtdDbDHl6gWP7q1xD4BoaHrXM4k26Vg9w9GBM6FWjaUSTqPtqXVHXcGz/OzFvGs3BePDiHYY83cKxgwJgodE0MrdvMFHvEI5tOJmLfzKaRtjrf6LeGZzQGqj3GU3Ttciy767VERxjmcAfPc2FALxjoq7HL/TdXcAZWRPSymgaIRDcfoCqh376XeQqfp19vR6O4SS0rdE0Iti52nTdCJaci4k1Qn4tHDZFgOIxjVgA5mdrE/bUT1cMC3QpIiVx8Evh2MZwjbUHjaYROkzUQz9YFLmHMCLkeNHfCYcZjfkvRtO0nf4ZxPHOcuYZghCTS9a/EE4YDby/G9ISi4Yw8fbFd5ACgpF2/XK/D46V47tHe1cbjJhTUffjTeTzxWLDvX2xXwfHcrVHuRANY83Li4XlH9fQDfg5cPzsEVfDzMWkWM2LVRBPz4c3HwRHz/96vvcTFw1TCpLtMthdnW5+DhzboS2wAA2ZWpYzr+uHN1v5OXBm+GZDzqVhCFE2H1pR/EP7PgbO7uepAg/SiAfpReDf1bJPgTMVOxwAEIUQMK/LgvTdu3I+BI69veVwAA/S2EuKZWC0fcj3IXBW5lVzYVwQH7yk8eiRpnwGnIhetIIHaaitJ461+8nrCvQRcPw1Oak0C9IkK73u/d7luj4Czr6J4hqE1MvZ1Ch+yj7aT4DjuHWFyZxNAZ5Y5w+AExxGOPjJG0l+PxwDHByOhHMhuziO/iScC9kDTcK5JQlHIAlHIAlHIAlHIAlHIAlHIAlHIAlHIAlHIAlHIAlHIAlHIAlHIAlHIAlHIAlHIAlHIAlHIAlHIAlHIAlHIAlHIAlHIAlHIAlHIAlHIAlHIAlHIAlHIAlHIAlHIHvrouZdOgnnUlYxWXsaRgyRhPO39JEfzZxtDr4knFuyp0bgWEY80p+Vj/WD4Ch89+QXyJLJcNX+JZBr+iw4jA7lr4O4LiTryXCW+v+0Z/vD4ChhUu28BeXr4ZqazIvvYPdgT/s0OIqfnb0+zV/9hVjNt86MdbWWiD4OjrIDf71AXZqRiYG3HzhWdP+7V58HR7FuNolomJrIS7bOJjXueK/mA+EoK3izSZUdIQxLj+1sIl9kRp8IRx/f84Y5z0SAiJeXgf86ok+Eo+j5tVc+b7SRv2ZuAuaxrdT/3HQNJ4rzdhk/mMdGPPCv58Uy2MVNjoLPhKPszAdyfvCghilFXj5wZtxjx58JRwkezzDEzQhTyBhdZk3+FDjKQhyy7mBENFHf/NVwlGGLpCgPCIPXncXyejj6/N60KA+xeWV24A4yTMZJ22RD94vu4xfWvIv0mz7554x41wVo8dLDsTpJ3Gq9pmMB98V5b7vJajv715B1TQTMXlztbuDYw+fbDlJfnqi9o3zI+uTZAZ3mrz96patM2qP9w3kVrwngQQfHH3SWZtw4m2WR+5OxX5VbdJGCvLsE9Sk44tAGu/HafJgPoa92xZU6zN6/Oc6tUaHYI2ugmg9lSyZqR2cZdXnuwzH1JBqUH8TWlrRPQY7XXR382SUcfdDQYZZTyfY3c7Vd4mQ8f+WM4UydnhhyyLB4gKPwZPPL5P487cDt8JSebo9TiT3yFxyu3TJHdx1+ANCyw+p2fBBPUHngSzjMqNJxRn8MX12FqVpdn1JklRnD/4bDFAbDH/h0fZpl5+dbOfgWHOaeR8Egwzef/qAOZgxn6hxOGbJuwOGKrbl2/VgaOO/6wLTuT0YL90gEh9lPvJmw4eGlK4bXT1Z5pXo4Ns73iBCOUob3/Dy8A7js/lDzPg4cjAj+AQ7XbpGjAx+N9HEUWC+nMVpfg3uKhdFwjRApw1QvJxD2c47ncHJnQT78gRju+zn4tB84YYtpdRgUr11juK2eD1a+S9174lq/AU5vknAEknAEknAEknAEknAEknAEknAEknAEknAEknAEknAEknAEknAE+v1w9LfbwW7NJ9tnruev5pNKg2Xa4slWmDqT/X7itPlOCz0Gx04ocldPrMbYRQiXoub+7seE6R5TzL5I8T59YmUOegxOAFVAsifa89BUvYzJIyYhd26k0AcuIRis1wAT7SX74B6Co2+R6gH4xNWSoYmLUcy0W66xCu9pqT6GAGfffhz732sM4PD5T1MfghNpaDuj2qRuwijaNYpG/NeoXiywoyiyywKRwVdaqvUV3UiD6MJhMTjD+sewYHQWzS+Hsjq7Vn0/e8d/XLgqHdfJIKZjqlbd3I948TgKouOCxSgKgt0jHvIhOAMELd0jqF5Msph5lwLAnSnKzMXjus4EqbyHBJRu7VlO+YKMbu0BPxx3cLZ37QQOMwmTeGXHCme5yspmA5+vIuPGVHcI78PYA+i4+mVvWTHefgfS1cjxNETUorqDvsg0zP46br9Z7hE4MSbrUBlis163nP2BXBQA9auEgxo4gFRwMCosF7tznqCJYkgRpVg7rewpHMa0hKyEA4ihiSCl2Y7vt0RF1XMWmFnJygTZiTX4mWpuFL7vEC0nXy6FkFCQlpeGiCJ2T373lnoEzpLiRbnkDaotIaO00oQgvhFiBv+GA9YqzouNYg9dkm2MOC0ISk7adgZHGSI8sDlHlGwMPx0gnITKVCNq1cESDcfKXqNnm7wcTCZ2tSmT5rMo/c6YKTOL8yFZp7EfFKD9oukDcKbr8q52gdHi9HMLII939GtwVABXI5t7K+KVFmMPTbo5fvccjoW0faikkKil49CHGLMetUXVvq4dRhNFz4h7FhACl6wrOHhSMvRVQsc8sCKnvMh9B1yf6QE4K1rtA4hc4p0MvgKqqWW7r8LB3+UnBTbrjWthYp7Y+TmclJB8pAxMVDc/1EzWo1INcdvgPSdQpqzpZ05kB4mn8z8CUnvpQOMdL3VBFj0Y5tvD0XONVBaaa/C4Rc/wSO0wr3erpkeozMZLzfH6GHzP4QRIy8NRgrKoKhoneG8roz3yjHJLajJSQna7s37C7Cwr4Rzc9CgnrKKhx7rjfGU8EujbwwmwNo+nTOEKoX1jOqMcNT7gGpw67E89ohKtEvvb0e7O4SwQ2tpxBk7KJuz7C4pZuE7LG9k5gSfdkv+R7Mtudejr9gBx00s9NvqmaPLAPo3WcOyJBrzMY8pY7RvD1/eIOvU/5wgnRodota3gZET1GqnZDTi84d8Ki9UnZXOdXw7lNuuZiMeBIdLmJ516tCeY/3N4tGousy3hKNPVXsUEofbvBLSGYyAANFSJqKjaS2I7EB+MiIXy2rJTCM7h2IlGgrpbMR2vegbHgoAayjQhXnooWvbKCTJ9W0V7fq0IqfjEdFYYlMMuh2rb+iN2AS0tfwp3DjPCrHXPag2nwCCZ19qzUV8ZzR2I8sO/kbWtctRslnEBRxnjZoB4rlM4FgHmuCxbxZmjAkQXqVtnISwogAdjsCig5YWZQ6b1ntNVNS6skMTMR7Xei9oWjp+xWKyHtQasM/FKm2R9NIMdm/PwcX3IZpOXcCLmPjZldf3B6YakEo7N5TukHgKlkPXaquy2KjtK8Lyg9dgvXiNAhrHNd1gOCaiHTSyUoz2nYLNbcV7RuPycdVXaegbRFs4S4+JonikGXqxEBGjjwCoV8Xowi/cG28xNsgufw77vArq1AmusuuuTLHlDEyRbpkmuMYNIqv8xn1nysgVwk8oueaA+mJ6fUTYfn4+LORsMN8gYnAyS8WzDrBaxuumTL28cROlQQ+tXd6tQJTA9/srCOv1WxhSoGi1VbvaLPMxzdMAk9RCo5la4gWOzWmLMpw9gdlLZIeXJYUphtaip6axj8Sc8lHr1kMHQAECHsBOPNaRx/8dmUuPaLHi0KnhNEMF80hE6/HEPv6d3Uu871RLO5o+bnI6oVl+upxdftFG1E3I3xxCCQRxC1yzhfH3Nm2/Z6QRQSC/mgeP6EibInaNrsIM9YHO2ddNyRZ+7bn4So6LCY7ModrEDMIeFe3uVmRCqQ78uk7EyYPvAS1ot4Yzi+OyJpB3HsR3GRzXPEIyyHP8rb1Mcnz6+CmMjvjDx6cX3j2X9s7Lhxf3ZpXfGaYJGp5z32fHph3ps+A89R/39D9jP5ZQDxSdJwhFIwhHo0+AM/3x9P+1inwbHCILn7Xb/NDhPlYQjkIQjkIQjkIQjkIRzW/8HVKfxej+Db9MAAAAASUVORK5CYII=;" parent="1" vertex="1">
          <mxGeometry x="-571" y="445.02" width="104" height="64.82" as="geometry" />
        </mxCell>
        <mxCell id="SrK7LWmCzr4mopwJrwso-1" value="" style="shape=image;verticalLabelPosition=bottom;labelBackgroundColor=default;verticalAlign=top;aspect=fixed;imageAspect=0;image=data:image/png,iVBORw0KGgoAAAANSUhEUgAAALoAAAC6CAMAAAAu0KfDAAAA21BMVEX///8AeNcAeNkBeNUAd9rP5vMAWcrw9/sfgdIAbtbG4fAmaMoAaM+vy+kBeNP29vbm9PypqakAb9Ozs7NOfdgAZ9LAwMCPj4/X19fP0NDh4eFakM/4/P4AZdOgoKCUu+qkzeff6vjP3vQAZ8VvpdoAeuMAW8fw/v2gze3s7OyHh4dIittyo+TG1/KfvdpLgMklbr2xzOBmlcOKtNcmcMqJrNbL2+dYj9Vtm9Q2d8talMq62O2VvuU+f88APrsAWdN6sNo2hswAceUAXrRGldSHruWrwelqk99ycnLpjFSYAAAMQUlEQVR4nO2dC3uazBLHYVkl2ywrboq5CBpQPLFeEhtTtOJJPNX2/f6f6MwsamJirvUS3od/+lRrCPntMDO7wAzVtEyZMmXKlClTpkyZMmVKh9x9A3xYZtffN8JHZV9e9fbN8EGZkXMVm/um+JDMMmW176l0GrMcUp1/Pd83xwcEVheEhrXr9DmNWZbCMA5oY/ojbWkS0HUlOeylzPBodQA3CGX9G3vfNO8SohOiGzoNmbz8sW+c98iOpEF0YqDA8HGKHF6hEwL4gE7C/M+0OLxtDXRCEnRi6KGhe5ejFBjezMXRISeK3dCJDn/gyxl2P3u0+tZgKBnRH8oAfCL54DOvC8zRzUGNU/BvQ3+skHIx+qQe7/rxT+HAJJo4yapgLEKw2qdM8XbvZlyTEtIheDjSP7Y7ZhpaK4/2DfpY9nW5zyS6NGDDlzAemx1FDSKH8b5ZVzSKrmoyVAklESaXx9xJujF0PvgsDu/63auGQ3HqMdaaejXVEF3kh29YF5jbngVc37q5yjOdUAhC42lwPkEnlEC0vnTq55qmH1jxILdVcDNXjfoO03VYmQtAf+okS2d5EKwhEZLX16V417T9oFtvR2Pp/Heb6LlefSwZTQLTIOvc+57XSOZViF89hNUBlVFv1SNMf2T9rk9bwz5jTBJyuz30H3eXVNIkoyRBSO+j9KmHz5cEmHvUOA057N5jj+Kb8uSqL6WklBI8hHp+O+iufT7hbL4sfM29IQ4MMU/1uHyn6PFwAvI/75ftglvfTWH+9ThSoxXUDmGcW0G3f9xccUZD+ir00ubK7hDIaHUCtq3J/jBqD87vDmqOIwlaeuWQGVtBd3vlmseoUAnlDcLxUargDTzb47X+Qfkm7n2BFYHZdyjGt9DJ6sHbDnr3F8cjC16gPw5L5c/3CwBDzavoVjC36pI5jPfHUb078u15ajQPIMoFHr9Hq7WtoOdqTB33dQlljv7wA/QCSCeHnOmTwSwe2e7DvGIeSAhJlX5W2beB7l9KihM++C19hL4cDBpejQFWW+jX/WHre2wF9tPpEdETP3pkhC2gm3WuqyzwaFlr6HNfBmCCjk0hGNGtW+36NTjIGuwEnWEcPA33LaB3+1RPfHk1qnS1DIC8hwsCsDUmOwjGrpWzX1qLJOhPwLeBPurLNQkRHQSQwYnghR7m843a5M4K/GdMvRd0/9JRq0OiL5OwusyighanQc4Px9P620/idodezhNjnvOWEYnDwGAkYhjV787fd2l0V+hutxGCT+PqyUC/RnyElnI8+VmPRz9ed5A9obu9XyHg6jQUAmduIhlz5FU0uIufTyGfAz13yQAdyQ/00PEc3p8Mqhc9yCAfP53ZDbo54BibhgglB+p6/OWDll7Z6S7Q3Tu1UAJ0Nu2O/h460U7Qe32aXKWg/Q1eR9kFuj9kAud53QhrXzazS9Qu0K1GsqCGXR6mDZ0LtUvATxm6a/HFxJ82dM1yFucQJH3oJENf0W7CVE9pmP4b0GGhnlr09Pp6itFJmtHTG6bpRU+11VPr6xn6QrudTVPr66kO0xSjp9fXM/S5sgzzotKdYRb32dKKbpD0+bqzuO+VPnSPiMTX04fO1T18vMuYuovUXM5v/NO0WX00MQ45xzqv0EkZupkLrO7squZ5Dk8ZupJr+l+s71fnm9vjDssblM6nd73AX1YS/Y12jW7W8w3OD6K7btca+X9zx3fn6FjPY0jGajUph1EZy6K++B+7ab1zdM0sO1j8ElJCmWRc9ofjyfTO6uXe60W7R9f8S6wWJNjXIOCVYNcUP5RStKb1uDvKvfUYALqRFGbuDF37AexG0tgw7+HB35+UmEhxGbXrcBCUG72Kvqa9YKvoWm8Y4v5VyVlSh6SKWpPKVzUEMRxH6hjACP7zLLqjG7tGd2OOLQ3LSjBy/0r0eT0VjKBvSGMclb/fXPRya/gTq+/WYUB3t+SlUnuixmUIrIoNmeMc9q/G058XX1ZGYB6sK4PbOro25euaj+7Rk6pHVWylyvIpDKDR8KSYXFtB4JsQB4BOjbUF+9tFN8s1oop2n2NPqvB0rBdTnRxCBYXkDnekOGjXr60LISmWIj/94e2iQ5qRuni2U0C1EdB5Ax62Feiqzjvp6EhyEcNwEZAd1418q+hab8zE2ii7t/sCed5ZoMaUlEaqzg41pCcZhhiCGNtF1yy2bj55DLIm+c0PzHM/AV4obrfcNdZ1wtfZPyBKavktN+u5A4ca+n2vibLZG/sg1mleSG4YznDrD9ywJ8xIftnDX/83Bld7O7zcQZNhbsySwvXl734p278mQ5XhE6e8kw74UZ+tWP2lzqpXDW5ANiWSf99RU2qvL1Wv1/xYG9iE9EF4LIQXsh8/t1zbuCwO84qxNDi26nwQHWcoPu7sChzSTJ2rdbuaLbGzUV/M7Qvzv+b8yaU1Ne16w2B35OqED9tzdIoPatA5T6rzlw2Frx8DFdm4C3pb3nHTu38pk1U6evp02meS0sXS8a0Zh2DzMr/ZLbiWrMRCZV7Cz7VcXB5LScm84XFxJvisr8z/iIfNkLsTphnVwanzC/in+SMejAXDY0FVG+YLzqL4YXQGb/X28WgKN86H6ryIKHTs68zFA1GTePZNyItWJ6r9nXjRdteKz+smT9WSb46O9GbQnR42uFpd4reeLG7VPR5YJQoaysZkb33u7sxR3aTg6w8/9bvlPgeXEctgJQs3uW/ZEyHr7/NxT3ZZ4gMaVtE1pL/G3nGpKvfnZ3mLCzjJ5QNDd666e30CS+6Sgf2eoGsYtb+jPt5ZUO2ZYh62RKd42UY3qDfcS4A+0KgfCv3e11dk5uJJraYyJg3xkh9YW4Qw84ZCeK39P3wFTproM+ggN3c9kYe10JgvcvAiDV7u4z8/w9NLrln4PDrIHd2Uh5JRYSTPqcD5tnbzKR6hYd5I5/zlTeygWh4zLlV3vjBqV9anIAewQeP8tW1coB8Ij2FXLb/8PA99tH+95fEvMFvFk0ZDOpPP9Cyz0VuXUK5/1/g0T4rJlClTpkyZMmXKlClTpkwpUvP0PVubVgy68F86BbWDOF73PLONq/Tt7B1b21/xiZ9SRNZzaG4nEjp5YYONqVk8OnrH5vZX2YrarTyn1fVobqwzz3HyTLc2A/i8SqXmcRPfFFCaqxUSgofbFArLt/ZXVjVNu+MwPbmnmFQPumbyt+sGY0de+L4lOW6Any8rJP+m4naNCsUTrViCN83K8fHxt39KWhEPQuEIIqBUhA8LWqFUqRQXTmV/5VV8tfK8Di+dlsfavubnPfjUbufH7ox76g6vxW6rWnBLLzpjr4WlDZ029w42eSTOik3tpAJWdZvNs2apWEgGotBPK6Wj04JbPCoUTpMjc4/u606kuRbjs8gZ+mbktTQtGN9WzT/5SBnXjryJFnhiqjPqOIFmSQ8c7W6D6KUjNPjcpmf45gG6CuDTCn5rERALdDtyIjN3kLdcf3Y70357Q1/7TW5Nv+XN1IZm2xGuL2XLCqrUm5kzznKav8H7Ys0jpCuVkn9V8PWh1dHHj4pnJydnR8dP0V1LMqvTmbGWG/Qdy515B9oDdO/A9bn8DQf0j/PHrnI562zysvtJpQSqVNQxLh0XVtGL6EhHlSKo8sjqvnTaWlXqzJHSEy74ycyMbi1EXzhMfoAOg8Hc9v6YfuR5MtpgoUPp27djDM8TeH/2j0okj9C14uk8+TxEBwuzCy1mslq9A5laNR+NhtJHP8mrWKyyhgXoxEKrAzrGqXRaG7N78/gkGUERaI8Tt1Fe3TxeopeOH/4E5PWZ7/tVhwNNhzpoRrTySIqpM4N3HYOxOAh+A6avBUxGvh9LcCIshLc8sbGWlkXiOIPXo4qyrnZyfFYolL4t0ZvHJfj4dGl1aYxbwzyPfPRn7lWrsyjA/0yJg+PjFrHB856XdwSMKmA6FUPp6L5Zb8+qLa+9sWvYlXl8FiqnzYryafAOcO6j0+ISHfJOsXhUnE8n9hDvc4lWVR15e/aVUalu18WMJrft3E65RYxWO4CfCLiI2/CNQDOrQsrhbHM39k7m2Vo7azZPlDDhnJ024QOw9zxnFk5Omov51LUuzs+tzqIC3/VjK1CWtC8uFpnP9M/PA7VBwIjldgJbbTmyghT8PxwLBZy+dPvvM8t3Uose5J20opudjU6gmTJlypQpU6ZMmTL9O/R/F2wVXUz1iXEAAAAASUVORK5CYII=;" parent="1" vertex="1">
          <mxGeometry x="-306" y="102" width="98" height="98" as="geometry" />
        </mxCell>
        <mxCell id="SYkxdP-PGaikRAJM0KuG-1" value="" style="shape=image;verticalLabelPosition=bottom;labelBackgroundColor=default;verticalAlign=top;aspect=fixed;imageAspect=0;image=data:image/jpeg,/9j/4AAQSkZJRgABAQAAAQABAAD/2wCEAAkGBxATEhMSEBMTFRUXFRUYGBUXFhcYGBYXFRUXGRwXGBoZHSkhGBslHRcWJTIhJSkrLy4uGh8zODMtNygtLisBCgoKDg0OGxAQGzImICYvLi4tLTItLS0vLS4tLy0tLi8tLTItLy0uLy0vLTUtLS0tLS0wLS0tLy0tLS0tMi0tLf/AABEIAKoBKAMBIgACEQEDEQH/xAAcAAEAAgMBAQEAAAAAAAAAAAAABQYDBAcCAQj/xABOEAACAQICBQcECwwKAwAAAAABAgADEQQSBQYhMUEHEyJRYXGBUnORshQWMjQ1QpKhscHRFyMkU2JygpOzwtLxM0NEVHSDw9Pi8BUl4f/EABoBAQADAQEBAAAAAAAAAAAAAAACAwQFAQb/xAA2EQABBAAEAwUGBQQDAAAAAAABAAIDEQQSITETQWEiUXGR8BQzobHB0QUVUoHxQqKy4SMycv/aAAwDAQACEQMRAD8A7jERCJERCJERCJERCJEgcZrZg6bFTUzEb8qlgD3jZMHt2wXlP8hpeMNMRYYfJVmVg5hWWJWvbtgvKf5DR7dsF5T/ACGnvss/6D5FOMz9QVliVr27YLyn+Q0k9E6YoYgE0Wvl3gggi+7YeEg+CVgtzSB4L0SNJoFSUREqU0iIhEiIhEiIhEiIhEiIhEiIhEiIhEiIhEiIhEiIhEiIhEiIhEiIhEiIhElR1605zVPmKZ++VB0iN6p9p3enslg0vpJMPSaq+4DYOLMdyjvnHcdjHq1Gq1DdmNz9g7ALDwnR/DsNxH8R2w+J/wBc1mxMuUZRuVivF54Jm7o3RdSt0r5U8o7b9w4zvOcGiyueNdAtS8+3k42ra22VGv2gW9Eh8dg3otZ9x3MNx/71SDZWONAr1zS3dY7y3cmx+/1PNH11lOvLfyaH8IqeaPrpK8Z7h/gpwe8C6TERPl11UiIhEiIhEiIhEiIhEiIhEiIhEiIhEiIhEiIhEiIhEiIhEmtjcYlKm1SqQqKLsTwE2ZWOUg/+ur99L9vTlkTM8jWHmQPMqL3ZWl3cCtQ8pGB8mv8AIH8U+fdJwPk1/kL/ABTkV4vO7+Wwdx81g9qkXXfuk4Hya/yF/inz7pWA8mv8hf4pyImZcHTucx3D5zH5ZB3HzT2qRXDWvWL2W65Ay0lHRVthLEbWYA7+H85BXmO8Xm6ONsbQxuwWZzy42V6VczKvWQPSbS+U0CgKosALAdglBzEEEbwQR4S8YLFLVQOvHeOo8QZnxYOith5rZmhpyiHovf4oLDsK7fovN2RmsWMCUit+k4sB2cT6PpmWMEvFd6udVaqqqZceTP3xU80fXSUtZcuTH3zV80fXSbcb7h/gqMP7xq6ZERPlV1kiIhEiIhEiIhEiIhEiIhEiIhEiIhEiIhEiIhEiIhEiIhElX5S/g3Ef5X7enLRKvykKTo7EWBP9EdgvsFWmSfAAnwl+F9+z/wBD5hVze7d4H5Lit4vMd58Zp9UuSsigsQB/KSaAAADhNfCUsoud53/ZM95ICl4Svd4pgsbL/KY0Uscq/wApK4eiEFh4nrnjjS8CjagINm3zJhcXUpG9NiL7xvB7wZ6x+IUnKNtuP1Ca957QI1TZSraxYgi3QHaFN/nNpGVKjMSzksTxM83i88bG1uwXpcTuvd5cuS9Tz9U8BSse8utvoPokBoHV/EYtvva2QHpVG9yOweUewfNOqav6DpYSnkp3JJuzHex+oDgJz/xHEsZGY77R5d3j9t1pwsTi4P5KXiInzq6SREQiREQiREQiREQiREQiREQiREQiREQiREQiREQiREQiTyygix2g8J6iEXHtf9TThycRhlvRJ6Sj+qJ/c+julIosAwLbp+lKiAgggEEWIO0EHgZSKHJxhlxZrE3oCzLRPB77ieNMbwPA7Bt7WF/EgGVLuNj39PH5/PDLhTds/hc2vPiKWOVf5ds6JygasIR7JolUckB13B7/ABl/K6+vv30/D0AgsPE9c6kGJbNGHt/grJJEWOyle8PRCCw8T1zTxuM+KnifqE847G36CeJ+oTUUS1reZUCV9UT1efLzDXxCrv39UsXi2aaMxCqCSTYAC5J6gBvl91b1CJtUxmwbxRB2/pkbu4enhIPkkrF8dUvuFB7Dq++U9vftM7DOL+I42SN3DZppvz/0t2Gga4Z3arFRoqihUUKoFgoFgB2ATLEThLekREIkREIkREIkREIkREIkREIkREIkREIkREIkREIkREIkREIk1sfihSQuQSBbYO0gfXNmRmsXvd/0PXWTjaHPAPMheONAlY8BptarhAjAm+0kcBeS8pmrvvhO5vVMuctxMbWPpvcoROLhZVR1vwFUnnQSyAWt5Hb3Hrle0lqniXw5rUtjb+bt0mTiR1N2ce+dPkbpzSa4ajUrsrMEW+VRcn7B1k7ANsuhxsrQ1jBqPj0pVvgYSS7167lwcC0+lpg0lp161apWdVBds2VRYL2dvedpNzI+tWZt+7qn1IOmu65VLar47gnp+yavaZ5E+3kSvdlfeR0/htT/AA7/ALSlOyTjPI4fw6p/h3/aUp2afOfivv8A9gunhfd+aRETmrSkREIkREIkREIkREIkREIkREIkREIkREIkREIkREIkREIkREIkjNY/e7/oeusk5qaTwvO02p3y3tttfcwO7wk4yGvBPIhRcLaQqbozF81UDkXtfZu3i0m/bQv4o/KH2Tx7Vj+NHyP+Ue1Y/jR8j/lN73YZ5tx/y+yztEjRQ+i3NHacFVwgQi4Jve+7wkuwB2GQ2jNBmlUD85msCLZbb+28m5im4eb/AI9lfHmrtLjnKJqKaObFYRb0t70x/V/lL+R6vdu57efqMi+wznGmeSqlUqtUoVxQRtvN83nCnjlOcWXs4d2wdfBfiYy5JjtsddfGufXnz71jnwpu2eS5JeLzpv3H2/vo/UH/AHY+4+399H6g/wC7Nv5jhv1/A/ZUezS93xH3UdyNH8Oqf4d/2lKdolO1K1HTAM9Q1TVqMuXNlyBVuCQBc7SQNt+EuM4ePmZLMXM20XQw7CxlOSIiYlckREIkREIkREIkREIkREIkREIkREIkREIkREIkREIkREIkREIkREIkRNA6VwwbIa1IPfLlNRM2a9str3v2T0AnYLwkDdb8RE8XqREQiREQiREQiREQiREQiRNTFY6jTtztREzXtndVva17XO21x6ZhGm8Id2JofrU+2SDHHUArzMBzUjEx0qgYAqQQdxBuD4yK0nrHhcPUWlXqZWYA2sxsCbAsQLKNnGGMc800WV457Wi3GgpmIiRUkiIhEiIhEiQOK1pw9PEjCtn5wsiiy9G75bbb/lCbGmdPYbC5fZD5S17AKzGw3myg2G2W8GSwMp11HVV8aOicwoaHopaJioVVdVdCCrAEEbiCLgiZZUrEiIhEiIhEiIhEiIhEiIhFpaUxy0KNSs25ELW67DYO8mw8ZxKpg6z0XxpJ218pbjnYFi3Ztt6ZfOVXSeWjTw6nbUbM35i7ge9rH9EyToauD/xfsUjpGnm/zT0x6GsO4Tr4SQYWJsjt3u/tG581ysVGcTKYx/S3+47fBTOr2kRiMPSrcWUZuxhsYfKBm5UxCKbMyg9RIEoHJRpLZWwzHavTUdhsrDwOX0mT2sOp1DGVRVqVKikIEsuW1gSeIO3pTJNh2RYh0bzQ5Gr6j7eIWqGd8kDXsFk761rz5Kf9mUvxifKH2z6MTTIJDrYbzmFh39U5FrjoDCYVkpUXqPWaxKnKQqndfKt8xO4f/JNYrV72JonEF/6WrzTOOC2qplTwubnrJ7JccFHlY4PPaIA7Nc6J32+eyqGMkzPBYOyCTTr5XW2/yXRqdRWF1II6wQfoipVVfdMB3kD6ZUOSn3m/nn9SnNLlc/osP+c/qiUjCXieBfPeul7X9Va7E1huNXK69fZXs1VAzFhl67i3pnn2TTyls65RvbMLDvO4Snaw/Ai+Zw3rU5WdU9CVcbR5pnNPD02ZjYXLu4Gy27YoG07r9uybMG0xukc+gHVt616KMmLc2URNbZIvevQ03+C6xQrI4DIysp3FSCD4iYamkqCtlatSVvJNRQfQTec+1mrVMFRpaOwrsWbMzOBZsrucqC24k3uRbcOuSOE5NcPzQFVnNUjaykBVbqAI2jv39kj7NCxueR5AJOWhqQOZ7h0XvHle7JGyyAL10BPIaalXufZzjUHHVaOJq4Cq2ZVLhOxqZ25epWFzbs7TOjynEQGF+W75g94Kugm4rM1VuCO4hc35Yf7J31v9KZtH8nuEqUKVQ1KwZ6aMdqFQWQE2GW9rnrmHlh/snfW/0pK6M110fTw9FGq9NKSKVFOpfMqgEXy23jrnTzTjBxcG71uhfMrmlsBxcvGr+mrruG1qp4OrX0XjRSL5qZZcw3K6Nbp5eDD6QRul607qzg8RVWpXJDgAEBwodQTYMDt69otKKGfSekA6IRTBS9/iU0PxiNlzt2dZ7Lze5TR+HYfzaftHlskbpJmdrLJl7RG/06quJ7GQyHLmZmGUHxrqumPUVR0iFG4XIE81MTTVc7OoXyiwC+ndKXyt+96Pnf3DNHV3VhsZh6VTF1H5tVyUaS2FlXZnNwdpIPDq22sBzWYVnBEz30Dptfl6FLoSYl4mMLW2QLu6H7+ja6BhsbSqbaVRHA35WDW9BmzOP6w6Iq6MxFKrh6jFWuVY7wVtmV7bGBuOq+3qlr1x1pNPCUnonK+IUEHiiZQWI/K6QHieqSfgbLOEbDtuVVvaizGgB/FFFu4332pWqtpCihtUq00PUzqp9BMzo4IBUgg7iDcGUHQXJ/RektTFtUNSoMxAa2XNt23BLNt2k8fn09Xa1TAaROCLlqTtlF912TMrAcG3Kbb/AAE8OFicHCJ9uaLOlA1vXrVe+0StLTIyg41vqL2sV/Cwaf8AhxPPYb6Kcu2sur+FxRpnEMUK3sVcKSDa4NwbiUnT/wAOJ57DfRTm1ywe6wvdV+mnNrmOfJh2tdlOXceCx52sinc5uYB50PiF0KglOlTRVsqKqqu3YABYC57J7OITKXzLlG9riw8d0qGvPwUvdQ+qQmqOrzYzDKMRUdaCMwSmtgWYklnYkEfGsNnA7uOFmFYYjK99DNW1/Xf1a2vxLmy8JrbOW96+m3n4Lo2FxtKpfmqlN7b8jK1u+xm1ON6xaMfRmKpvh3Yi2dCd+w2ZGtsI8Nxl0191jbD0EFE5alb3LcVQAFmHb0lA7yeEk/A9pnCNh+16bb3671FmN7L+KKLN+fhSslfSFCmctSrTQ9TOqn0EzYpuGAKkEHcQbgyg6C1ApVKK1cWahqVBmIDWy5tovcEs23bfj6Tp6v1qmA0icEXLUXYKL7rsuZWA4NchT1+AnhwsTg4RPtzRZ0oGt6XvtErcpkZQcQN7Iva9F0mvWVBmdlUDixAHpMw0NIUXNqdWm56ldWPzGct0ifZmk2o4qqUppUdVFwAAhIAW+wM1htO+/dLdQ1CwtOrSq0mqK1N1axIYNlN7HYD43iTCxRACR5zEWKbp5ozESSk5GigaNnXrpRVviImFbUiJqaRSo1KotFgtQqQrG9lJFgdnVvgLwmlyjTXO6Q0i60CNhKoSbKFpg9K4B2FrkfnCT3td05/ex+tf+GSmpOqL4N6lSqyMzKFXLfYL3a9wN9l9EuE6uIxwY4MhotAABIv5rnYfBlwL5bDiSSA4jw2XGMOtbR2kKbYgi9wzsCSGV7hjtAv8bxWdM1l04mEomobFjsRPKb+EbyftEjddtVWxppNTZFdMwJa9ipsRuB3G/pMhdJ6j46vzfO4ikebRVUXbYFFr+52k7yeMk58GJ4b5XAEaOHy81BrJ8OJGRNsHVpsc9+fJetQtBPVqHH4q7MWJp5uLcXt1Dco+wSx8oCE6PxAHkofBaiE/MJX6eqWlVAVcdYAAACpVAAG4AW2CTWr+gsSiV0xtc11qqqgZnOUWYN7rdfMN3VITvbxRNxAcpFNF7A7DkpxMdwjDkIsG3Ejcjc0SVo8lNQHC1FvtFYkjsKrY/MfRNDlbrLlw6X6V3a3UNgue8/QZhpaj4/D1C2DxCBT8YsyEjqZQpB/7umzpPUKtVRWauKlcsTUqOWtltYKuw7Bt6pcHYcYrj8QVe2vdz6fPuVTmzuwph4Zuq3FHwW1rF8CL5nDetTmbkr95Hzreqk3tJaCqVdHjCAoH5uiuY3y3plCeF/inhMup2hnwmHNKoysc7Ndb2sQo4gdUyvmjOGcwHUvv9lpET/ahJWmSv3tUXlOo2xtMvcIyJtHABmDW7Rv8RJpOTbDMAy16hBAIICkEHcRLFrPq7SxlMK5ystyjgXyk7wRxBsNnYJV8HqtpegOboYtQnAZmsB2BlOXwmiLFF0DWskyFuhvY9xWeTCgTOc+POHaiqsdNSFLaE1Go4auldarsVzWUhbHMpXh+dLfK3qtoKvQarUxNc1qlQKD7ohQpY2BbaR0t1hLJOfiZHPk1fm6+uq34eNrGdluXp66Lm/LD/ZO+t/pSX0RqZo9qFF3oAs1NGY56u1mUEm2a287pl151aqY3mebdF5vnCc19ufJa1gfJMsGi8OadGlTYglaaKSNxKqASOzZNLsVlwsbI304XdEjmVmbh82JkdI0EGqsA8tV9wGAo0VyUaaU16lAFz1m289s5zym+/sP5tP2jzqMpetmqlbFYinWpvTVVRFIbNe6uzcB+UJDATNjmzSGtDqVZjY3PhysHMfArByte96Pnf3DJ3Uqur4KhlN7JlPYy7CDILla970fO/uGaWjNWsTzFGtgMQaRqIpqIzMAWt7oWB2948eEuDGOwbA52XU0Ttz3VJe5uMeWtvsjQb/svvK3jF+8UQRm6TkdQ2AenpeiRWveDenh9H5gdlHKexrIbH0n0Sc0PqHUNbn8dVFUghsoLNnI3Z2YC42DZb5tktuntD0sXRNKrex2qw3qw3MPSfAmTbiooDExpzBtknxHLwUHYWScSOcKLqAHh3+KpmjeT/C1qVOqleoQ6htgXiNo8Ds8JI6P5PKNGrTqiq5KOrgELYlSDbd2SNwuqOlcOSuFxSBCetgO8qVIB7pN6u6v4unW5/GYjnXyMoQFiq5ipJBNre53ARNiJACRPY5DWz0209aJDBGS0GCjpZ0odbtVbT/w4nnsL9FObXLB7rC91X6acltJap1qmkFxivTCB6TZTmzWp5L8LX6JmfXfVirjTRNN6a5A9819ubLa1gfJMlHiYhLA4uFNbR6GqUZMPK6GZoGrnWOosLBrx8FL3UPqm3ya+8KX51T12mzrDoOpiMGMOjIGApi5vl6Fr7hfhM+qeinwuGShUZWZS5ut7dJiePfMbpWHC5L1z3XSlqbG72rPWmSr63apnK97vDfm1PWSY+U+k2TBPw5tl7jZD8/1Sxa76rVcY1I03prkVwc2bbmK7rA9Ul9KaEp4jDDD1uAWzDerKLZlv4+BM0RYtkTIdby5rHdf8qiXCySOmG2bLR8FUNGcn+FrUqdVa7kOobYF4jaPA3HhJLAcntGlVp1RVclGVgCFsSrA23dkjMLqhpXDkrhcUgQnrZR3lSpAPdJzV3V/F063P4vEc62RlCAsVXMVJIJtb3O4CSmxElOInBGtDWz0qvXckMEdtuCjpZ0odQb+i96yal0MUxqXNOqRtdRcNbYMynf3ggynpjMZorEpRqVOcpHKctyVKEkXUHarCx2Dq4iTuI1e0slSo2FxSCm7uwUk9HOxa2VlYDfwnzR2pFd6y19IVxVZSDlW5vl2gEkCy/kgT2KRjGFssgcytG63flp5qM0b3vzRRlr7/AO2lV111vwV9iInHXWSIiESIiESIiESIiESIiESIiESIiESIiESIiESIiEVO5SdHV69GktCmzkVLkLwGUi8m9WaLJhKCOpVlpgFTvBHCS0S505MQirQG1UIQJTJzIA8kiIlKtSIiESIiESIiESIiESIiESIiESIiEX//2Q==;" vertex="1" parent="1">
          <mxGeometry x="-297.00000000000006" y="329.25" width="138.62" height="79.62" as="geometry" />
        </mxCell>
        <mxCell id="SYkxdP-PGaikRAJM0KuG-2" value="Azure Container Registry" style="shape=image;verticalLabelPosition=bottom;labelBackgroundColor=default;verticalAlign=top;aspect=fixed;imageAspect=0;image=data:image/png,iVBORw0KGgoAAAANSUhEUgAAAQMAAADCCAMAAAB6zFdcAAAAwFBMVEX///8Wcrv///0Aa7f///wAbbkUcbvC0+UWc7qlxd4Kb7rs8/kAbbqzyuIAaLf8/v0AZbZVkcm8z+Xp8PFHhsOSt9k6gcHQ4O9el8oAZ7QAaboAb7z4/v8AabwAZ7DJ2unh7vVwoc0jebrw+fybu9mHsNbX5e9alMulxOEte7uTudsAY7cAbLPM3uuhv9d3p9Rvosqwzt9ChLwfdLVWls5Hi8pnns82fbaDq8tMirpontGpyt11o89GiL2WtNGEr9i5WlpnAAATfklEQVR4nO1dDX+avhPHBDAiJj5SA1RRhGqH64P/uv7Wdr7/d/VPQkVQbJEius7v1n1Wa5F8c7ncXe4OSbrgggsuuOCCCy644IILLrjgggtOCMCQ+F58ESCzrxPdUtkgEhut6wynk9WI49X7+XBV58OX5VPfW2lwGnePiGKo6JqiMeg6hOai5Q3r314MhLjbQ28Goa6paoX9jUNTcNCd+EwaAP/7TSFL/jOiuopQJR3IssxfEy4N35IDmQ2r/YT1ClIrezng7KgKXjJh+H4sEALAdIH3jX0LGn2cM835zQDAwxgipH4+/nBNoGbLP/U9FwnA/vhv1yoT9IxywFmw6MpmOvTbrAjiXavZh78GRNXvQQEfhWOYqHI4BxXUvLe/AwmESA1dO3z8IQnmzJf/et1IZPn+OicDnAQEH049hC+CaUO7pVey7gapwN7f7UgRuWMEXyGAi8Lg7q92pGRn/GUKUEUfnXocX4DsLvJqwwQNcLkxGglTskzJCBBw7voSAHdWAANcFPBrpBGAiD1whN+dMbjnB7pBHqtglwO2R/aEYgTucPraQrTZbGLchOO+1wgtanCewRcgjWABBIQsqPRBJr73xOMu2nqbUVVFh1Tr/+ywJWKfery7ILI0wUVRwEVBW42psutwsBcCBb/V3HOUAzCnOVyEPWAzj5R0chD/oWaqK0cC5LxsSmAXsiVkh05HjnxmLta9VZgUZAJC1sBzwfnsFEQeFrgSskLV0QM4G1GQybhkMRBAFbo8m/1BvtVPQEHFYmphfC4huE65+jAGZOGH89gmV4Ovi4Gai0dmQTQnpx6+cJiVL0UMxFjMt9ZA338Q8RGavZP7UrLk6V+lQKnUJOD8NKieh03aO/nmYH9t/GpF0z1+Ds+P5rwF1hBSD2NCxbcnPqEBDfgVbYAQXTrSu9UrS/ZwiTgNB16icWLF2P2SNjAf59La0AEiWcN96WN4yDUZY/DqpBQ4OPOR2vats3tf1GKREf4fIRD1ySO10CHnVItTepLcPsopCMiCvdQYMg+e+R4ys8dkkHLCICSQ8y4FFFyPHD5eMfPc+4n0GhDn1mS4DEwNVTJQjFRkvpzMdZA7NCcFZnceE19A0gJkbqPFUziyXdA9FQfgJVf4SIXBi5Q0bebODgU8QFCfzJpZrAZkvZ4q5irfpQd8PiQABdgjUQIO4evAWTZpq2GzTZKvgvXVw6Q+phqw9ZmCZE7kqdwnkCOeruJ+Ys6JbHvcJrAgHQ2JvGv5Amk40qD2yZqw+tJp9ga3eZiBxExAzCwCOfL7uTjUkLC22VRrcLHyZWlLqgkjxn5oYazyC+xdGNg/zVqYH6QS2SghakixWCiRpeFj3CJSFWxMHABSpMGZdrFW2b8orGWpQ4/wkjXvKuRAC4RrEBuf098Ow6GKPmg1drS82Dac5zG29l4d10sd+xpe5iCayvZ5vKxvdnE+1a4HrcqWJaTyP6Y2Gtp8RURGFBcMtoGS+QjBIM3LVhHsncR3GmW2kJDKFUEcslxDex0D1aILz0/b7mT34X9QT1sTmnGSE4enrIYy0hcNsfw3GHbND4SIDVExjVtn+xMB2z3lzs9uM2VTbp5EK46zWXFM4fdiIWAm04Apgk/DZ6qqQGE1yGRn23M8RLedbL1X5tjXyObVqM1RPb55y7LrmUEWtxChQIfLobTjDAAZyMMRvE7wqD6WOvh3NLN4NPiRyWgUJOD/1FT4nrbEfSItrljVAdP8KFKUzB1SmX3kiQABiee3syXBrIYbCtXIy0bXbvkUSM0MUqB58d9gin5uRE4Gu3sVdp9jNqDmPPQH11uWENIHs0mH7ST2jtJzp8Zmu6TD8oYeIQsHuBb/Ddnpm8FiPWZVHYwfpHYsKqt3ZOA2HqESl3I+zzp9e0mJlDDR8L3FdRjbDm5LG7kA4J+exWuEtejOwbtFoK6HpqMpe7kRS99Q6kLg6z9DGkIp5+9HzGqgy6HMd4bYXYRfw/sK5mkLJYdSmKtzl8lxhrXIzmEWQXzt68rE5iPe5YC/7Pd+USupdJGF0bO/G2hgtqfd7lt6YJTJAOd+rGTaFdYcMEXwC8eKWiz6Wg+DCLscCCsAEN8bJ88cmPrQcWg1xKpfABCBKGY1/CiTAiD1cEbzKJKDajO2xhd46ayvlrIW1l6TPF8hU0sahSo0/6u58ehbdFvz7VeOCGD3adaw74aDzdJRaWu+EeldDgh4ECERIAKLowAn7Smk4WBZ3Tl4J+Wl+coEdIzs8aNoLVTDoapIM39VuQcNSGcPBxJ4aho9HzBvkblOgC12yO2AKEeN2Q3MoVjxabc3Iy8xJYPIziFJFxs5CIfKNoNaqM6H48YeDoDU0lQdjr25KA9jprJba+HtU1mFziYOMxhP4CkBB2UydNM50PVJmHV71TJx9QMO+G4Y4Mr9UCSrsjnu1LoJDcm1hD54rJVPAZE744OOVRIcqNTjho7MfKaBVoHtjzgQUBWMI+UHnNvxwEr6zRrEyyoPQxJSGhmEGIdlH8U5UGcdES12ViIsloEDnp6ROI5j+yVMaEjmUNDgjlkNZYVUmaLu64edCyc4eJT4jEnNMIqalQP+wbaIqHC3W5rfLbClrs0n4TNpdNxzJEkqQTcAW5ocFELc5qAb/jf0MzJyAPl7ZKc56/k22ygIv43qaAGT4sgWTavWKSG+TuQ5PTTd4MscKIL9uo50c7waCquAZ/Q/9JnZkFCRzPhmquH4JIwPPmMthgOpo/BloVD0u70OOtdf/qdvIovC32YOxWpO+Knt8TjwDkqPKJqDishpb0YhMwCYf4mT5pqqUIOphmOZS0ByciTeFMsB2waiKAEg3L90JkZT1yIHk9eXmvCtJg4bipcGticEJ+cgCp3OmcwzM5pzwf1LK1lUCJV+1eZRx2IpYJvSwQrxiBxMf6C7oS1OJ2UAmH9JYxqSKQkLq8/z4pdEX8tRwXk0DnAlMJXlgy28S/bCcBQ2HXlXkUhlNHCrgXtnhVHgZw0ZlMJBjRsqyLqm/9WEmcyjzu3+IB6mYU62Qh9rdoF64S5XUvFRORDtRH44wt/m2RzAbbT0MNog5ovz8cMuynoExA1yVWoclQMB7Ij7k0MNCDrTNxw/kGwWmNB82EF76RyA56owngiR2X75iKOAfZEc5NkYy+NAkmZm8LvhMo8C8N3C6c20wjlwDzcRy+XAUFUNwlbNEY4TAOvTjwI5qOas4iyRA3ESA/Xui8Q15LxwDsAqZ2F/qRyI7UDv8/uVr4qXg7d8FJTNAYN2LA7svJVbn3DAtHgjVhendMLcvLPkwMmZmfwZB2zaX2LeqOJyR+dMOajm8ZcycCD5Sxw7WdVaE5+cqxxM89bs7Oeggqtg+NRMxgU1HQ/+N3HOkgOveH2gaveGmXJZFOiDjS1yRhy85rMSP1wLSEtN6kJhn4PoAmfDQf+zxPHDOcgGNeD5y2BTUXw6Dn4flQNVV7S9pjg27qquewZysMxbw7fFAfdv54n+MbyhA/rjvakUivi4uhWsYktDwdZb9KJyQg4KkgN3YsSdcKYUzLcGc/4l26+NDDyAqU1oN9l6avDnVBz8LkQnPvrLQI+fG6sKHvlAlLLJIg407PUrTfxRHfl7wmOjfA7u8pa3J8/eYewyvB0Uuu3sfpbT9roDLI6X02o2tPFr1ZVqUZCkPPsgWxbaJxzEoeqDbiPtpJjXawB7Ph0haqYXtWmUdvvRd6VxUMtb4p/KAc/RZYuA3eluHpVIwgR8aUj1Ya8VmPi9KWM0CTw1KZYHgh2RD318DoZ5e4HtcsDzBa7RbabSG5510VgZWjJ5N4kBNyDkEjioF+E3rm8SP1VJtrwRcVwGJHf+czlWsJ5qRGjjUbVexlogOSlIcsAT1fVgxJMP34/H2Q3KTOyv/LCpbmq3n/ec1Hq110KU8YDEYoo+gZe80O7kV8TJ0eJI/ZxOU5KDCh5PEgUdNpOH+sSgg6B7V7vqyB+dmvNMZr/xalhQs7Y9DW0TiDkaB2CSUynGObBw68EG6yzbcHrJsK+IS2saxpqx/Dn8SFEI7ecOJ/0xFYkHkTTENlFVcACOIAdX5tc4AO0fyr2fqPJlw3F647hBpKqabiqzm0mV94TjLUT3SQWpP6xaGjMi1J1uEQiNGp1jxNYJWXztfAEM/9SBHG+lDexqn03mjt2BUBBAiFq9trO3GViYocvM61eDbscgeGYSNHpTWDgH4C5fcD1aC0S0ORCXEnuZs1pgvtfv/goSFoCmY1x59Bq+LTKRuSkR6Qogkg7C5eQO/zDz2tS0qAwqfLDDehsqcC2A+XWuth+bGo4ITBjsxhvOkPetaoqJA+OuJojYd37MfsLM6ydMFSXFtC5QJxIyK4oD2V/psJKxMz1f7Ro2qTGazNPr1nixA6+AJD4zr80dI6LIM1fpNpfrmOBApKC/PNIcDhgTbpOi0UQ8zofnaqYbWR1mRDBtImqiUfEcuMHX5UCev0Izb7tFVLE0BVN006s6+/JrCPe4uHmt4vcnABTKgbTKE0/b1DPxcjWDKskqBO7+xL5lrpSQZVTZfpjR+7v59AYKpIsbr+282xmAxBpNSe/fuFeT5RgyP6NZZHIa6Ch5HrCx5oDMRxDu6ADeLzhe5zpv3y67CDJpRh80fBDaEmLUumv4Lki0FordL2Arw3sb2MVxwNZyL0cQYc0Bqf5IaWOhQbO1jK0NnZ+1SXZnWPNumDhDuD/WKmRCg1Trvtb8lEiMJOxuGbjFPs7AXhxMQaKmK7EIKohZAG+1jtSObZLv9UwhXKf687XFBBqGjtJ2v4iKCMDyDtxYMZbTq7oUqsutPbTYBovg4XAPek8cCWkQ/8cIYDeYUtO1/jy+sol79dBbGhaF6a5zyIXGtKU263MjWzpqBj+Rlgd7Tjs1XaLmwsSthsvHyIacln8AQKjehGctLkDq1enqhrlKXN9zzYiSMXi+MiwmWaGRTd4pLL7JpkxcdKha3JED5j9f9xudzXzvcsA+JxyBUA5xnSa7frV3/6RTqlvqxgaIQxVEdJ+5kX2Eej/AizgOo2CbAyYB/QavMLA/qPEE0huctVaTxtwRbTBit0CAaLrZmU+9PqKDga6n7aEqX2vX0Hiu+YU/8Ihdb4IPk4QkB7TfFlNMhOPs7OWgpTFVp2CIaTB7/2ABHnG2RVK+8L786uT1ScFYUbheRZt2EEj4XRVLN+mi8PUApPuPerl8zIH2yw6TSdkyd24ff3xU4xlNqTh3Js6ge/+nPd9pNc9PZtx5o9efsSVgWimNtIq1E8XNEKmvVA7IX9+qayPCA/ZvDapr+IB6po7OJhVjPJjdNGIzIosovAi12M68tmoh9ibdikcUiueA46Dyvt1zZyKPeeVJzrw0FYdnru2+Vxs69qbz4ruS7fjtyfIRwcg1PwYHbC33D9ghdzkAINSrX8zNM5lpZMLZzejWJbGmM0C0jrE7Vz39eBww91ce4RSbLbMcFFPDYYY2gmb9cMQL3rTt14noPSkfKVc3ATAZZNUIx8rR3Dl3nkGK4bjb79Xm4EjnCwnI0hzt7WBXDge7+Qfi3WqgX7ekMjhgporL2/5lWA+l5uoK4TzeOVMSTPWAhqZlMJe+Ub7yDgkyAfazGew8vPof4iAkojMapIWz/yUO2L5c95C5363/BzgQJ0d29TfC4pHmKM2X/fYccDAnmFSfHy0KFSts/5sA/Rc4kLkfBSTXb9yObp6MrpHE7OUf4CArLhxcOOC4cHDhgOPCwYUDjgsHJXJg9cWz5xv/MgeVtwevP6brmOc/yQFC0IqFd86OgzD8WywHZkccOv3aPA6bZ/dFjNDy2qx+Cn7O9BbmxRTLAXU6w9rdf+mxHBQU1xPm6+ByUOGdP4uIrQMRWw+hjSEv/EnGclTxWESe0lc7HwrEmesCz6YyAD++xgFvHCo19Nh4d2afjX+gt7xq/XzGzyFqupi+WkylwZc4uGWi1BmO9ibJqQq+XiynVzZv2pmarXUqkCoOn7eg4oX1FQ7U1p2hYHOrgkEN817Z+KmxajuSKIEhEvioHqJ0yD5atw9Y990/iINI9FGgpKo/pCiU9m+H9rk9CX4DIJMJTJzVZuQgEG/ayEHag4l4+s34depLYc/ac+VA4slE9zDWnhrhqqjj+5iDSuBUb5fGIGXmxQrgDysJur1hWobi+YEP2H8zN+U3wbNIFvqEAzTgLQFTi6A1DUK0nPpESj6a4ozB6y5AdbZuQYgq+rhmb+XmdbgwJzhYxJ5Rs14NPENVodrjquGEhRxAlAD+LZDtSaBHqVNwPJXbid5AksjVfdt/bCNKXOiiP5m7RbcKLQtslt1Xc+Pf0Fm8xYblz6d3b2jvA6z48AfGa0OI/xk5QwdCPJyzFSUvq4nn3auQpqZpC33Ai/9avQ9r//4iyKA9O6hWEGkmHS9rofY79d0XA/5giS1rYR+Y62OatOs9ONwHJkL7fR+4rzjN4InPfkXXBwrTfnvrHP92AGYt7G/Vyyter8evfPOT9xSqfANw5dgeJ/sqvLs+moKDp95Q1PKdn+tTLNj2NgmSZW5IhwoaMdvvfF2fYsEtR/cec1uYj5+5PpWu13bA2bs+hcNvUZXbvoubfaWs3x5EltqGcd/g7bL/FtencIRlR3+f63PBBRdccMEFF1xwwQUXXHDBBf8Q/g8AqKezsaro3wAAAABJRU5ErkJggg==;" vertex="1" parent="1">
          <mxGeometry x="119" y="418.36" width="105.03" height="78.67" as="geometry" />
        </mxCell>
        <mxCell id="SYkxdP-PGaikRAJM0KuG-6" value="&lt;p style=&quot;line-height: 1.2;&quot;&gt;&lt;/p&gt;&lt;span style=&quot;font-family: monospace; text-align: start; font-size: 11px;&quot;&gt;&lt;font color=&quot;#080808&quot; style=&quot;font-size: 11px;&quot;&gt;Container&lt;br&gt;&lt;/font&gt;&lt;/span&gt;" style="rounded=0;whiteSpace=wrap;html=1;verticalAlign=top;imageVerticalAlign=top;" vertex="1" parent="1">
          <mxGeometry x="495" y="302.17" width="130" height="70" as="geometry" />
        </mxCell>
        <mxCell id="SYkxdP-PGaikRAJM0KuG-7" value="" style="shape=image;verticalLabelPosition=bottom;labelBackgroundColor=default;verticalAlign=top;aspect=fixed;imageAspect=0;image=data:image/png,iVBORw0KGgoAAAANSUhEUgAAAH0AAABoCAYAAADcm/8NAAAAAXNSR0IArs4c6QAAAARnQU1BAACxjwv8YQUAAAAJcEhZcwAADsMAAA7DAcdvqGQAADSMSURBVHhe7X1ndBxXlt7X3QAaOQcSIAiABMUoZlIiRVKUyJFEhdFoNFmjndXs7M7a/uHj4x8+Pmd3VmOfY8/axz5eH+/uzO5O0iprlKWRqEhSokhKYs4BgSSInDM6+vtudQENEGCmRFG6wOuurnp1672b3r33varyRKPhKL6CLxV4Y99fwZcIrmumR6PR4fIVjMBXmh4DycWXRTau0zFd2g00t7bidN0ZhCOSbu7wxA6PARFAxZ+UhCmTJyEvNxcezwSVrwO4rpm+8d1NeOK5ZzEwFDSuOnxUd+MZ6mzzDEwqLMJ37r8Pq1feZPuuV8Zfl+bdTDX/evr6cPpMPRp8qWidVInWIpUb4soMZ19+ORqjyWhoakZvf18My/UL1+mY7jH9laJ64UNy5QLkrP46slbdx3JPXLkX2avvReaKu+CvmOVQ4/pU7lFwfTLdHbDMklMAEvzwJafBl5IGL7+9yalxhfu1L9EfY/j1z/Xr33snD102aoweW5wDsfIlYLjg+mf6GJiQ8V8i+NIx/Sv4iulfSrhOme7E4rLcX6Vgz4bPnelubjwUCqGvb+C8pXd4uz9WRh+3MuB8B4LBGNN5jUj4nIUfToOGXf+rD27fP2v43DNybsdP1dXjlTfeNNpHPeM3aexeD/dQn2O/4kAVieNYVQ327tuHxIVrkTJ9nk4YA6oYRSQ4hMGqg8hrP4WfPPQ93LXudjt6tZy8SERCHkZLW6sJe0F+HpKTkuDxej8Tx/IaYDqJEA3j41178R/+6meIsuPwp8WOjgaHlxSSYIDfIXj8qYzBE52D8cCKrAUvv8P9XfD604Gk1HGY7tRTI6JD/SjJTsNPfvgQNqy/ekyXgIfCYdScOo3nXnoFre3tuPfOO7B0wY3ISEuDx0fGj9fQKwiff+6dV4/wT0z/j3/1KKJTpsM3Y5EoHqsQAzFG3+EQwnXH4e3rRtqcZUjIn2SHR4HxkRrc342eTS8hWjoTCSXTzsYZg2goiPDpE5jc30Kmfw8b1t1m+68W05up4X94+TW8/Oa76BsKYEZpMR64ZwNWrViO7MxMeK+yxl8Tjpwr2V5+eTJzkFhcgcTJ5aPL8L4yeDNz4U1Nh39SOVLLZp1dymchrWI2kqdUwpuYBG9WLs8bB6fKJO4vLIMnI9vR+qsMQZrzg4eP4oOPP8VgRiGSZy1FVfcgnqTWb9q6DV3dPRziIiYcVwuuCaa73bPv8/ZVIiIhuVBNIMKrR7+LAjGyvaMTu/YdQEPXAFJmLET64vVIvXE1GgajeOmPb2DHzp3o7R+wuleL8dcO010enqOfHjZX5cIZfhFwFVDGg6xIhBrc0NiMIyeqgawCWplyeJPTkTLtRqTOW4narkG8/MZbOHL8RFzkceXhmmD6lwEkU/LUm5qb0dTeCV/uJPjSs7mXEUiSH/7yeUiuXIwjp5vwzubNaGlt+4rpX3zwIBAIMkxrQ28gjISMPHgTGKbpj7z1MrpInr4AoH+x7dM92HfwMIYCgdi5VxauHaZfHaG+piDAULOzqwthjw++1Ex66C75aQf4n5CRi5Tp89ER8uLDHTts/L8a2n7Vme46JOdqvJIsAn1ez7wPBkPoH+hH1OejSU9ClIxWGQaGaYoyfEVTceB4FU7W1VlMf6XhqsXpYrLM2YmaGjS1cHyiEzMcesauqN8Oo6M4Xl2L3z/1LDyVC5A4b7mZvbFgcsM4PVR9EJ7edmQsWoOkolIdsePDoJ88PdTdga4/PoZw+RwkVcx1LugcGgbDGRxCoOYgshtOYP2aW7Bw3rxxrh4D2mKdUjJpEqaVM+RLTBzp13mgobERv3nyGby55xgyV96HpEnKHTjtcXrgKEf/4R0Y2Pk2fvKtr+PB++5FamrqcBinbJ7A5yOFeOHx4vnzxfhXjenyVDu7evDk8y9g28efUGIjjMPZGIn2SC/tJ7uDwcFBtDS1IKoYPCcPHgXt8cD6xqAoa/d0kqMBJOQWwZuS7hyMB/3ktaLBQQRPn0AkIwcJdJpcrRqmSQyn5d97upDQ14Xs7EykpzoZQcsGj2mGTgqz/vpbV+O7D3wDmRnp5yWyC03NLfj908/htU8OIH3FvfAXV3IvHbm483XJQGMNOt5/BrfOqcT9d99F2gyhvb3D1u8pfav6KclJyM7JRlF+PiZTAHOyMmMCOL4gxMPV03QyvZVe6v/79W/xzo5PESmcCm9qlh1Tm4yBBo7mQISvPkCvthDJ5bPGITaBFaOREIJNpxDsbAXypxBn5shBF7TJi0SHBhGp2Y/EKZXwF9IiuDjjcQsnrUew6TQCrY3wFpcNp4FlbcY2I9LbhVDdCTywfg1++qc/Qk521nmJ7EJ7RweeeuElPPPuR0hddhdSKpz5gPirqOmh7jZ0vfMk0oe6MLkwj0PCIPqHQqD/Zwqi2l5KZKo/AdlpaZhUVIiZldOxdNECVEydCr/fb7gmatfVS8OSq8b0f/kN3tl3FJ4bV8KXV2KHPDET6YKaFqWnOrj5eRJiFrJvuVd77Fg8aE+UGt63bxv6Th5Dwswl8OVPjh2JA1NpjzEouOV5pC1fj4w5y50LnQWsFxhA38Ed6Ks6iMSFq+GlZ+0cORtCLWcQ2PkevrlqOf78R39CpsshG5+4Y6G3rw+vbnwL//KHV+CdvQppc1fA40s46zrhvm5q+lMItjUCakt2AXwpFO6kFNb3mZmPhoaAgT5EetqR0NOCLG8EFaXFWLVsGVatvMkEwUtHcby2XV1Hzr2eLp6UPLwY0TNqYSKLJk78KTbZ4mEY40tNZ8k4u9CU+5LTnUWMIpZw8jydP14RTnVRcfC4+KwQJ/EKp8frY+hEfLF2qZ1nFV5T/RlfJM4NSXTeigoKkZ2ShFBXK4VtaBQWY6bkNyERvmkLkbj0biQuXo+k2SuQSF8noXw2EqbMRELpLCQyrk+auRT++WvgWXA7OgoqsftINd7Z8gFOnqo7Sw/i4RoJ2dh1G0Cvb/BRqCYXFqKUJdRWTzPezL3OPL4Y7gB9BtLDW0Qvnp58QnahCaUnkQLu45hNYfeqSEgZ23vTc+AtKIEnOx9e+kG6O2dKSbFp+EQW6Nph+pcAxIQiMnzunNlIGuhG8EyVaXu8VoZCQUvKRGXJNM08FkQqI5dOckqUUUq45gAKM9OwZuUKmvaiCRkuuEaY/uUAaWJWZgaWLLgRN5QUYJCMGmyoQSQaMk1XVBCgEITpWJ4LHKtAppKx4d5OBA9vR3pfK1bfvBwrli1FYoLv82G6K4fjwoiQWhnt1l0CjME3FoYt54XAWFxjyyg4a8dZ4IzTI0WML5k8GbNnzkRidysGDm5DqLWeEUQEQwxbg0HddxeHN3ZdY7Ttl/dOXIyOQq11GPz0LfhbarBq+VJ88757GEKOvwAlHi6Z6fEdmQgcWXNbzV/DVXUkvvDTPWY/nX0XB6PxGRCnfl18J+NxjVfOD/H0EYOUt+jq7sX2T3fhn//1Cby9aTMG2UCLFBJTMBQcIsNp1o2ezjWc83lu1MnK2aoianCktxuBQx9h6KOXkdZZhztvvQU//uH3MVke+3hDwhi4dE2PdeiCQebGTI4uObbEr3ZzkrKOPI8uOubW5cfw74lwOmV8XOMVB/d4uOKLgzPWgAlBtBkcCqClrR27DhzEY08/i//88/+Kn/3if+L197egMzkXmaseRObS9Qgz0ggODZlwcFCn1gctHwGVcAA0AQh1NiNQsw/9H72GgXcfQ2T/ZkzLTcO/feRH+Okjj6CY47jL8HOZdsElx+n9jBF37z+Eo8erR18kJgj6HBgYwMef7sSJ1i5Ey+dSqpUVo7BYjREwLWcHwwc+QnJBOZLnLI7tPBuUSBmqPYqh5gZ4S6bBk5Fl+OJrO+wjDPYjfHAr/DMWIblspvaMCxFqWJBx/2BTHTzlc+BNSUNkArpFu9oQqtqHeaVTsGzhAqQkO4kQtSCq1An73zcwhO6uHjQ1NaC+qRmtHR3oJ1N9KRnwT56OlBkLLBsn73soFECAx2QJIn2d1ODtCHc2WlQYZSM8FABPoB+sZOv4EhMTMLWkFLffugp33bbWnDYNGQ4LJvbY4+GSmd7U2op/+PXv8Obb7zG29hETL2bar6P84E81QH+y7N6YeTeN4v8wOFVtQ1omc2btPkerorGkAw2dyYYFPfE4BcLLg0pVK/0b4cbYKsNgB/QRd+GJKisNrIuyP1bTOuycoxbZiQnsB8MzXwLDLKWAc4uQNKkc/qIy+DJzbTFnhOdJu4eUNZSGE4InD1GDNyHHE0JycrKFeIn+ZKSlpqKgIBfTKsoxb9YNqCyfhsysDPiMDnaqwYUwXHDJTK9vbML/+odf4cODVfDNWgJvaoYRwufzWRLClvOynpA7K17ODY7+kzH8ElMnAgePajuYHUJPBBJC4iQxzsFyB6yeI3jnxuh86m9sPU2V6riPTLW4WkkfWg2PYmoPPWoekzUQk4PU3CHXpBMiZH5g93vI7anHX/zwO1g0f57RMYG4kpISkeL3E28CEbC+03Xnw/7HtuTccElMl3DX1dfjF//377Gzvhv+mzfAl5ZjnU5ITERySipNDrVfhLlA6btewPFzaIGMEaP7riNicpBxuDRcIZoDDNcaqhDeswmrZlfgLx/5E5SVlprZvhowrkqp4Sqayw2GwmYarS9xEGbjA3Q6TCn1wfZFPZoOUFFnJMEa48JXrcirjWiiRmXMsUsvavPFt1vtsLaYJhoxRKZhMJqKZsMm3ZktM52g5x5uqkWaN4jlSxfbzQ/j6YpwiBehYNjo7/LpYmFiO0ro6enB8ZpqNpIepCF3L8Bv/rvtssWK7pjtVtPxqEyljvG3xlTWcUz95Rdd1UOckb5uhPu1bFjmdvy6F1pAIddkR6S/N9aHC2+vJjfcYtYtjmlijBIug3R+h4YGHA13ucrrhDqaEGHMPWtaGebMvAEpKckOjlGgBsmBHsSR6io6yQz4LoHhggmZHg5HUFVdi1/99nf46JNPzAPVogiNR7qYGqUQwZE2abXTAPtNBqjTNn4FBhBsPYOh+moyp9uk3TmHxc64cOApdo5pFokXaDmD3r1b0LN3MwLNJ3mtfh5zxsgLBbVC+ML09AfZxp5d76GPUUSoo9HablaEf3K87NrOaecFp66dSYsZwGBHKwbqTiDU1UIuKyRzMKkf4foqZISHcPPixbY4I57h6rNorvG/sakF72/5EP/8+9+bTxW5yL664Hv00b95NLZtoKYEydwzDY14+c2NeP/DbdjL0Kyvt48NoBesVhD6+wfxye69ONPZC19JJTTbZcIgs0UiYqgPQRJu4PRh9O/fiqETe+yeMY83kZ4tOyVHzzRC2qROjnR0jJrwn4Ki+JVMCDOs0ZTj0Kkj6D+4DUM1+xForGWY02L1IIfJCrHasBOP1wXhZD8YDkWofWLwYO1B9DH2DdCD1vRpiPgiipHNfLMu/2PNJQj3eHjj9klYyNxgbw8GGmrRf/RjhA7vQLij2Y4Jr/oWbjuDaO1+zC8rxob16zB5UqGdLqXTmrrunl4yuxkHDh/Dq2++jedeetkenpSamoKS4slITU6h8+zqrngzXrtGgyccDlqfQiRqP+Pq9s4u1NSexIfbduCDHTugO0NlEHzEpcmCG6ZXoLxsqoUU72/diiONnUiYfZOzmIFE1PjkC/Kc3naE2psQ7mols4acq9HJS8yZjESGLgl5k+BLzbLpTy9Dm+GwT22mFkRpahWTa4WMNDhM5oR7OsmMJsMbIX5dS900huhEOpAJecVIKixDYnYhw6UseDUVat4zCcN6prkhxsUaV3s7zLQGm04i2N7AOHiAiGIEJFE8DJd8mflIyCmCT3Pa6TmMtemNa0qXbSa1SZqYcMXOiZDRanOYMXWI7Q201iPUWGN0UMwtoYwmsT0M5bzEDQ4lvq4G3HrzMqxZsQLpaWk2Xislq7td9MSrmppas7rN7e3D2p2dlYbbVq3GiuXLMbV0CnKyM8zDT6CH77ZnfMHk/kBgMNpDLdY6a3nkx6pqcfjYUbS1dThjjyQiJj0yVtrysrMJZFJHVxeaOzmepucimuAns4LwsNMemzCImZ7h62pD5zvhkxYG2g2ILD4WMCzxetRgKYLDcC2siAbIHJltJSdITNMQg2HEFuaNAiGRMKWm2xy4zZH7EnV5wyGzHRnso5Zz7NY1xGAdjIHck3icsnCSek+i2kxcmtIkzqgIrEWOYr7qq90htlfWg0VCpJstvcQ/qolsn4eM9QQHkUDnNzcnhwpVYAwXw9SeAJmu8XuIVjdMvA7/9OHiiiDBl4BJkydh9gzG7tPK7cGHBXl5SEtT9ET/IpahGwvG9A5qt9Zjd5GJuohMuF3jHKDpv5179+H19z9AMKcEUWqwCwrXvGSi7sB0GupgM8kTAYyi2hapHYI7e/Tndss5xxETZ+tiwBhnG+55/GWbEkYdjFVQRYOJ8DvHremqw/+RFjm4LLdgv/kZCVH2SUM9plKg6zscGwHu8/Z1wdt6ChUFWfjarWtQVsYQLVZP+B0aOL8c7GPB2Sf66LxkarmWbonpWVmZli+ZUNPpxJh5n+D4hKCFjJu3bscv/uGf0J01BZ6y+UQSMytkekKKn4ynJpiv6CIffRFrtj5iauUePUvkrI7+nXrjQfwR52zn090/ci63uHkWH2LH3d3x+ATjip4hGtk2ZrOEqRATA8+hpfE0HEd2XwO+vm4tvn3/fSgqoKknTMSoCwU1Sdc4Fx7j0qVcx0fzXlCQhzyOJZ5Bmngzvc4xeegy0WrBCJHOvoj26NoiqENUp4xsxQo/9D1m76gS/+fsc2DkV9zWyOFhGH2u+2vkzwW3hvXNLexrmN51mIpgDB/p9BjgAU2m0C9J5Dg+v7Icq1fchLzcnNjxywej1XkYOr7RvwDwcbxQY8vpRHjpqWOgO0YNgUMIx8RNSIGLAAeHPocLP5y9nyOoDcEQGU5mk+kROsMG49HcGkx6MPrwttaiLDcD69asxoxpFWaKBZer5RcKl8x0NTArIwOzZsxAkp4K0dfhdCwGkZCcGk0PXj5rTJvk+HA7McGDpASFezpghz8TGNZqhY8K4+hohrXKxbSb2ivLdi7QuQM98LTUojAhhNtuWYFlixchhVGQuvJZMVxwGUz32uzPzOnTUJhFL7m3jVKv8E6ccKQ6TC1wZ5AuFxITPajI9WPlpGSsKU3DnOIsJCc5GvJZgSt8Nm4PKuyLaTf3mxROwDgdjgY5jrfUIKO/FTcvnG83S+TSUsrD/iwZLrhkpgsUE5YWF2M2Y3dvbyfAuDceLNaWFpBQJFds78WDvNOitCSUhtvRvf8jFA60Yu20XJTnpZBgl4f7fCDNVmws7bZHnwwFEBpkHE7Gq1+s4VQcC2YVYtsMzdB6EqkcxxfOqsR9d34NU4ons1+XRf5Lhsu7KgU0Lzcbi268EVnURA8dFDAudcIgFnY6zLhdxU07XjxE6TR6kOGLYKj+JA7t3IntWzaj/tA+ZHoVq+paV4fpwyadzI7QQQvRlGv1qiWNdE3rpj7GAe63I0rWtJ2Ev6Uas0qL8c177rYhMVHTpJ8TXBbT1anUlGTMnTMT82ZOh6+nBdGeVudgDLTgT6bQCGeJlfMzaGTsVGEoRIWKUCsSOf6FGQfXn6lDS0srGGzyGPFdAZ4PM3j4urRSETqjMVNu5lzCyzrnB4ZMqhchw6nhSc0nMGNyvr1AYNH8G+H3f3aPDxsPLnkRhQsiUG9fPza+txm/fvo5tCRmITplHjxJaY5UqPOSekq2LznJWahvc+3jd9gaI6K7v8xBiiI/KwXzsrxI7Wyw34O5xTjY5UFT15Ap23Aq9BLBZTo5ZX2SExqhTxKVQ3pBjI5BrG40HECUXnpSw1FMK8jFj777Hay6ebndgfo58XoYrgDTpW0RnKw7g8fI9Le27UKweCYihRWU5tEmTOlKX7IfvtjdlU4SRpfntxGdZpPaZGlSRQPdbfB0d8CTmoWEGQuRkZ6KLD8FhtW7hyLoGWR8zOYL18VqjZPDds6z/JccNPkexmxqNJk9LHwXgjtGRWKyVDQajyOxuQrTisjw730HK5cvo+NLH2SC1OhnCZfNdIEYH+CYt33nbvz28WdxuLENobxi54F90moW00SZNBWGXEYlEtVD86/cuidEjR2g9z/Yh+hgP7zUFC3aDyenI1RYDt/UOfAm+C3vb9fUpIxtmQxcNAxrr4RNQ4+EjcyOGDkuhSQSIgp5gO2vO4wkmvUbphbjz374A4ZmC2wy5IKE5zOAK8N0/klLent68eY77+Px51+0GSGTanbUpa+442RcY04OP+SZJyYkItHvRUpqGrJzclBYUIjS0hLkTJqE/V3AR3W9znRslMJDN+RCaecyVvW16VoD2y9hkzeuteaKMqT52q9TLvQCBjpH/eT439cJ38n9SOhuxuLZM/Hnf/owZt0wA37NQ1wUzqsLV4TpAhFSpYkO1pMvvIQ33n0XU8rLMHvOHCQlJtGDlyMnbeBFKQyaIdKCv8yMDGRkZCI9Ix3JdApTklNtnZ3miEOsf6y1D49/WovWLsa5IhxLTGTOC47jSGui8yJeM+GyLiExmuO1mGwCoHKpTBH15PS1n0HCqUNICnThttW34McP/YBh2SRn8kkCew3BFWO6C5oLPnm6Do899Sw+2bcPy1auwPIVNyE1LS1OifhhhNZvj6V0/f5k+MVsGwrsgNXvZlz81pEmvHOwnt56jIETMd3dbT3ih/61nl5et4SO2i2ttlWvDCuHhcdp1EWAhEfazQsMURjPHIan8Riy0lLx8Le/jfs33Im0tORY4uXz89IngivOdFFaU7PHjlfjt08+hT0HD2PJTctw0+qVyMjKiE0fmuvkED1GD8mANEKE8nlp7ikASv6IIac6+/H87lOoauyx3y645ttADJbGqchcyykzx8yxLnYBgXt6fK8viik80XDTUnQ0wHvmKJIGuzC7sgJ//vAPsWThApuMiocvAdMd0MT/8eoa/Oszf8Ane/di5tzZWLV2DfKLCoYnGMaCmCgCmRbGCKVvmflDDT14fV8d2nsCDuOMyWq6tFZf0j6dEeuOjvPvckO5ERBCFlqMaG8bvE30zjsbGUpm4u471uP+ezagMC/Xan4eqdWLgavGdDFENKo9dRpPv/gSPti+AzkF+Vh16xpUVE6zFZ+20CGOOC7TXdD57s/+QBif1nZg0+FGdA/E7um2YyP1nZ2C+H2XC+xHhEOCllkpzazYu6sJmXQ8F86Zh2/dfzdunD3HLFP82P2lZLrAYXwULW0deO3Nt7DxvffQx9BuweKFWLBkEXLyc41YF0agKJkdxMc1Hdh2ooXbWuYUO3TFgYiFXMvF5PT1MRKho5bc04rMRGDmjOm447a1uGnJYrvf3A0jr2VGx8NVZbrAZbzWe33MOP7VjRtx9EQVMnPzsGjZYkyfWUnCZdNjJ+FItPPRTQmZT0+24+PqFrR3D5njaHC5BBeTbYiQTxCAZ7CfF2uFj1rtD/YhJ8WP6RVTbfHiTUuWoCA/x5kw4XXdZU5fFLjqTBc4jFfGK4ozjc3YtOUDbN66DY2trcifVIjZc+eirKIcmTmZ8NPsOys6xyOk49EPBEI42NCNHVUtaGjvR4DO2sSd0JEJmGJMZpHjp5U/Q2T0QBe8HLP9/E5n7J2fl0XNnmGMnj9nti0cSfiCafZY+EyYLrDkh33TYjJGlpO3+YOt9O4P2iuvk1JTUMq4fipLfkEB4/YM+JMlAFp5SyGgc+Rqs3CFKEAn2wax62Qrqpq60dUfsAcUxjNYW7rVyvhumuwIny1FVtFjuQa16qcLnv5u+AP9SPdFkZudiRLG2LNpxjWDOK2iAmkpqWyDY4k+rynRKwWfGdNdkNY7G6Q3x/faU6ewa88+Y37dmQY6bINIYUyfR084v6AQWTnZJgApqalI8idZ3l6appW2PnKgezCEI41dOHCmE40d1PqgM0GjcE03XWipsWmxZrz4HVXKl4z28juRZjyFQpGRnGiMLp40GdPLKzBrRiXKppYiNyfLsoWuRn9RNXssfOZMd8FMfmxbd3O0dXTgRFU1jhw7bsmd5uZmdPX0IhjWTZJeJJDh/mQ/zX8qklNSYnG8z8bTMLW+tXcQtS296KXG242EZKgvEoCX8bSPzCfr4E/wICXRay/IyU7PoOnOQ2FRPkqLS+wu0eLJRchIT3fmuiWc1xmzXfjcmD4WHOtLs804uKurG43NLahrbLDnqepGjK7ubvT09tpdOLrtyr1zU6O5WKKcvEIm5QCUHEmiY5jsT0YqBUTTmXqGa3ZWNrU3G/n5ecjPyUFONq1IWopzPz0Ze70xdyK4hpjuePlGdiO+Mnu0AhQCPbtlYHDQbrHq6++3x5rohj49iUkLKVTbyeQlIDEpAX4yUc9H1aNBUpJTkCwLwd+udZCImAMXgy8TwwXXDNMFxvRh4ksIjD0xIbgccHAZiMH8GvYtCF8mhguuGNOdu1lJPPt2mPdFJKbjazh9cVt/vQnFFWO6nlihpxxrTE5n+CVzKpP7RQFjNP91j55u+NdQoOHhWs+jXwpcNtOlGc7kSi3e3rwZPd09WLp4IVYuW0ZP+PxPL7xWQJaqq6sH2z/diX0HD9GTn2S3HJWWFNvU7/UEl90bMV1O1v5Dh/DHje9g43ubLNumhMsXBST16kd9QyPefOdd/PGtt/H6xrdx8MhRE+jrDS6b6TJ9esWEwqw+mneZR9363E8v+4sCZrzJ+b5+5z59rffTW5VUhm85vo7gijBdFHO9YcuOczv28wsD1gu12/TeejTcp+sNLorpRpRxCUGSxTs7cZsTgYtrbBl77HIgHs+l4Tu7I5eCa+QcbY/8/rzgIjXdIcKVbHQ8riuF18XjFK1ucr7HHrtcuBg88dXi23AxOMaD8XCpnAtGPV1quK5tKKcd5vjcjboz9bYC5kxjI1rb2tHHkMZSnUlJVn1gcACHjh7HvgMHbSn05ElFWLZooT1HxYVRDbGGAT29/agnztN19Th95gxaW9vRS19ANZNscQVlMu68iUKnsZ3U7+7uXsN5orrGivL5eoiS+uRP8tukjXue8GpbbZH3rrFcef4F8+bac92UxXMvoXryWfSye9FAad+xoelIe5yl4ZpD0HtVDh4+zHLEXrLXQ/9HNE5K9NvK33g4X4go/O4VNG+h9LRopzZpEkurj73EORGeUbegGDIWTVFq6vO9LZtx4NBhMrrN3vutK2laUVOeevSVGLt65UqkpSTHMJwf1Eg9Euv9rR9i1959aG5uweDAEEMmvbfNiyTG97m52ZgzaybWELemN5VWPR8hRFyVeuLbvPUjfLJrNxobGiiQQ+Zo6nwJaUZGKmZWVmL92lsxn0xVLD6ShhkfRGCRWW3XO1Cfe/llCmodhWKeLXXWHLvbPpeGKm1UkE0fbcMH2z9mZNCA/r5+tjFsQqLVv3l5OZg3Z7a9guOG6dORankB4Rm/PS5eftizgY4er2Jft+Jo9Ql0UjmVI9Ek0r133mH9S0ocfYeRCxanGyKCvlrbO/DKxo148+330djSbN6riMmK7Jg6H8u08T+FGqPGrl19Cxqbm/CHl1+1fPiihfPxbx75U8yfO9tppCGXd9yPd7dswUuvb0Tt6dP0koPErU44TLE1c05Vm0MvzM/HHbfdim/cvQEFBfnDpBgRABGBn/xQ2PjRjk/wwquv43hVDQYoSNQzHpP3ba1WbZ7shZcaWkDBup94v//gN+0hPernJ7v34P/88p9Qe/IUMrMy8fB3v40H77sHyRQWTe7sOXAYv3n8CRyitorAur/8v//NX2P2DZVsk7RVLdcDq4ImdM+8+DIOHj1GBlGobYWu2kEw+rFFsQki9fP2Natw7x1fs7c+SPNH+uj0z/1WPkHPlXuOuN+ncMsqKTHmLOnWG6ESsY64/t1PHrHJpXg8LgzbFTFWZufv/vGXeOKZ53Gmvt7uwVac6s5mhfkpSdUjL7XMWDNe+w8dNEK8s3mLHXOuMfpCwi3T85snnsSvfvcYjp44YZMmNgVKnFrPri0RRXU10xIi4RrqG6xzesS4zPOwAMXAiMD6esCeBO4ff/1bS6wo9NJ7UdRO4dYbESJsUsglHomkR6Zt/+RTM9XnAp2iZ+Tu2reP/Xyc/T1s7zbXdYs4jGVmuO9lU1s01AXwIgXvv/3vv7Onb6mfOl94VM9u62J1UVRDjfWzoZH9fAW/ZD+PnagyyxQPbj+FQ8/Xf/QX/xPPv/pHu3M3MBS7QyfGl8REH3JysmztwUSQIIQqDU0t+NVv/xVbP95BbSXzJLUk2GRq2CKa8ell5fZ8MpmsA0eO4CBLb08fGx61MSXaEyNoHMONSSw6/uQLz1vCo6fHid9lOXIyszDPxs0ZyMzM5DjXi2PHj2P3vgPGDEm17ojdsn07EijBP/2Th1GQn2t4RTih1yspZZmee+U1tHFcUwt0PCcnB8uWLMaNs2chOzub9QbsIXxbtu9APYVJdbQ/JUXvbhsHhNxIEKWGH6LAPmOmXRor2kyZUoJHfvB9FBbkGjOFT+W1t9/CL3//GIYGncUcurEiMy0N8+fMw+IF81FYmMfhbNAEf+eePahjWzR0atZw07Ztpv0/+dHDKC8tlVHitUboebyqCv/lb/8HquvOIMEEzXngkx70f0PldLalADNpeZctWnDOIdcTCgWiWrT4u8efIvHeRh8Jr8anp6fZem7dRF9SXDxsckQLSe/+Q0c4tr2CHXR8ZOpckAldxM79Jc27CC5z//Ibb+Kp5/7A4UJZOo5nNJdrVizHd75xPyqnT7M8fawPpkXHyZwXXn2NPsWHRiBJuZ6P9m3W/9b99yE1RVJMR5OSrSdb/uaJp3CC54hBWgBxy/Jl+O63HrCb/zWt6oKGErVBDmcv+7l00WJMLZls4+hZ5j0zA9/71oMm7E+/8AL2ykklw8WDqWT4X/74EaxYtmTY3xDNJBT/6ec/R3tXj+3TfehLb7yR/fw6/Yd5jv8Q66i0WY7jW5s2442337WX76oNwvfw97/PYeVuZGWlm58j3HotyKO/+Fvs3nsgtnTceYLn1zfchTvW3sbt/JFhQUyKgXu9ePD97Gd//ahM14uvvY5mvf2Y9dOp0Y88/BDHuwfoGDgL+HWyU/T8l0R7reOcmTONSfLste5Nx1QkeXrvp56NVlV70kzviVoyhbjlXOjGgJ88/DCmlpaYZ+yc5zROXqeWLs2fPQcpdHaOV1cjEApiiMxXlFA2dYq9oEbVxcAXX38De0gIOVl6CP7ta1ZTUx7CDAqTM3c+uuOpdEKnV5Rhzg032MIKOd46LsLGe++JsUeLfrJnFw7Q69Yw56Nw6JGcet3myqVLbO2+NYT90is8/v5ffo2jR6ttnz85CetWr8K//+lfWFskjC4NBfrOpGLNmDadP7yooaC5Q0E/+7nwxnn2lA9pum7HfubFl/DWu5vM+mkuYOqUKYZbipnFfmifVhEJu3sd91pjwdtPB2jHzt1246E0RaHMXevXYcO6dTQReqaLc6vRWAS6iG7Qk+bdTM2SQzL2GooCZBp177puAdbhJRwqHiDT1SE3rDgbN8el7Czcc+fX6Il+DQkUFHX2FMf1nbv22sOIpRXH6L3Kgx0KBmyM1Hr0B+7dgJJJ0t6z26wGSBvsGBlonvLYOjFQGlnvn5HTFqZW6hwtqfrxDx/CyuVL7WZLgYRF5RAdth103nSLm8/jw1wK1Z/Rsy/Mzxu3LTpH4dWx6ipangMMMbvNSrKy9TfK+oabVk6riN7bshUhboc9EWRxWPwLKqUsTcJ4/TwPeBV3a3GixkaZjSk0d3fcfhtDGz2ndGKJ0T51pmRyEW6n957P8INttOKCxuOTJ086HeIBLVfasH49JtEsOStLz8bNPdzndCQ7O8PuAJ0pbSD09A+gmm1toVOokEUWRuEkKyMtORVrb7kF5VOn2jjn4o7H7+AeU/g3HsjrN4c1pggVU0vxQ3rzK5cttSVYw3jZLw0/H9LvsPkG7vYn+3DnbWtjFmn09UQH1VckIw//dxyaJFzy+PWUjkkcl++4dS1K9EIenUMaHzl2FK1USgm+pOqWm5Zhxc3Lh4XJLRcKxnRzmtgQ+ZR6d0hJcZFp8oWAkijTy6YynnbeBR4P3T1KYjDG5xAgKZaZq6Rp1Vh3ISCN11CxYN4cExJpt55h29LaigE6Pm0dneYAqbuaClUixXmo7oUT4Fyg3ojoZRyGvk8fYc2Km82ZjQddSuHi4WPHQVGDlydlUxOV2Bl7E4QYrmGoo6MLmz74CL994mlzWkOhiK26nV5ehoe/9x18be0aM/2yjZQ5VHOIVNhH1iI5MQlrV91iYeal9tPbS89ab25QgxJI5DJqShLjb8GFIFWd9PR0FE9y7sU2ELVYBqiZ/QN68H7UpHLKlGJjirZVzgXCq6LO6aXwieysQAsctFZOvoSFfQpXeK2CwgJahqyYj3BlmC48U0uK8e0H7sfqFSuM4ePhlta20frwoDFGkYgWXbp9EIgGct405fzme+/h8Wf/QA++2rQ3ieP/vNkzGQ18z/ISehOTYwmd86SYqqffGRy/S+lIurjHa8/5wGvPSDMuEYjAVrxcJCKNzQqpNDyIAURkRdtqtCRAjbPXTrHuxYDGXTmOEhJhUnsV3w7fikz8+pP10IMOrhTIrMvazZk1Cwvpecu5HZ8qjgVSW6yBrKTEkoq1jO2TFdV07an6M4xk3rAbOmvP1NlxCdKyJQvx8A++gxX0FfRcmhH6OwTVMnAnxcShg/xJlqU0ul4aeNU415TryQ1KuJipH7+H44LMt6TdsmvqNBlrS5FV7GFDEgCOY7HlVI4gXBjIa5Zm22IG4hbzHdwkrOXnpVsejqcD1H7HYl0R4LV0zSPHj1tiRkuwxSSH9PHAMJFhlpZbO7/IJI7PYrIJJIssqfL/zzOKeen1N6nt7Wy3l9Yg01bnPPTtB7F4/o1m1dS/0dob02b+S6mkM+ezkucDbzZNkZ4FJ8TimTJfgxw/zurbBCABaW/vtAkFaYfiSklvaorf1pvr5gFpt8yT8tXKnjlacf4L6BwldhQ3S7AoOhZRZKSlm7Qr5BLBBY2NTWhtbbtooZoIRA/hqWKo+fwrr9tjzju6umO+Tzx+OpFsk26DitgTLrTsqsvCP9VVDuQAI4CnX3gRb7zzrr2tQS/RUzh757rb8IMHv4m5DH3lG50XYpe93N55C/LzoeLGtPsOHcYphlimWedBrw72UcM0w1ZVU0uGO7lf5cn1oPksCpQSCDJJIo4cEjk8mgQRQx3NGR/ENzFa5+w/eMh2yILk5+Yy3MuFHqQrP0LPrBGappYWS8F2xhhzJRgv0BNG9HoTJYs2W667h/hjB2OgoUX3vOmWZV1VjP3o40/paHbh41178PhzL2DzR9vRx34r768I6b4778CD99yLaXTe7DYtWaxRGn71wKt4WPdupWkRI+3HaTJ847ub7N0hYrzMsgjoEtHdVt5cS6OO0RnZsnUbOmn+BEryT6M3L4dNFuSGymnIJZNkgsWQt9/fjKNV1ZbMiccbDyKqkhRn6htsgqauQQ8MhFmO8rJSSxgplp1eUTGcLVRbFDYpc+a+vsrF7W67RUJxPsFQ5CCLleSnr8J61dR4TeZs2bYDXT2uxjsWQX6H7lUv1kt3iFLh13ubPrD8+BPPPodPd++2fUkcShW9aBJHTFfEITMf37ZzwbmPXjj4fv7zRx/VlKMyX61tHTSPQTQ2NdmL9qRVmlBwnS9XENU4mS1p+Euv/xE79+61/LFMlPLLumFfaVONPXLeTtNp0dufdLeKPNGe3h6zBDnZzm2/wjss5eyZcGkW7pU33mJos5XXGjJLVDmtAnevX2dZOQ0jSpAoTq8+WYuhwYDNobe1d1jqVTNgNkayngtqt/wODRnyQRQmuWOojsVn5FJSk23qVTNgCmlldSS0mk2U8CkGd9LHTruVtu7u6TNTzvEL3bzGiZpqm0zRcKbhSNPF37z3HssnyLuXN9/d02PxvZxh+Snx2i4mSw4+oDBrmFHbszmk3UOB0ZBihLsEsEUUmRx3leyQNGuGSo6HxnYtEgyFgzGvOEpHKWST/1qcsP2TnXjtzbfxCaVYcaoaWz61FPfddScWzJ1rTBLBlchQh2o5nmtMDBGHiFvf1IhBxthu+lBjsTJtTc2tjF334dWNb5s57aEPIL6J+Hetux2rViw3QZLlUEpXueo6tkfnKQZWSCQh03nmVZNqsioaUprZHw0V737wgd0pS92yO1Ul1GOZnkqma8p49c0rTEha2lqN8XpZkaY2MzisKBWtyEJ9F47C/AIqz0laySbDrddrChR+lUwuxp0UWA0Dyh7qJUmf7tmDTR9uxe69+43GevOi3prswtVieoIarDFp9cqbbf584zvvW/JA8fsH27bjWE0VKkqnIi+HWskO6r6yVhL2FJnY3CJCOynKEpoqMUULK4YnOdgmX4LXOqpU4vO9fbbMWJ7tvv0H2XESmWOfZp50z5nmhTs6Ok2oNPukehIIaYUSErexZKQzhtUfcavt06eVWwZRK3zkV4Q47FTXnDQP+ePd++hT5DEMSiNTfOZgneE1G5rlZDH+ZWw9lyGZhiQReDSQLkl+avts+JPpZPF6O3fvscyl/IxnX3rFwrI19L713HsxR3e9PvStb2KAinPkxAnDKbboWyuCdlLQNByGqUjm7JEWWr+goULOs+YiUkuKdfGrCqbparA0UjlrNVHv/Hbmu52lPhrn1dFjVVUWepwhU0yTOKxJECo5tmoSRZP3Gm/FqHgzJW1U6lVhTRMFS+fK5Gklid4kWFN7CseIV/ir6am3dXZa0kVe7uSiImz42jrcc8d6jt9jc+oeI7ysQArH35b2VnTSFGuCQgLTTO1U22uoJdUUiJpTp8xUB4acDKHy4qtXrrC+y3dRv6Xp7d1dZrrnz52D+XNmWdulxdJyvUJclqOjq9MswhIOZ3rujNqiZhXFHGMdV8JG1kdcVygs7dbESjX7K4FXJBPUcVZQNm7h/Hnm/LogYTFN37aNAn3SaCbHVYst9DK+eBpfDAyvkRMxlVkrLSmxRsuUdff1mImSmZS3La12VoBEzJHSGrhVN92Eb5DhK29aZsuGhMd6HwM1TEXetphWVFhk0t/NcV3m3XGqnJf52mINXkdamZOVhSWLFuD+ezfgtjW3xDJ+yuSNMNzttCyVTK0ERGZS47XjzIngMcdNpp7XESgBoskZEU+P8ZRfIWinldm1/4A9FkWvKllOqzWTTq6ENp99K2R/xehmRgqKxWWKb1u1Cjm0FK6gq+1FbIdm47LoD+llulKgoB5gyOsruWQJJpp4DXtFFDwlZe64fS0q6AA7S5ycfmnIUYt30yoeOXbMaC/n7x62+3LSsKOWSwlMA0mwOpoezQAdP15liw60wEE0E4HUyTJ26obpldTychQyRBPhz9UIdtekdmiQjmJzszmOMnWn6bB10huWU6OQR2nGspIp9kKbGZXTzSO295zEcI+9htt2fctDlh+iaVzNwJ2kZstqyEdRu6UlmneuKC+3qGJaWZndeiWcOr+1vZPj/YfmbWvO/C4OG9JA+R0iv/AfrarBW+++j1OnTmLJ4kW4f8MGc0rjm6UmaWaukxajlr6R+lrFiEURUd8AnTbiy6JQi4azZ8wgHaeZArnJGRfUJuHate8Ann3xJVrIHqxbuwZf33CHOaGXxfTY9gjoYvyS8yNPe4ANDQQUvjk5dDXOEjDUGHns8Q09NwirCKwbBYfoNwzQeeuzKUZpojqhh+emMdyTNso3cDT7wjvnMr+PTmGv2h4YdKZGOVTIZGsOXOGkFjRIK+NBplgmV9k3Hc8mY5R3sKsbgaMYCoYtQuinEsjXkGnXEHMWsI/KoEk7Zdo1pGkeQqGl3gUrQVZqV22RwliUMUE35UfIeVRUo9lMCa9ofmlMB/4/Ns1fzrNNQswAAAAASUVORK5CYII=;" vertex="1" parent="1">
          <mxGeometry x="541.97" y="337.42" width="36.06" height="30" as="geometry" />
        </mxCell>
        <mxCell id="SYkxdP-PGaikRAJM0KuG-8" value="&lt;p style=&quot;line-height: 1.2;&quot;&gt;&lt;/p&gt;&lt;span style=&quot;font-family: monospace; text-align: start; font-size: 11px;&quot;&gt;&lt;font color=&quot;#080808&quot; style=&quot;font-size: 11px;&quot;&gt;Container&lt;br&gt;&lt;/font&gt;&lt;/span&gt;" style="rounded=0;whiteSpace=wrap;html=1;verticalAlign=top;imageVerticalAlign=top;" vertex="1" parent="1">
          <mxGeometry x="495" y="387" width="130" height="70" as="geometry" />
        </mxCell>
        <mxCell id="SYkxdP-PGaikRAJM0KuG-9" value="" style="shape=image;verticalLabelPosition=bottom;labelBackgroundColor=default;verticalAlign=top;aspect=fixed;imageAspect=0;image=data:image/png,iVBORw0KGgoAAAANSUhEUgAAAH0AAABoCAYAAADcm/8NAAAAAXNSR0IArs4c6QAAAARnQU1BAACxjwv8YQUAAAAJcEhZcwAADsMAAA7DAcdvqGQAADSMSURBVHhe7X1ndBxXlt7X3QAaOQcSIAiABMUoZlIiRVKUyJFEhdFoNFmjndXs7M7a/uHj4x8+Pmd3VmOfY8/axz5eH+/uzO5O0iprlKWRqEhSokhKYs4BgSSInDM6+vtudQENEGCmRFG6wOuurnp1672b3r33varyRKPhKL6CLxV4Y99fwZcIrmumR6PR4fIVjMBXmh4DycWXRTau0zFd2g00t7bidN0ZhCOSbu7wxA6PARFAxZ+UhCmTJyEvNxcezwSVrwO4rpm+8d1NeOK5ZzEwFDSuOnxUd+MZ6mzzDEwqLMJ37r8Pq1feZPuuV8Zfl+bdTDX/evr6cPpMPRp8qWidVInWIpUb4soMZ19+ORqjyWhoakZvf18My/UL1+mY7jH9laJ64UNy5QLkrP46slbdx3JPXLkX2avvReaKu+CvmOVQ4/pU7lFwfTLdHbDMklMAEvzwJafBl5IGL7+9yalxhfu1L9EfY/j1z/Xr33snD102aoweW5wDsfIlYLjg+mf6GJiQ8V8i+NIx/Sv4iulfSrhOme7E4rLcX6Vgz4bPnelubjwUCqGvb+C8pXd4uz9WRh+3MuB8B4LBGNN5jUj4nIUfToOGXf+rD27fP2v43DNybsdP1dXjlTfeNNpHPeM3aexeD/dQn2O/4kAVieNYVQ327tuHxIVrkTJ9nk4YA6oYRSQ4hMGqg8hrP4WfPPQ93LXudjt6tZy8SERCHkZLW6sJe0F+HpKTkuDxej8Tx/IaYDqJEA3j41178R/+6meIsuPwp8WOjgaHlxSSYIDfIXj8qYzBE52D8cCKrAUvv8P9XfD604Gk1HGY7tRTI6JD/SjJTsNPfvgQNqy/ekyXgIfCYdScOo3nXnoFre3tuPfOO7B0wY3ISEuDx0fGj9fQKwiff+6dV4/wT0z/j3/1KKJTpsM3Y5EoHqsQAzFG3+EQwnXH4e3rRtqcZUjIn2SHR4HxkRrc342eTS8hWjoTCSXTzsYZg2goiPDpE5jc30Kmfw8b1t1m+68W05up4X94+TW8/Oa76BsKYEZpMR64ZwNWrViO7MxMeK+yxl8Tjpwr2V5+eTJzkFhcgcTJ5aPL8L4yeDNz4U1Nh39SOVLLZp1dymchrWI2kqdUwpuYBG9WLs8bB6fKJO4vLIMnI9vR+qsMQZrzg4eP4oOPP8VgRiGSZy1FVfcgnqTWb9q6DV3dPRziIiYcVwuuCaa73bPv8/ZVIiIhuVBNIMKrR7+LAjGyvaMTu/YdQEPXAFJmLET64vVIvXE1GgajeOmPb2DHzp3o7R+wuleL8dcO010enqOfHjZX5cIZfhFwFVDGg6xIhBrc0NiMIyeqgawCWplyeJPTkTLtRqTOW4narkG8/MZbOHL8RFzkceXhmmD6lwEkU/LUm5qb0dTeCV/uJPjSs7mXEUiSH/7yeUiuXIwjp5vwzubNaGlt+4rpX3zwIBAIMkxrQ28gjISMPHgTGKbpj7z1MrpInr4AoH+x7dM92HfwMIYCgdi5VxauHaZfHaG+piDAULOzqwthjw++1Ex66C75aQf4n5CRi5Tp89ER8uLDHTts/L8a2n7Vme46JOdqvJIsAn1ez7wPBkPoH+hH1OejSU9ClIxWGQaGaYoyfEVTceB4FU7W1VlMf6XhqsXpYrLM2YmaGjS1cHyiEzMcesauqN8Oo6M4Xl2L3z/1LDyVC5A4b7mZvbFgcsM4PVR9EJ7edmQsWoOkolIdsePDoJ88PdTdga4/PoZw+RwkVcx1LugcGgbDGRxCoOYgshtOYP2aW7Bw3rxxrh4D2mKdUjJpEqaVM+RLTBzp13mgobERv3nyGby55xgyV96HpEnKHTjtcXrgKEf/4R0Y2Pk2fvKtr+PB++5FamrqcBinbJ7A5yOFeOHx4vnzxfhXjenyVDu7evDk8y9g28efUGIjjMPZGIn2SC/tJ7uDwcFBtDS1IKoYPCcPHgXt8cD6xqAoa/d0kqMBJOQWwZuS7hyMB/3ktaLBQQRPn0AkIwcJdJpcrRqmSQyn5d97upDQ14Xs7EykpzoZQcsGj2mGTgqz/vpbV+O7D3wDmRnp5yWyC03NLfj908/htU8OIH3FvfAXV3IvHbm483XJQGMNOt5/BrfOqcT9d99F2gyhvb3D1u8pfav6KclJyM7JRlF+PiZTAHOyMmMCOL4gxMPV03QyvZVe6v/79W/xzo5PESmcCm9qlh1Tm4yBBo7mQISvPkCvthDJ5bPGITaBFaOREIJNpxDsbAXypxBn5shBF7TJi0SHBhGp2Y/EKZXwF9IiuDjjcQsnrUew6TQCrY3wFpcNp4FlbcY2I9LbhVDdCTywfg1++qc/Qk521nmJ7EJ7RweeeuElPPPuR0hddhdSKpz5gPirqOmh7jZ0vfMk0oe6MLkwj0PCIPqHQqD/Zwqi2l5KZKo/AdlpaZhUVIiZldOxdNECVEydCr/fb7gmatfVS8OSq8b0f/kN3tl3FJ4bV8KXV2KHPDET6YKaFqWnOrj5eRJiFrJvuVd77Fg8aE+UGt63bxv6Th5Dwswl8OVPjh2JA1NpjzEouOV5pC1fj4w5y50LnQWsFxhA38Ed6Ks6iMSFq+GlZ+0cORtCLWcQ2PkevrlqOf78R39CpsshG5+4Y6G3rw+vbnwL//KHV+CdvQppc1fA40s46zrhvm5q+lMItjUCakt2AXwpFO6kFNb3mZmPhoaAgT5EetqR0NOCLG8EFaXFWLVsGVatvMkEwUtHcby2XV1Hzr2eLp6UPLwY0TNqYSKLJk78KTbZ4mEY40tNZ8k4u9CU+5LTnUWMIpZw8jydP14RTnVRcfC4+KwQJ/EKp8frY+hEfLF2qZ1nFV5T/RlfJM4NSXTeigoKkZ2ShFBXK4VtaBQWY6bkNyERvmkLkbj0biQuXo+k2SuQSF8noXw2EqbMRELpLCQyrk+auRT++WvgWXA7OgoqsftINd7Z8gFOnqo7Sw/i4RoJ2dh1G0Cvb/BRqCYXFqKUJdRWTzPezL3OPL4Y7gB9BtLDW0Qvnp58QnahCaUnkQLu45hNYfeqSEgZ23vTc+AtKIEnOx9e+kG6O2dKSbFp+EQW6Nph+pcAxIQiMnzunNlIGuhG8EyVaXu8VoZCQUvKRGXJNM08FkQqI5dOckqUUUq45gAKM9OwZuUKmvaiCRkuuEaY/uUAaWJWZgaWLLgRN5QUYJCMGmyoQSQaMk1XVBCgEITpWJ4LHKtAppKx4d5OBA9vR3pfK1bfvBwrli1FYoLv82G6K4fjwoiQWhnt1l0CjME3FoYt54XAWFxjyyg4a8dZ4IzTI0WML5k8GbNnzkRidysGDm5DqLWeEUQEQwxbg0HddxeHN3ZdY7Ttl/dOXIyOQq11GPz0LfhbarBq+VJ88757GEKOvwAlHi6Z6fEdmQgcWXNbzV/DVXUkvvDTPWY/nX0XB6PxGRCnfl18J+NxjVfOD/H0EYOUt+jq7sX2T3fhn//1Cby9aTMG2UCLFBJTMBQcIsNp1o2ezjWc83lu1MnK2aoianCktxuBQx9h6KOXkdZZhztvvQU//uH3MVke+3hDwhi4dE2PdeiCQebGTI4uObbEr3ZzkrKOPI8uOubW5cfw74lwOmV8XOMVB/d4uOKLgzPWgAlBtBkcCqClrR27DhzEY08/i//88/+Kn/3if+L197egMzkXmaseRObS9Qgz0ggODZlwcFCn1gctHwGVcAA0AQh1NiNQsw/9H72GgXcfQ2T/ZkzLTcO/feRH+Okjj6CY47jL8HOZdsElx+n9jBF37z+Eo8erR18kJgj6HBgYwMef7sSJ1i5Ey+dSqpUVo7BYjREwLWcHwwc+QnJBOZLnLI7tPBuUSBmqPYqh5gZ4S6bBk5Fl+OJrO+wjDPYjfHAr/DMWIblspvaMCxFqWJBx/2BTHTzlc+BNSUNkArpFu9oQqtqHeaVTsGzhAqQkO4kQtSCq1An73zcwhO6uHjQ1NaC+qRmtHR3oJ1N9KRnwT56OlBkLLBsn73soFECAx2QJIn2d1ODtCHc2WlQYZSM8FABPoB+sZOv4EhMTMLWkFLffugp33bbWnDYNGQ4LJvbY4+GSmd7U2op/+PXv8Obb7zG29hETL2bar6P84E81QH+y7N6YeTeN4v8wOFVtQ1omc2btPkerorGkAw2dyYYFPfE4BcLLg0pVK/0b4cbYKsNgB/QRd+GJKisNrIuyP1bTOuycoxbZiQnsB8MzXwLDLKWAc4uQNKkc/qIy+DJzbTFnhOdJu4eUNZSGE4InD1GDNyHHE0JycrKFeIn+ZKSlpqKgIBfTKsoxb9YNqCyfhsysDPiMDnaqwYUwXHDJTK9vbML/+odf4cODVfDNWgJvaoYRwufzWRLClvOynpA7K17ODY7+kzH8ElMnAgePajuYHUJPBBJC4iQxzsFyB6yeI3jnxuh86m9sPU2V6riPTLW4WkkfWg2PYmoPPWoekzUQk4PU3CHXpBMiZH5g93vI7anHX/zwO1g0f57RMYG4kpISkeL3E28CEbC+03Xnw/7HtuTccElMl3DX1dfjF//377Gzvhv+mzfAl5ZjnU5ITERySipNDrVfhLlA6btewPFzaIGMEaP7riNicpBxuDRcIZoDDNcaqhDeswmrZlfgLx/5E5SVlprZvhowrkqp4Sqayw2GwmYarS9xEGbjA3Q6TCn1wfZFPZoOUFFnJMEa48JXrcirjWiiRmXMsUsvavPFt1vtsLaYJhoxRKZhMJqKZsMm3ZktM52g5x5uqkWaN4jlSxfbzQ/j6YpwiBehYNjo7/LpYmFiO0ro6enB8ZpqNpIepCF3L8Bv/rvtssWK7pjtVtPxqEyljvG3xlTWcUz95Rdd1UOckb5uhPu1bFjmdvy6F1pAIddkR6S/N9aHC2+vJjfcYtYtjmlijBIug3R+h4YGHA13ucrrhDqaEGHMPWtaGebMvAEpKckOjlGgBsmBHsSR6io6yQz4LoHhggmZHg5HUFVdi1/99nf46JNPzAPVogiNR7qYGqUQwZE2abXTAPtNBqjTNn4FBhBsPYOh+moyp9uk3TmHxc64cOApdo5pFokXaDmD3r1b0LN3MwLNJ3mtfh5zxsgLBbVC+ML09AfZxp5d76GPUUSoo9HablaEf3K87NrOaecFp66dSYsZwGBHKwbqTiDU1UIuKyRzMKkf4foqZISHcPPixbY4I57h6rNorvG/sakF72/5EP/8+9+bTxW5yL664Hv00b95NLZtoKYEydwzDY14+c2NeP/DbdjL0Kyvt48NoBesVhD6+wfxye69ONPZC19JJTTbZcIgs0UiYqgPQRJu4PRh9O/fiqETe+yeMY83kZ4tOyVHzzRC2qROjnR0jJrwn4Ki+JVMCDOs0ZTj0Kkj6D+4DUM1+xForGWY02L1IIfJCrHasBOP1wXhZD8YDkWofWLwYO1B9DH2DdCD1vRpiPgiipHNfLMu/2PNJQj3eHjj9klYyNxgbw8GGmrRf/RjhA7vQLij2Y4Jr/oWbjuDaO1+zC8rxob16zB5UqGdLqXTmrrunl4yuxkHDh/Dq2++jedeetkenpSamoKS4slITU6h8+zqrngzXrtGgyccDlqfQiRqP+Pq9s4u1NSexIfbduCDHTugO0NlEHzEpcmCG6ZXoLxsqoUU72/diiONnUiYfZOzmIFE1PjkC/Kc3naE2psQ7mols4acq9HJS8yZjESGLgl5k+BLzbLpTy9Dm+GwT22mFkRpahWTa4WMNDhM5oR7OsmMJsMbIX5dS900huhEOpAJecVIKixDYnYhw6UseDUVat4zCcN6prkhxsUaV3s7zLQGm04i2N7AOHiAiGIEJFE8DJd8mflIyCmCT3Pa6TmMtemNa0qXbSa1SZqYcMXOiZDRanOYMXWI7Q201iPUWGN0UMwtoYwmsT0M5bzEDQ4lvq4G3HrzMqxZsQLpaWk2Xislq7td9MSrmppas7rN7e3D2p2dlYbbVq3GiuXLMbV0CnKyM8zDT6CH77ZnfMHk/kBgMNpDLdY6a3nkx6pqcfjYUbS1dThjjyQiJj0yVtrysrMJZFJHVxeaOzmepucimuAns4LwsNMemzCImZ7h62pD5zvhkxYG2g2ILD4WMCzxetRgKYLDcC2siAbIHJltJSdITNMQg2HEFuaNAiGRMKWm2xy4zZH7EnV5wyGzHRnso5Zz7NY1xGAdjIHck3icsnCSek+i2kxcmtIkzqgIrEWOYr7qq90htlfWg0VCpJstvcQ/qolsn4eM9QQHkUDnNzcnhwpVYAwXw9SeAJmu8XuIVjdMvA7/9OHiiiDBl4BJkydh9gzG7tPK7cGHBXl5SEtT9ET/IpahGwvG9A5qt9Zjd5GJuohMuF3jHKDpv5179+H19z9AMKcEUWqwCwrXvGSi7sB0GupgM8kTAYyi2hapHYI7e/Tndss5xxETZ+tiwBhnG+55/GWbEkYdjFVQRYOJ8DvHremqw/+RFjm4LLdgv/kZCVH2SUM9plKg6zscGwHu8/Z1wdt6ChUFWfjarWtQVsYQLVZP+B0aOL8c7GPB2Sf66LxkarmWbonpWVmZli+ZUNPpxJh5n+D4hKCFjJu3bscv/uGf0J01BZ6y+UQSMytkekKKn4ynJpiv6CIffRFrtj5iauUePUvkrI7+nXrjQfwR52zn090/ci63uHkWH2LH3d3x+ATjip4hGtk2ZrOEqRATA8+hpfE0HEd2XwO+vm4tvn3/fSgqoKknTMSoCwU1Sdc4Fx7j0qVcx0fzXlCQhzyOJZ5Bmngzvc4xeegy0WrBCJHOvoj26NoiqENUp4xsxQo/9D1m76gS/+fsc2DkV9zWyOFhGH2u+2vkzwW3hvXNLexrmN51mIpgDB/p9BjgAU2m0C9J5Dg+v7Icq1fchLzcnNjxywej1XkYOr7RvwDwcbxQY8vpRHjpqWOgO0YNgUMIx8RNSIGLAAeHPocLP5y9nyOoDcEQGU5mk+kROsMG49HcGkx6MPrwttaiLDcD69asxoxpFWaKBZer5RcKl8x0NTArIwOzZsxAkp4K0dfhdCwGkZCcGk0PXj5rTJvk+HA7McGDpASFezpghz8TGNZqhY8K4+hohrXKxbSb2ivLdi7QuQM98LTUojAhhNtuWYFlixchhVGQuvJZMVxwGUz32uzPzOnTUJhFL7m3jVKv8E6ccKQ6TC1wZ5AuFxITPajI9WPlpGSsKU3DnOIsJCc5GvJZgSt8Nm4PKuyLaTf3mxROwDgdjgY5jrfUIKO/FTcvnG83S+TSUsrD/iwZLrhkpgsUE5YWF2M2Y3dvbyfAuDceLNaWFpBQJFds78WDvNOitCSUhtvRvf8jFA60Yu20XJTnpZBgl4f7fCDNVmws7bZHnwwFEBpkHE7Gq1+s4VQcC2YVYtsMzdB6EqkcxxfOqsR9d34NU4ons1+XRf5Lhsu7KgU0Lzcbi268EVnURA8dFDAudcIgFnY6zLhdxU07XjxE6TR6kOGLYKj+JA7t3IntWzaj/tA+ZHoVq+paV4fpwyadzI7QQQvRlGv1qiWNdE3rpj7GAe63I0rWtJ2Ev6Uas0qL8c177rYhMVHTpJ8TXBbT1anUlGTMnTMT82ZOh6+nBdGeVudgDLTgT6bQCGeJlfMzaGTsVGEoRIWKUCsSOf6FGQfXn6lDS0srGGzyGPFdAZ4PM3j4urRSETqjMVNu5lzCyzrnB4ZMqhchw6nhSc0nMGNyvr1AYNH8G+H3f3aPDxsPLnkRhQsiUG9fPza+txm/fvo5tCRmITplHjxJaY5UqPOSekq2LznJWahvc+3jd9gaI6K7v8xBiiI/KwXzsrxI7Wyw34O5xTjY5UFT15Ap23Aq9BLBZTo5ZX2SExqhTxKVQ3pBjI5BrG40HECUXnpSw1FMK8jFj777Hay6ebndgfo58XoYrgDTpW0RnKw7g8fI9Le27UKweCYihRWU5tEmTOlKX7IfvtjdlU4SRpfntxGdZpPaZGlSRQPdbfB0d8CTmoWEGQuRkZ6KLD8FhtW7hyLoGWR8zOYL18VqjZPDds6z/JccNPkexmxqNJk9LHwXgjtGRWKyVDQajyOxuQrTisjw730HK5cvo+NLH2SC1OhnCZfNdIEYH+CYt33nbvz28WdxuLENobxi54F90moW00SZNBWGXEYlEtVD86/cuidEjR2g9z/Yh+hgP7zUFC3aDyenI1RYDt/UOfAm+C3vb9fUpIxtmQxcNAxrr4RNQ4+EjcyOGDkuhSQSIgp5gO2vO4wkmvUbphbjz374A4ZmC2wy5IKE5zOAK8N0/klLent68eY77+Px51+0GSGTanbUpa+442RcY04OP+SZJyYkItHvRUpqGrJzclBYUIjS0hLkTJqE/V3AR3W9znRslMJDN+RCaecyVvW16VoD2y9hkzeuteaKMqT52q9TLvQCBjpH/eT439cJ38n9SOhuxuLZM/Hnf/owZt0wA37NQ1wUzqsLV4TpAhFSpYkO1pMvvIQ33n0XU8rLMHvOHCQlJtGDlyMnbeBFKQyaIdKCv8yMDGRkZCI9Ix3JdApTklNtnZ3miEOsf6y1D49/WovWLsa5IhxLTGTOC47jSGui8yJeM+GyLiExmuO1mGwCoHKpTBH15PS1n0HCqUNICnThttW34McP/YBh2SRn8kkCew3BFWO6C5oLPnm6Do899Sw+2bcPy1auwPIVNyE1LS1OifhhhNZvj6V0/f5k+MVsGwrsgNXvZlz81pEmvHOwnt56jIETMd3dbT3ih/61nl5et4SO2i2ttlWvDCuHhcdp1EWAhEfazQsMURjPHIan8Riy0lLx8Le/jfs33Im0tORY4uXz89IngivOdFFaU7PHjlfjt08+hT0HD2PJTctw0+qVyMjKiE0fmuvkED1GD8mANEKE8nlp7ikASv6IIac6+/H87lOoauyx3y645ttADJbGqchcyykzx8yxLnYBgXt6fK8viik80XDTUnQ0wHvmKJIGuzC7sgJ//vAPsWThApuMiocvAdMd0MT/8eoa/Oszf8Ane/di5tzZWLV2DfKLCoYnGMaCmCgCmRbGCKVvmflDDT14fV8d2nsCDuOMyWq6tFZf0j6dEeuOjvPvckO5ERBCFlqMaG8bvE30zjsbGUpm4u471uP+ezagMC/Xan4eqdWLgavGdDFENKo9dRpPv/gSPti+AzkF+Vh16xpUVE6zFZ+20CGOOC7TXdD57s/+QBif1nZg0+FGdA/E7um2YyP1nZ2C+H2XC+xHhEOCllkpzazYu6sJmXQ8F86Zh2/dfzdunD3HLFP82P2lZLrAYXwULW0deO3Nt7DxvffQx9BuweKFWLBkEXLyc41YF0agKJkdxMc1Hdh2ooXbWuYUO3TFgYiFXMvF5PT1MRKho5bc04rMRGDmjOm447a1uGnJYrvf3A0jr2VGx8NVZbrAZbzWe33MOP7VjRtx9EQVMnPzsGjZYkyfWUnCZdNjJ+FItPPRTQmZT0+24+PqFrR3D5njaHC5BBeTbYiQTxCAZ7CfF2uFj1rtD/YhJ8WP6RVTbfHiTUuWoCA/x5kw4XXdZU5fFLjqTBc4jFfGK4ozjc3YtOUDbN66DY2trcifVIjZc+eirKIcmTmZ8NPsOys6xyOk49EPBEI42NCNHVUtaGjvR4DO2sSd0JEJmGJMZpHjp5U/Q2T0QBe8HLP9/E5n7J2fl0XNnmGMnj9nti0cSfiCafZY+EyYLrDkh33TYjJGlpO3+YOt9O4P2iuvk1JTUMq4fipLfkEB4/YM+JMlAFp5SyGgc+Rqs3CFKEAn2wax62Qrqpq60dUfsAcUxjNYW7rVyvhumuwIny1FVtFjuQa16qcLnv5u+AP9SPdFkZudiRLG2LNpxjWDOK2iAmkpqWyDY4k+rynRKwWfGdNdkNY7G6Q3x/faU6ewa88+Y37dmQY6bINIYUyfR084v6AQWTnZJgApqalI8idZ3l6appW2PnKgezCEI41dOHCmE40d1PqgM0GjcE03XWipsWmxZrz4HVXKl4z28juRZjyFQpGRnGiMLp40GdPLKzBrRiXKppYiNyfLsoWuRn9RNXssfOZMd8FMfmxbd3O0dXTgRFU1jhw7bsmd5uZmdPX0IhjWTZJeJJDh/mQ/zX8qklNSYnG8z8bTMLW+tXcQtS296KXG242EZKgvEoCX8bSPzCfr4E/wICXRay/IyU7PoOnOQ2FRPkqLS+wu0eLJRchIT3fmuiWc1xmzXfjcmD4WHOtLs804uKurG43NLahrbLDnqepGjK7ubvT09tpdOLrtyr1zU6O5WKKcvEIm5QCUHEmiY5jsT0YqBUTTmXqGa3ZWNrU3G/n5ecjPyUFONq1IWopzPz0Ze70xdyK4hpjuePlGdiO+Mnu0AhQCPbtlYHDQbrHq6++3x5rohj49iUkLKVTbyeQlIDEpAX4yUc9H1aNBUpJTkCwLwd+udZCImAMXgy8TwwXXDNMFxvRh4ksIjD0xIbgccHAZiMH8GvYtCF8mhguuGNOdu1lJPPt2mPdFJKbjazh9cVt/vQnFFWO6nlihpxxrTE5n+CVzKpP7RQFjNP91j55u+NdQoOHhWs+jXwpcNtOlGc7kSi3e3rwZPd09WLp4IVYuW0ZP+PxPL7xWQJaqq6sH2z/diX0HD9GTn2S3HJWWFNvU7/UEl90bMV1O1v5Dh/DHje9g43ubLNumhMsXBST16kd9QyPefOdd/PGtt/H6xrdx8MhRE+jrDS6b6TJ9esWEwqw+mneZR9363E8v+4sCZrzJ+b5+5z59rffTW5VUhm85vo7gijBdFHO9YcuOczv28wsD1gu12/TeejTcp+sNLorpRpRxCUGSxTs7cZsTgYtrbBl77HIgHs+l4Tu7I5eCa+QcbY/8/rzgIjXdIcKVbHQ8riuF18XjFK1ucr7HHrtcuBg88dXi23AxOMaD8XCpnAtGPV1quK5tKKcd5vjcjboz9bYC5kxjI1rb2tHHkMZSnUlJVn1gcACHjh7HvgMHbSn05ElFWLZooT1HxYVRDbGGAT29/agnztN19Th95gxaW9vRS19ANZNscQVlMu68iUKnsZ3U7+7uXsN5orrGivL5eoiS+uRP8tukjXue8GpbbZH3rrFcef4F8+bac92UxXMvoXryWfSye9FAad+xoelIe5yl4ZpD0HtVDh4+zHLEXrLXQ/9HNE5K9NvK33g4X4go/O4VNG+h9LRopzZpEkurj73EORGeUbegGDIWTVFq6vO9LZtx4NBhMrrN3vutK2laUVOeevSVGLt65UqkpSTHMJwf1Eg9Euv9rR9i1959aG5uweDAEEMmvbfNiyTG97m52ZgzaybWELemN5VWPR8hRFyVeuLbvPUjfLJrNxobGiiQQ+Zo6nwJaUZGKmZWVmL92lsxn0xVLD6ShhkfRGCRWW3XO1Cfe/llCmodhWKeLXXWHLvbPpeGKm1UkE0fbcMH2z9mZNCA/r5+tjFsQqLVv3l5OZg3Z7a9guOG6dORankB4Rm/PS5eftizgY4er2Jft+Jo9Ql0UjmVI9Ek0r133mH9S0ocfYeRCxanGyKCvlrbO/DKxo148+330djSbN6riMmK7Jg6H8u08T+FGqPGrl19Cxqbm/CHl1+1fPiihfPxbx75U8yfO9tppCGXd9yPd7dswUuvb0Tt6dP0koPErU44TLE1c05Vm0MvzM/HHbfdim/cvQEFBfnDpBgRABGBn/xQ2PjRjk/wwquv43hVDQYoSNQzHpP3ba1WbZ7shZcaWkDBup94v//gN+0hPernJ7v34P/88p9Qe/IUMrMy8fB3v40H77sHyRQWTe7sOXAYv3n8CRyitorAur/8v//NX2P2DZVsk7RVLdcDq4ImdM+8+DIOHj1GBlGobYWu2kEw+rFFsQki9fP2Natw7x1fs7c+SPNH+uj0z/1WPkHPlXuOuN+ncMsqKTHmLOnWG6ESsY64/t1PHrHJpXg8LgzbFTFWZufv/vGXeOKZ53Gmvt7uwVac6s5mhfkpSdUjL7XMWDNe+w8dNEK8s3mLHXOuMfpCwi3T85snnsSvfvcYjp44YZMmNgVKnFrPri0RRXU10xIi4RrqG6xzesS4zPOwAMXAiMD6esCeBO4ff/1bS6wo9NJ7UdRO4dYbESJsUsglHomkR6Zt/+RTM9XnAp2iZ+Tu2reP/Xyc/T1s7zbXdYs4jGVmuO9lU1s01AXwIgXvv/3vv7Onb6mfOl94VM9u62J1UVRDjfWzoZH9fAW/ZD+PnagyyxQPbj+FQ8/Xf/QX/xPPv/pHu3M3MBS7QyfGl8REH3JysmztwUSQIIQqDU0t+NVv/xVbP95BbSXzJLUk2GRq2CKa8ell5fZ8MpmsA0eO4CBLb08fGx61MSXaEyNoHMONSSw6/uQLz1vCo6fHid9lOXIyszDPxs0ZyMzM5DjXi2PHj2P3vgPGDEm17ojdsn07EijBP/2Th1GQn2t4RTih1yspZZmee+U1tHFcUwt0PCcnB8uWLMaNs2chOzub9QbsIXxbtu9APYVJdbQ/JUXvbhsHhNxIEKWGH6LAPmOmXRor2kyZUoJHfvB9FBbkGjOFT+W1t9/CL3//GIYGncUcurEiMy0N8+fMw+IF81FYmMfhbNAEf+eePahjWzR0atZw07Ztpv0/+dHDKC8tlVHitUboebyqCv/lb/8HquvOIMEEzXngkx70f0PldLalADNpeZctWnDOIdcTCgWiWrT4u8efIvHeRh8Jr8anp6fZem7dRF9SXDxsckQLSe/+Q0c4tr2CHXR8ZOpckAldxM79Jc27CC5z//Ibb+Kp5/7A4UJZOo5nNJdrVizHd75xPyqnT7M8fawPpkXHyZwXXn2NPsWHRiBJuZ6P9m3W/9b99yE1RVJMR5OSrSdb/uaJp3CC54hBWgBxy/Jl+O63HrCb/zWt6oKGErVBDmcv+7l00WJMLZls4+hZ5j0zA9/71oMm7E+/8AL2ykklw8WDqWT4X/74EaxYtmTY3xDNJBT/6ec/R3tXj+3TfehLb7yR/fw6/Yd5jv8Q66i0WY7jW5s2442337WX76oNwvfw97/PYeVuZGWlm58j3HotyKO/+Fvs3nsgtnTceYLn1zfchTvW3sbt/JFhQUyKgXu9ePD97Gd//ahM14uvvY5mvf2Y9dOp0Y88/BDHuwfoGDgL+HWyU/T8l0R7reOcmTONSfLste5Nx1QkeXrvp56NVlV70kzviVoyhbjlXOjGgJ88/DCmlpaYZ+yc5zROXqeWLs2fPQcpdHaOV1cjEApiiMxXlFA2dYq9oEbVxcAXX38De0gIOVl6CP7ta1ZTUx7CDAqTM3c+uuOpdEKnV5Rhzg032MIKOd46LsLGe++JsUeLfrJnFw7Q69Yw56Nw6JGcet3myqVLbO2+NYT90is8/v5ffo2jR6ttnz85CetWr8K//+lfWFskjC4NBfrOpGLNmDadP7yooaC5Q0E/+7nwxnn2lA9pum7HfubFl/DWu5vM+mkuYOqUKYZbipnFfmifVhEJu3sd91pjwdtPB2jHzt1246E0RaHMXevXYcO6dTQReqaLc6vRWAS6iG7Qk+bdTM2SQzL2GooCZBp177puAdbhJRwqHiDT1SE3rDgbN8el7Czcc+fX6Il+DQkUFHX2FMf1nbv22sOIpRXH6L3Kgx0KBmyM1Hr0B+7dgJJJ0t6z26wGSBvsGBlonvLYOjFQGlnvn5HTFqZW6hwtqfrxDx/CyuVL7WZLgYRF5RAdth103nSLm8/jw1wK1Z/Rsy/Mzxu3LTpH4dWx6ipangMMMbvNSrKy9TfK+oabVk6riN7bshUhboc9EWRxWPwLKqUsTcJ4/TwPeBV3a3GixkaZjSk0d3fcfhtDGz2ndGKJ0T51pmRyEW6n957P8INttOKCxuOTJ086HeIBLVfasH49JtEsOStLz8bNPdzndCQ7O8PuAJ0pbSD09A+gmm1toVOokEUWRuEkKyMtORVrb7kF5VOn2jjn4o7H7+AeU/g3HsjrN4c1pggVU0vxQ3rzK5cttSVYw3jZLw0/H9LvsPkG7vYn+3DnbWtjFmn09UQH1VckIw//dxyaJFzy+PWUjkkcl++4dS1K9EIenUMaHzl2FK1USgm+pOqWm5Zhxc3Lh4XJLRcKxnRzmtgQ+ZR6d0hJcZFp8oWAkijTy6YynnbeBR4P3T1KYjDG5xAgKZaZq6Rp1Vh3ISCN11CxYN4cExJpt55h29LaigE6Pm0dneYAqbuaClUixXmo7oUT4Fyg3ojoZRyGvk8fYc2Km82ZjQddSuHi4WPHQVGDlydlUxOV2Bl7E4QYrmGoo6MLmz74CL994mlzWkOhiK26nV5ehoe/9x18be0aM/2yjZQ5VHOIVNhH1iI5MQlrV91iYeal9tPbS89ab25QgxJI5DJqShLjb8GFIFWd9PR0FE9y7sU2ELVYBqiZ/QN68H7UpHLKlGJjirZVzgXCq6LO6aXwieysQAsctFZOvoSFfQpXeK2CwgJahqyYj3BlmC48U0uK8e0H7sfqFSuM4ePhlta20frwoDFGkYgWXbp9EIgGct405fzme+/h8Wf/QA++2rQ3ieP/vNkzGQ18z/ISehOTYwmd86SYqqffGRy/S+lIurjHa8/5wGvPSDMuEYjAVrxcJCKNzQqpNDyIAURkRdtqtCRAjbPXTrHuxYDGXTmOEhJhUnsV3w7fikz8+pP10IMOrhTIrMvazZk1Cwvpecu5HZ8qjgVSW6yBrKTEkoq1jO2TFdV07an6M4xk3rAbOmvP1NlxCdKyJQvx8A++gxX0FfRcmhH6OwTVMnAnxcShg/xJlqU0ul4aeNU415TryQ1KuJipH7+H44LMt6TdsmvqNBlrS5FV7GFDEgCOY7HlVI4gXBjIa5Zm22IG4hbzHdwkrOXnpVsejqcD1H7HYl0R4LV0zSPHj1tiRkuwxSSH9PHAMJFhlpZbO7/IJI7PYrIJJIssqfL/zzOKeen1N6nt7Wy3l9Yg01bnPPTtB7F4/o1m1dS/0dob02b+S6mkM+ezkucDbzZNkZ4FJ8TimTJfgxw/zurbBCABaW/vtAkFaYfiSklvaorf1pvr5gFpt8yT8tXKnjlacf4L6BwldhQ3S7AoOhZRZKSlm7Qr5BLBBY2NTWhtbbtooZoIRA/hqWKo+fwrr9tjzju6umO+Tzx+OpFsk26DitgTLrTsqsvCP9VVDuQAI4CnX3gRb7zzrr2tQS/RUzh757rb8IMHv4m5DH3lG50XYpe93N55C/LzoeLGtPsOHcYphlimWedBrw72UcM0w1ZVU0uGO7lf5cn1oPksCpQSCDJJIo4cEjk8mgQRQx3NGR/ENzFa5+w/eMh2yILk5+Yy3MuFHqQrP0LPrBGappYWS8F2xhhzJRgv0BNG9HoTJYs2W667h/hjB2OgoUX3vOmWZV1VjP3o40/paHbh41178PhzL2DzR9vRx34r768I6b4778CD99yLaXTe7DYtWaxRGn71wKt4WPdupWkRI+3HaTJ847ub7N0hYrzMsgjoEtHdVt5cS6OO0RnZsnUbOmn+BEryT6M3L4dNFuSGymnIJZNkgsWQt9/fjKNV1ZbMiccbDyKqkhRn6htsgqauQQ8MhFmO8rJSSxgplp1eUTGcLVRbFDYpc+a+vsrF7W67RUJxPsFQ5CCLleSnr8J61dR4TeZs2bYDXT2uxjsWQX6H7lUv1kt3iFLh13ubPrD8+BPPPodPd++2fUkcShW9aBJHTFfEITMf37ZzwbmPXjj4fv7zRx/VlKMyX61tHTSPQTQ2NdmL9qRVmlBwnS9XENU4mS1p+Euv/xE79+61/LFMlPLLumFfaVONPXLeTtNp0dufdLeKPNGe3h6zBDnZzm2/wjss5eyZcGkW7pU33mJos5XXGjJLVDmtAnevX2dZOQ0jSpAoTq8+WYuhwYDNobe1d1jqVTNgNkayngtqt/wODRnyQRQmuWOojsVn5FJSk23qVTNgCmlldSS0mk2U8CkGd9LHTruVtu7u6TNTzvEL3bzGiZpqm0zRcKbhSNPF37z3HssnyLuXN9/d02PxvZxh+Snx2i4mSw4+oDBrmFHbszmk3UOB0ZBihLsEsEUUmRx3leyQNGuGSo6HxnYtEgyFgzGvOEpHKWST/1qcsP2TnXjtzbfxCaVYcaoaWz61FPfddScWzJ1rTBLBlchQh2o5nmtMDBGHiFvf1IhBxthu+lBjsTJtTc2tjF334dWNb5s57aEPIL6J+Hetux2rViw3QZLlUEpXueo6tkfnKQZWSCQh03nmVZNqsioaUprZHw0V737wgd0pS92yO1Ul1GOZnkqma8p49c0rTEha2lqN8XpZkaY2MzisKBWtyEJ9F47C/AIqz0laySbDrddrChR+lUwuxp0UWA0Dyh7qJUmf7tmDTR9uxe69+43GevOi3prswtVieoIarDFp9cqbbf584zvvW/JA8fsH27bjWE0VKkqnIi+HWskO6r6yVhL2FJnY3CJCOynKEpoqMUULK4YnOdgmX4LXOqpU4vO9fbbMWJ7tvv0H2XESmWOfZp50z5nmhTs6Ok2oNPukehIIaYUSErexZKQzhtUfcavt06eVWwZRK3zkV4Q47FTXnDQP+ePd++hT5DEMSiNTfOZgneE1G5rlZDH+ZWw9lyGZhiQReDSQLkl+avts+JPpZPF6O3fvscyl/IxnX3rFwrI19L713HsxR3e9PvStb2KAinPkxAnDKbboWyuCdlLQNByGqUjm7JEWWr+goULOs+YiUkuKdfGrCqbparA0UjlrNVHv/Hbmu52lPhrn1dFjVVUWepwhU0yTOKxJECo5tmoSRZP3Gm/FqHgzJW1U6lVhTRMFS+fK5Gklid4kWFN7CseIV/ir6am3dXZa0kVe7uSiImz42jrcc8d6jt9jc+oeI7ysQArH35b2VnTSFGuCQgLTTO1U22uoJdUUiJpTp8xUB4acDKHy4qtXrrC+y3dRv6Xp7d1dZrrnz52D+XNmWdulxdJyvUJclqOjq9MswhIOZ3rujNqiZhXFHGMdV8JG1kdcVygs7dbESjX7K4FXJBPUcVZQNm7h/Hnm/LogYTFN37aNAn3SaCbHVYst9DK+eBpfDAyvkRMxlVkrLSmxRsuUdff1mImSmZS3La12VoBEzJHSGrhVN92Eb5DhK29aZsuGhMd6HwM1TEXetphWVFhk0t/NcV3m3XGqnJf52mINXkdamZOVhSWLFuD+ezfgtjW3xDJ+yuSNMNzttCyVTK0ERGZS47XjzIngMcdNpp7XESgBoskZEU+P8ZRfIWinldm1/4A9FkWvKllOqzWTTq6ENp99K2R/xehmRgqKxWWKb1u1Cjm0FK6gq+1FbIdm47LoD+llulKgoB5gyOsruWQJJpp4DXtFFDwlZe64fS0q6AA7S5ycfmnIUYt30yoeOXbMaC/n7x62+3LSsKOWSwlMA0mwOpoezQAdP15liw60wEE0E4HUyTJ26obpldTychQyRBPhz9UIdtekdmiQjmJzszmOMnWn6bB10huWU6OQR2nGspIp9kKbGZXTzSO295zEcI+9htt2fctDlh+iaVzNwJ2kZstqyEdRu6UlmneuKC+3qGJaWZndeiWcOr+1vZPj/YfmbWvO/C4OG9JA+R0iv/AfrarBW+++j1OnTmLJ4kW4f8MGc0rjm6UmaWaukxajlr6R+lrFiEURUd8AnTbiy6JQi4azZ8wgHaeZArnJGRfUJuHate8Ann3xJVrIHqxbuwZf33CHOaGXxfTY9gjoYvyS8yNPe4ANDQQUvjk5dDXOEjDUGHns8Q09NwirCKwbBYfoNwzQeeuzKUZpojqhh+emMdyTNso3cDT7wjvnMr+PTmGv2h4YdKZGOVTIZGsOXOGkFjRIK+NBplgmV9k3Hc8mY5R3sKsbgaMYCoYtQuinEsjXkGnXEHMWsI/KoEk7Zdo1pGkeQqGl3gUrQVZqV22RwliUMUE35UfIeVRUo9lMCa9ofmlMB/4/Ns1fzrNNQswAAAAASUVORK5CYII=;" vertex="1" parent="1">
          <mxGeometry x="541.97" y="422.25" width="36.06" height="30" as="geometry" />
        </mxCell>
        <mxCell id="SYkxdP-PGaikRAJM0KuG-10" value="Azure CosmoDB" style="shape=image;verticalLabelPosition=bottom;labelBackgroundColor=default;verticalAlign=top;aspect=fixed;imageAspect=0;image=data:image/jpeg,/9j/4AAQSkZJRgABAQAAAQABAAD/2wCEAAkGBxESDxISEBAWFRIXDQ0REhcSEhISExAXFRUWFxYXFxUYHSggGBolHRcVIjEiJSorLi4uFx8zOTMtNygtLysBCgoKDg0OGhAQGy0lICUwNy0tLjcuLS8yKy0wKy01LTAtMjAtLS0rLS0tLS0tLS0tLS0tLS0tNS0tLS0tLS0tLv/AABEIAOEA4QMBIgACEQEDEQH/xAAcAAEAAQUBAQAAAAAAAAAAAAAAAgEEBQYHAwj/xABLEAACAQICBAgJCAcGBwAAAAAAAQIDEQQFBhIhMQdBUWFxc5GyEyIyMzRygaGxFCNCUoKSwdEWNVNidKKzFyRDwtLhVGSTo+Pw8f/EABoBAQACAwEAAAAAAAAAAAAAAAACAwQFBgH/xAA2EQACAQEEBwYFBAIDAAAAAAAAAQIDBBEhMQUSQVFhkdFxgaGxwfATIjIz4RRCUnIVUyNi8f/aAAwDAQACEQMRAD8A7iAAAAAAAAACMpJb2eU8TFbtoB7gsZYqXEkveQlWk+N/AAyJDwi5V2ox7IyklvsulpAPDFmR8NH6yKeHjymMeIh9ZdpD5XT+uveS1JbnyK3WprOS5oy3h48pXw0frIxHyun9de8msRD6y7RqS3Pkwq1N5SXNGVVSPKu1EzExmnud+gmiORYscUZMGNVWS42escTLjswC9BbQxS41b3ntGSe53AJgAAAAAAAAAAAAAAAAAFrVxPFHtIYmrd2W5e88ACspN72eVatGHlSS+L9hb5ji9RJR8pmElJt3bu+cyqFmdRazwRqrdpNUJfDgr5eC9W+Cu7TK1c2X0Y353s9xa1MwqP6VvZEswZ0bPTjkjR1dIWmpnN92HljzbfE9J1pPe79O08wC5YZGHL5nfLEAA9PLgAALgTp1JLc/iQB48cz2Pyu9YMu4ZhUW+V/ZH/6XNLNvrR9q/L/cxYKpWenLNehl07faaeU334+fpjxNjoYmE/Jlt5N3uPVO241hMy+W41y8SW+10+XmMGtZdRa0cTdWLSqrSVOorm8nsfTy7NuYpYp/S7S6jK6ujGnrh6uq+bj/ADMQ3BfgAAAAAAAAAAAAAAxNOqpJSi7qSUl0PaSOf6GaWRjVqYTES1V4et4CbezbN/NyfFtex89uQ6CW1qUqctV93YV0qkakb17Zjc3w7dprbbeYg2gs8Rl8JbV4r5eX2GRQtSitWXM1Fv0XKrN1aWbzXR9e28wYLXNsNj4X8FQjKO3xoy8JL7rt8Galj8bib2qzqRf1bOH8qSNhCUZ/S7zSzstWH1pr3y8TdKtaMfKko+s0viWs83w631Y+y8vgaMwSuPFRW83OWkGH+u30Qn+KIfpFh+WX3WaeAe/Cibh+kWH5ZfdKrSHD/WkvsS/A04A9+FE3aGd4d/4q9sZR+KLqljKUvJqRfRJN9hz8C4i6K3nRgaFgqta9qLqN8lPWf8qNtynBZlK3hIRUdm2raErdEePpRGcow+ppHsLLUqfbV/vkZAyOUYd62u9yTtz32Fzh8sitsvGfLxf7l8jBr2pNasOZt7DoqUJqpV2YpceOzDhf27AUZU0bhB0sjSpzwtCV6souNWUXsoxe+N/rvdzdNjEpUpVZqMf/AA3VWrGnFykdIw9VShGS3ShGS6Gro9Szyj0ah1FHuIvCsmsgAAegAAAAAAAAI+Z8x8/V66r3mbLo3p1iMMlTq/PUVsSk/nIL92fGuZ+41rMfP1euq95ngjpXThUjqyV5zSqypzbi7juWTaUYTE2VOqlN/QqeJPoSeyX2WzNHzojN5bpNjKFlTry1V9GdqkehKV7eyxgVNGf65c+q6GfT0n/sjy6PqdvKVIKStJJrkaTXYzm+C4Saqsq+HjLnpycH2O9/cZzCcIODl5aqU3+9BSXbFt+4w52GvH9t/ZiZkbbQl+5d+BmcTo9hJ+XhofYvT7liwqaFYN7ozj6s7/FMu8PpRgZ7sVBeu3T76Rf0cwoT8itTl6tSEvgyvWrQwesufqS+FQqO+6L7k/JXmuy0EocVWounUf4EP0Co/tp9kTbou+7b0FbD9VU/kP0VH+CNQ/QOj+2n2RJx0EocdWo+jUX4G2WIt23j9VU/kP0VH+CNdp6FYNb4zl602vgkX+G0fwkPIw0Pt/OPtncvauNox8qtTj61SC+LLCvpLgob8VTfqS8J3LhSrTy1nzfkeqlQp43RXcl43GVpwUVaKSXIkkuxFTVcVp9go+Tr1PVhqr+doweO4SZu6o4eMeRzk5/yxt8SyNhtEv2tduHmQnbaEc5LuxOjmJzfSLC4a/hqy1vqR8eo/srd7bI5XmWleMrXU60lH6sPEj0eLta6WzAMzKei3nUl3Lq+hh1dKLKnHvfRdTcdIuECvWThh06NN3Tle9SS9ZeR7NvOaRI9GQkbCnShSWrBXGuq1Z1XrTd59K5R6NQ6ij3EXhZ5R6NQ6ij3EXhzJ0yyAAB6AAAAAAAAAj5nzHz9XrqveZ4I98x8/V66r3meCOojkcvPNkkSRFEkWFRJE0QRNE0QZVEkRRNE0yDSKx2bvce0MRNbptdEmjwJIlnmeZZHtLETe+bfTJnlJ337ekFGe5HmeZQoypQ8bPUkQZRlWUZWTIsgybIMiySIMhImyEivaWH0rlHo1DqKPcReFnlHo1DqKPcReHKnVLIAAHoAAAAAAAACPmfMfP1euq95ngj3zHz9XrqveZ4I6iORy882SRJEUSRYVEkTRBE0TRBlUTIImTRFgkiJJEiJUoypRg8KFCpQHpBlGVZRlZMiyDJsgyLJIgyEibISK9pYfSuUejUOoo9xF4WeUejUOoo9xF4cqdUsgAAegAAAAAAAAI+Z8x8/V66r3meCPfMfP1euq95ngjqI5HLzzZJGx6PaIYnFpTilTpX85UulL1Vvl8OcjoNkqxeLjGavShF1Ki+sk0lH2tr2JnaoRSSSVkkkklZJLckjDtlsdJ6kM/IzbHYlVWvPLzNFocGdFLx8RNv92EYrsdytbgzpW8TEST/epxkvc0ZHONPMLQqOnGM6sotxk4aqjFretZva+jYeOE4RsJJ2nGpT53GM4rp1Xf3GKp25rWV93YjKcbCnqvVv7TRdJtHKmCnBVJxmpqbg43T8W17prY9q42YdG78J2Mp1vkk6U4zg44izi7rfT2cz5mafgMJOtVhSpq85yUYr8XyJb30G3stWU6KnPPG/Zk3yyNPa6UY1nCGWF23NLqRw9CU5KEIuUm7RjFOUn0JG35bweYmaTqzjSXI/Gn2R2e83nRvR+lg6doLWqNLwlRrxpvkXJHmLjOM6oYWKlXnq3vqxW2c7ckV8dxrquk6k5atBeF7fYskbGlo2nCOtXfjcl6s1D+zRW9L29Ts75i8y4PsTTTdKUKy5F4k/uy2PtNiXCLhb+aq25bQv2XNlyrM6OJp69CalG9nvUovklF7UQnarbRulUy4peiXmWRsliq/LDPhJ3+LfkcKrUpRk4zi4yTs1JNNPkae482dm0r0ap4ym2ko14x+bnuv+5Plj8O1Pjlam4ylGStKMnGSe9NOzT9ptLLa42iN6wazRqrVZJWeSWaeTLzIMs+VYmnQ19TX1/G1da2rCUt11fdym4vgw/wCc/wCx/wCQ1/g//WeH6K/9KR2MwNIWqrSqKMHdhuW971wM/R9lpVablNX43ZvctzW84DnGC8BiKtHW1tSrOGtbV1rO17XdixZmtL/T8V/EVfiYVmxg24JvcvI11RJTklsb8yDISJshI82g+lco9GodRR7iLws8o9GodRR7iLw5U6pZAAA9AAAAAAAAAR8z5j5+r11XvM8Ee+Y+fq9dV7zPBHUQyOXnmzfuCOqliMRF+U6EJLojLb3kdRRwDJcznhq8K1Pyovc90k9kovmaudsyDPaGLp69GW1Ja8H5dN865OfczUaRoyU/ibH4G30dWi4am1HH9I8lq4WvKFSL1XOThP6NSN9jT5eVcRi0fQeKw1OrBwqwjOD3xnFSXYzRdI+DuLTqYJ2dm/BSd1L1Jvc+Z9qMuz6ShLCpg9+z8GJaNGyXzUsVu2rqc4R0Pgqy1N1cRJeTalDmb8ab6baq+0zn9SnKMnGScZJtSTVnFremuJnW+DWmll8WvpVq0n2qPwSLtIzcaDu24evpyKdGwTrq/YmzZ8RWjCEpzdoxhKcnyKKu32I4bnOZzxNedapvk9ivshFeTFcyX4vjOvaXSawGJa/ZW7Wk/icTRRoimrpT25deZfpeo74w2Z9ORUzeiOcPC4uE72pyahVXE4t7/s7/AGc5hCkvxRt5wVSLhLJ4Gnp1HTkpxzWJ9Bs5fwoZUqdaGIitlVNT9aNtvtjb7rOl4SV6VNvjp032xRrPCZRUsvcnvhWpSXtvH/McxYajhXjxwfedRbqanQlwxXcaLwf/AKzw/RX/AKUjshxvg/8A1nh+iv8A0pHZC/Sv3l/X1kY+ifsv+3pE4Zpf6fiv4ir8TCszWl/p+K/iKvxMKzcU/tx7F5I1FX7ku1+ZBkJE2QkNp4fSuUejUOoo9xF4WeUejUOoo9xF4cqdUsgAAegAAAAAAAAI+Z8x8/V66r3meCPfMfP1euq95ngjqI5HLzzZJHvhMROnNTpzlCa3Si3Fr2oy2h2SxxledGUnH5mpOMlt1ZKUUrrjW17D2zXQ3G0G/mXUjxTpJ1E/YvGj7UeOtT1/ht48fdx6qFTVVSKw4e7zP6PcItSLUMZHXju8JBJTjzyitkl0WfSdJw2IhUhGdOSlCUVKMluaZwSjlWJlLVjQm5X3KE7/AAOy6G5bUw+BpUquyd6kmr31NaTerf27ee5rLfRowSlC5Pd63bDaWCvWm3Gad2/04ms8KWUR1aeKirS11TqW+kmm4SfOrNe1chkOC7FKWDlT44Vpdk0mn263Ye3CXVSy9p75VqMY9KvL4JmkaCZ2sLilru1KolTqN7ou/iyfQ9nRJk6cJVrC47U8O7G7k8CFWcaNtUt6x79vgjq2dYR1sLWpLyp0qkY+tbxffY4Tazs1Z3s770fQSNE0w0KnUqSr4RJyk9apTbUby45Qb2Xe9p8/QQ0ZaoUm4TdyeT4/leXElpOyzqJSgr2tnD3sOcHrhcNKrUhTgrynOMI9MnZGUjorjm7fJZ350kvvN2N60N0QeGl4fENOtqtQjHaqV97vxyts2bFt33NtXtlOlBtSTexJpmqs9iq1ZpOLS2tq426nBRiorcoqK9isahwoYlRwUYcc68OyKbb7dXtNxOPae50sTirQd6VJOnBrdJ38aS6XZdEUzRaPpOdZPZHF+hvNIVVCg1vwXvsPLg//AFnh+iv/AEpHZDjfB/8ArPD9Ff8ApSOyFulfvL+vrIp0T9l/29InDNL/AE/FfxFX4mFZuGkujONqYzETp4acoSrVJRataSb2PeYp6I4//hKn8v5m0p1qepFayyW1bka2rQqupJ6rzex7zAshIymZ5HicPFSr0ZQi5aqcrWbs3bY+RMxUiakpYp3lUouOElcfS2UejUOoo9xF4WeUejUOoo9xF4csdSsgAAegAAAAAAAAI+Z8x8/V66r3meCPfMfP1euq95ngjqIZHLzzZtfBxj6VHGa1apGEXSqQUpO0buUGk3uW57zsVOaaTi009zTun0NHzoi6wuNq0/NVZR9ScofBmJabD8aWsnc+zD3zMuy274MdVxvXb79D6EuW2Y5jRw8NevVjBcWs9svVjvk+ZHEf0gxlrfK61uuqf6ixnUlJ3lJyfG5Ntv2sphop3/NLki+ppVXfJHHj+PwbHpppL8sqxUE1RhdQT2OTe+bXFuSS4l0s15EETNxSpxpxUI5I01WpKrJzlmzc9FdN5YeKo4hOpSVlCS85TXJt8qPNvXYjouX5xh66vRrQlzXtNdMHtXYcHJIw6+jaVV6ywfhy6NGZQ0lUpLVa1l48+qPoUtsfjqdGm6laahBWu3fj3Ky2tnLdC9KHhang6rbw85K/H4N7tdc3Kvy29VnCFSDTUZwlHanaUZxa7Gmaa02V2eaUsVv3rbvSaNzZ7UrRBuOD3bns3No5tpZpy60ZUcKnGm01Ob2TmuNRX0YvtfNx6OzcdMdDpYa9agnKhva3ypdPKufi4+V6cb+xqiqS+Dl438ePtYGgtjrfE/5s/C7hw9sz+gLSzKg20lavtbsvNSOw/Kaf7SP3o/mfPjItFFqsKrzUta7C7K/a+PEvslu+BBx1b8b8+C4PcfQfymn+0j96P5lHiaf7SP3o/mfPbRBoxXopfz8PyZX+V/6eP4OocK9WLwlLVkn/AHlbmn/hz5DlMvyJ2IyMyz0fgxUL7zDtFf409e67A+lco9GodRR7iLws8o9GodRR7iLw5s6NZAAA9AAAAAAAAAR8z5j5+r11XvM8Ee+Y+fq9dV7zPBHURyOXnmySJIiiSLCokiaIImiaIMqiZBEyaIsEkRJIkRKm36KaaPC03SrxlUprbT1ba0OWO1q8ePm9uzUCjK61GFaOrNYFlGtOjLWg8Tp74RsLx0att26G3+Y0HSCthZ1dfCwlTjK7lGajqxf7rTezm4vcsaUKKNjp0XfC/mZFa21K0dWd3IgyjKsoy8xiLIMmyDIskiDISJshIr2lh9K5R6NQ6ij3EXhZ5R6NQ6ij3EXhyp1SyAAB6AAAAAAAAAj5nzHz9XrqveZ4I98zXz9bra3eZ4I6iORy8/qZJEkRRJFhUSRNEETRNEGVRMgiZNEWCSIkkSIlSjKlGDwoUKlAekGUZVlGVkyLIMmyDIskiDISJshIr2lh9K5R6NQ6ij3EXhaZT6PR6ij3UXZyp1SyAAB6AAAAAAAAAcQ4StHJYbFSrxj8xWnKaa3QqS2zg+S7vJcztxM09H0rjsJTrU5U6sFOElaUZK6a/Pn4jlek3BrVpt1ME3Up7/BtrwsOh7pr39JuLJbYtKE3c9+/8mntdilrOcMVuNARJFalKUZOM4uMk7SjJOMovkae1FEbQ1TJImiCJomiDKomQRMmiLBJESSJESpRlSjB4UKFSgPSDKMqyjKyZFkGTZBkWSRBmb0O0enjsVGmk/BRcZ1pcUYX3X+tKzS9r4mZbRrg+xOJanWToUd95r52a/dg93TK3LZnW8nymjhaKpUIasVtfHKb45SfG/8A3ca21W2ME4wd8vI2llsUpNSmrl5mRsVANGbsAAAAAAAAAAAAAAAxmbZHhsSrYihGeyybVpx6Jrxl7GaZmnBZSd3hq8ob/FqrXj0KSs0um50YF1K0VKf0P32FNWhTqfWvfmcPx3B/mFLdRVRctKcX/LK0vcYLF5fWpeeozh1kJQ+KPo0GdDSk19UU/DqvAwp6Lpv6ZNePTzPmpE0fQdfJ8NPzmHpyfLKlBvtsY2voVl89+FivUlUh3ZIyY6Wp/ui/B9DFlomeyS98zhxJHZJ8H2XvdSkuirP8WyH9nOB5Kn31+RatK0OPJdSp6Kr74830OPlGdhXB1geSp/1P9j0hwf5et9KT6as/waD0rQ48l1H+Jr71zfQ4yRZ2+loRl0XdYZP1qlWS7HKxkqGR4SG2GGpJ8qpQv22uVy0tS2RfgupZHRNT90l4vocCw2GqVHalTlN8kIym+xGcwOg+YVbf3dwXLUap2+y/G9x3GMUlZKy5tiJGNPSs39MUub6LwMqGiqa+qTfh1ficyyzgs3PE4m/LGlH/ADz/ANJuWTaLYPC2dGitf68/HqeyUvJ9ljNgwatqq1cJSw3ZIzadmpU8Yxx3gAFBeAAAAAAAAAAAAAAAAAAAAAAAAAAAAAAAAAAAAAAAAAAAAAAAAAAAAAAf/9k=;" vertex="1" parent="1">
          <mxGeometry x="789.77" y="206.85" width="76.15" height="76.15" as="geometry" />
        </mxCell>
        <mxCell id="SYkxdP-PGaikRAJM0KuG-11" value="Azure Blob Storage" style="shape=image;verticalLabelPosition=bottom;labelBackgroundColor=default;verticalAlign=top;aspect=fixed;imageAspect=0;image=data:image/png,iVBORw0KGgoAAAANSUhEUgAAASwAAACoCAMAAABt9SM9AAAAjVBMVEX///86aKk6aan+/v45Z6kzZKcaWaLt8fcfW6IsYaUoX6Tz+f/n8frG1Ok/baz4+vxfg7ZOfbdYf7Xi6fJKdLDb4u6svNdpi73h6/jT3eyFoMh7mcS7yuCetNN0lcKYrtC2zeqOp8yPr9SrxejF2+271evV6viaudp2nstThr5vlchhj8GqyOSBqNEAR5klybZXAAATS0lEQVR4nO2d6WLbrBKGAYG2RHJsy3a9pknT/cu5/8s7YhkYEPKStiE/NE29SLKEH4aXYREmZLLJJptssskmm2yyySabbLLJJptssskmm2yyv26Z+R/dkdSSJkBfPMsyov7MM7F/GexU+2C720kyL/lZURRLZf2LGb6EPtR8hqjLwJngFHAdAscRfU1zsUy/TYjL4DApygAXcEOcvKfMfDVDQH68WB6Ou9PDvGuFtK5bbE5P62ZZ2AvBGYB0FlwP3tocglTZhBCTZelgofRrV7EJI65AZvB1zYfgQP2q2B73nWLEOZX/GOW9yQ1ssVuvwMesy3oOkiEPMmfPiEsXEoXErmXzFcoUUHKPXv7DN8scw+Kw63glOO0R9Zyo5MVZ/4Lqt0LQxeO2cGcD1HBd52Uk+GflwW6yRTMRLOKylFgZylxiURlBpc58vmj2rai4ciSq+VhM6lEBFJXoHrfKv5zbZla6rD6hwh+oJiqk6cx+fyQcsNUVUvTFkLYTsjzOVclTRU8CU25lUOktHPZVfHMoAqmzyu1Kp80MKPj22kjxksHyPN5prs1yz62cp/V7Vk9dZRjJR6a9iRl02rF615LbuS6PD+vC85PzFlP3D+FbNssMiFDYCQoS9PPqqa2MK+ECKNWKcdYj6p+UjvX/zAGUV4t1Qexp3amhArT7UJ1jN7sgI5XhCg7nHnprayEraL1WHVvBFQVFhVoPk7gML72PmT3qGMarTUOgWKMMQHrgLgJv0MXT0srwgxf7+LUkcUrbvz4shEEj3YebatCURlUWnczLnXqj9DIqxH5p5RzXxZBJ4EleNENAQhPygkxzCu9XPeg1qveLnVChlJIjDYRpMsyUN+lszAYP9kkfL7r1DMVs4DP+BV0GIsU0iU4Hy6XQsbKPBJVNkH3SzIXxIurwAA1qAVIG1aLa0BfMnqnWNXFa+nyisg/qhVwuaTn04yjYhsMFtYWg/bNHEx5ILbcCb6CY+F1rGNNhlhR4qVrMgJVCJ+aNK4qewCO9RKELrg6S8RrLVk8tkFhlZHkSSoGsR9k3zNIw+2yZtEcohdNhKlu762c+LOvTxEYvuJZO6FzWj4jHjdg3NvnqzXYhVIFS8RNTpmOD/oUOGKjbbnaqjbKK5Fw/Ki8Uu5kf2LloD9XJoY6hEvD+qGJOhZzJC0n745tW6LqOKzjgPYxC6O6aOjaup6hm5OgAcSpwkD7IKx8UFoxUsAJMkH8uWHDp6/83nTCBOYBhrtJj9h1q8KgojBmcmh+HlmS1KdC3txBs6JCh6MFrSSQyT5L83HQ6Zfc0JhS3Jcx4FYiUfc1sTYh1y8ZcEIVVD0t3eoIv7r8n6F1igSdhElHzL7M0+zcHpr+ojQtUgWTcF3gtUqgOcDutwANT8VAQCKnOCDxO0AcQeJuTxGWmfTAAm1Z7BQpAXclTgQRoGKMOFzONItUdCE+mh4Ip3XJ5FNEDz1yAmgZVLBj0kg7syLbTzWIeFXgodkOBp9DaCUxvE/sZrmxDLB8LVixDiS0HLnPJciEYwsGDL02dp6mWkOkyBU/TpdcTeONh1aMXkxIk8LY9aN8nJEWiQSlyKfstMlJshOcUVuC9CFUXOyzrrnsZDua2FaTbAOJAUFMGOTPEXi7PPozAo4IAe9ST+f9YgSwbjwBR0krNbZ3oyqbnekwVYA4RPIdP9y+7LaSFuNY6AMkIToU7Lo1lyN1HBN4EDSpgUN/bRvB6CzPtZO4Cd73d1XvqUxy0zAm8LJayShwN+D6UZrnGRSRRllWhglHjRLpqU+0XSgEL09tMpAW4rJAxF5jhIqs7o6unqMCPpysVLKsOY6lTf3uBilSsags3Q4g1KJOxgylvUOsqXj8jfU+u8ZnnYl5bQxZCwWPf2H5zLwJloVk8qv+GMYpKo94lFkXozPE3qT0L4mTXXTlIWrEQ9IzhKGpACvMyhzvfgnCeiseRa4+kKBks51Jhmx/eHauBL8U9bQQVFjCHDJ+Ct6tbaCWC5cWdQ05qy7I9WwivQuUVR8/DtIn9SND+kWBl8erQS9iTH46+EZVfGqE9aSMJ0YyK+zAPE8EiqMd4KPDK7VYt9xlxVKRsJHUNK6aDiqHAy07500jDcNAaS+pZ5mlM4MlOxBwq7Ke61vwTuC5Ezrde5p21hLD8pk6Qtb1ixQqd346+GpWjZeYk6QF/1QDYrA/bZTG7hlcqWMQKPIkKPDl6YUMQTPL6BqtC4Qr4y6lw7cNuvS3iw4jpYV0QeFI8jMOqBPvSXG/H2tEyPQ8cBbN6S0+MdrvDkgRdIeQDaJZLk9cR6LRWB+8Rd2A033267UrrfMS3cBAmO7uEaE9yLtdYLv4TDpfN9cdEimBm5H0IS7Zd8sPNV1uXpuFt5o9wdz43KqRfiap72pIRXH8ZwrXmtV2HAk+KLh6Qcl7dzqqnVTlaru8Z98C6K1DBNk1cvf46hivNRfDRVDVBS8e6WPUsP9zsH661xZOiVZ7T+NAEP21jtJLBOiPwBEphBFYrJeWUC36tVSd1Pa1bUOpwZOoNnIF7Cfa0JIMkJmPlIvhgvFOVwjn3Gdk83/cfPpY3xFdCw9K+Rf0IHl/D68OQLtwdhvFMIlhnBZ5saRwWq7/2n/rJ3wCLrGsW6RP0AnpvK6/2y7B7ORWtmMDbDes6TL6x/L7/aH4DKwdL+RaQMQJvzc7lxQTFYhtGXWlYBUMUQQ72khUZqZGw7uKweF1WHiLBB7DIIWc2qDrTj+FMtH5RTATLCXyMVfYQdpGeh8XLTbP97GhV7Wm/yWkIixxKO/Pb+hGzk070KAYOInqhP2LfSsaKoOuHsIouYGStjMCilZz7SD5Z2a8fZZW5nYsQloq3XL3nje77Au+qxWP65o4v8EG3Mtm2NtWBg0Vg0VxNfHSwyiOZff6yIrOOh7CkboFL6edQ4PVMHdStWq1RbZ3GgmLnl8a+YRh6lGEVgcU3/Xe47ysugNWHrbOurPpW0X07gEUOg359DcWL5c2NLKYqOKSH5c+k8SsdWRlGh+JjsObk/qnMVxYWL8i+ly8Zvu7FANasZF54FYkb8FapW+2WpIVFyDmBf4xmP4vCYuJXW7HSwhJPZKlagvWavPShlQpjnd0N2j1uxIibOzYMSO1YnLvRxYSkYJ5KKPAk2+GB6EuwmNRxB6v6TLaqA4sv9JHd9y/GPltYbNhOjAu8ahtVu/SzjggEEGiYQr9Qo/ZhDM/GYDEPVn1PvlQGFunkpyqwPEOwbGlkFOZgevNH0Kgs5wctqylh2RmbrlJU22cbYVXKudi1sAhZqICU9rB+CHxQAMs1frxB2OErKuZmUmU6WKYVDfd+uIpxFh22vwGW7ryaz/qWwFlYZmaXL/G6SeRvk8P8JJ1mQevQhA1It/oaa4HmJWBUN8K6uwyrL2P1fF5G8sYH2BYkXSl08+wifQ5Rz7oB1i9TDLNLxbA33n0j5MVNFIDw3ty/CNOfq6d0jqV5EXTTHxmBZSPsq2Hdke9W4OdeZ04MlriTafmGb84IB65V/NAtE9MaCLwB+EeeVTWkUaEDfQiPjMASzzotL+dLYt/qOSaFBeWQBJplasM3w3okK3VA3aC29Risak0wrbEJhr20ycg0FSniQoVhs37/B7D4YkY2SqqKQN+jnvUbUvQVfGtQN+o/0aQhRazAwytbLxfLbXM43OZZVV3Xsm2Y98/ykIasKkHLR3I392dDxDSr/A+S9F/uFTx3a57W/KDZ9M4G7RxiQi4y2x5P85b33300zIrBqg5N0xwKMpPPvSvR7o5sf8kbVk++Y0VhsfIrJGiNafn+pdrTRTJUxEZZZoBn9bjgQrho0I+t2TisEp9UupbYqBouO9UBlygsVr7Ah797tPAtGqqeTFcOPYEns+bEK87PDYOOe9Yame4czZ/X6+dchFjisFgJM7TIcz7wKZdz8mafRKSQwBOyPfHIJG7mD/KNwXIN5d7MJlFVA1SjsGj5DZL1WkZmV+g/LjYpa0PTs0yKYwzV1Z51vY3BovQe0nWqdRGU5k2NZmYwPJGZ/iyyfRB0bGSKXRvB/xks0Vpav+toBK+a1gmDB+NZ+r56Qwb3uUGG2n3/CJY8u2jvIFk/K31HBkezk1TvFhfr8W/zPrTWlENjlZq7v965GOqQ09KazSNTDtWj2KUiZaJQmDk6nKo+GLK4DZa4VuDNhcRPs5giuWuFnxoj8FRsEsEyjrUWMHZ3aTSdne/8C6yiv34NaUX7s+DalW349LQ4R/3KYHyeDJa0hkXDGjx/2w2CnoFFq7ri6B17LtSY12VYyIlrS+u+5VGBZ+lIZWQ5506t3GMAzCuHUVii/dLIVciMWFevsm6bDf1vCAuxorT8YWlxuOEVCzwvz3ybf22zU3x0OGpsfCisPKrTbXVPn3j41LfHi6tgoXMrWq+QtG8lZBhudeWJQMkga33pRqZw3lkcVr0mxe73fkVWtRr4msklRj5fAwuuYq+TP0P6tqXDBALPU8HqrWhxm/mywI/Aoi0h84qLckXWsrUjHpu2rq+C5ZdCRes7pO6/eigFCWGZMXo+5BRZ6IKOala1Jo2C9NTjl6rX9g52Gyx05f9BM/Eu927iVP/SwVK3XlonpxcFno3AYnZQdUY2eo0MdisseCFc59ZdHiYgpWcdz97/PDA2AkuO4eidOepGvhKWVS1t9dw2EcnXGu9LK/CkmP8dWNV3cmdK6NYM69wIy852KJ9d8vpQi/sLtshVM1LBCuerXRT4MVgH8kkt/CdHc7ZA4g2eVbUvLnUvLNZp1KaCtYOlQFzNzXw9pxRPDDkDays0rK9u6OtqWLaU5b9nLnHPZdDYUd3KYpGIVaGnM7hYBrGJ9uue8ywLa3UjLHt24QZ5+iI4r6m37qIJ45ON76wulDrkXRdgrW0x3JpZbDfDYvX8m0va53KoprqgpuqEPwS3E16SrFHNEq/kzuy6J3Yq/C2wGM1fXcJmP/LYxBAl8G+5ee9v2LFifujp+kpug8UoIbrDIYeR6Kth6TOL6qtL17atXNvZmb57czv+ff6puVvk+JX+NQaLzciziuB7RXnghkEpYTnEcVj6vOVPF1yR7+X43GXepRqwOAlE5wqBH4clmzuyBV2CZHWL+bxrSNbN54v2DCxNofzuEnX/szRpiiVB7FINhZ0EHvC9ysaKYSsH3qtyZ5o94ogu8zg+mU2ds2pR0fpaiWGSXIPsTfcb/xU73Ra/W1qxEek+8P722EeUepKywHXWsRqDpbDkP1xwpZTdjdYPxg05Xb0/Jm0nwfxpDWNy5W2Pd/7VP+TSBffPBoNA61+MTjlSSHBwJZUd22BiiFgkm8umPWsQwQ8GeYIup7Fu5cVi0VbskjlYVAVXA2UP76/GrpZuqgNMV9M+hQR+TF3BRm7OpGHFdxaWKlU4uNLKLup5YCXyfbksWSJYsDbWOTBeCTQHlp/ePsiqGsKf9AQ/wVCzWSu7wDGEtpfaCrzYpJtSenSt+hsqxL4wyFHh3eUSFzO1JIQO8Lib3ECy11x1Q9YDVrpzWSdSLkr2bnQCa2wEz88JPB43VA9i09dfS37L7fdgnC0JzO2tXRjwrdP36/FYn8K97i/lXDzM0s1W1uv5+UsHnJ8YYiyXU1lWLC9vtbyVKxg1uR4BtA3ndWlyKzrefF+atk+6IIvIHPYXo4Ch1osNat6p/L27v9X0amJmiZvaNAfvfpf2+uXLMJmvlQn0FzOSpROtR60d/gxS/2UITr8Xv/7gqr9MvWLmeLzo4MoAqf+78+3+tdQg5QrfKW8KW6H1Aq4cNzQmuuUbr7nsKjhR1Qey96+5d25e576VEKdKpUx5C112ssHDuY4ZSmEtJ7eN06dIxXXRPj1R1Maq6jmPzR6I1c126de/TuFaOwjuqZV7RKhcjIS29iF7md9upcCn8m5ogu49kxfc3HwPEbJeCSPlvTvxOzA9JjigHN1z2caWqB6xwb2sKlxJCSvTPcvwW4VDgY98u3Ck5w/NtjfDQSX40Rnznncru8J/MnP3fkUEfoBqOHbxBjojvIaehmf+8eSLYEiT6wGPNnbejOQtFKkTMBYMGJqle0hq1yJrYX61xEURSWAx020R5pxMnMA/3ZAOlVnsYnDvOEtFy3oTel3tZ8QtbJKQFVE/qhMMVbCUsKyKQb0j9uh3GxIugqHunJM/18RQXOp1NN9m7eVDzsOKrO5Q4d+NTLsIhhSB5UNF0a8W2m4b/t6uRYfGxePMX2svHSytAkV8yjKnf+gpt8MKeQm2tmt0pBZ48Gz129CuMWtfaVjvxCzmVup3gS2s5AJvMuvQCS3s6i6GwQzTt3x3QBAJRGNmpZI5VvIHED/Ioq6wWIiqYpZ7bgZ7sMB7QVesqIYgUE167jCwtm3ZyJm56A6zkFRSWNjFmwd1Lzk0Muy4Hfy2tn1lhvPMQgIcfrVQl2D3Id2pACN/HP20oX2nqaATwqXlTw/s3W+2foR1SglKTf96dngYdLenMi5XODdLx/nL5KRE5ZbQkriKD2MzJOmZ63FI2zZ09kGSgczmol2VMG16Jptssskmm2yyySabbLLJJptssskmm2yyySabbLLJJptssskmm2yyyd7T/g9uPPryEiW3ygAAAABJRU5ErkJggg==;" vertex="1" parent="1">
          <mxGeometry x="767" y="319.68" width="135.08" height="75.64" as="geometry" />
        </mxCell>
        <mxCell id="SYkxdP-PGaikRAJM0KuG-12" value="Azure cache for Redis" style="shape=image;verticalLabelPosition=bottom;labelBackgroundColor=default;verticalAlign=top;aspect=fixed;imageAspect=0;image=data:image/png,iVBORw0KGgoAAAANSUhEUgAAAOEAAADhCAMAAAAJbSJIAAAAh1BMVEUAcsb///8Aa8QAb8UAacOgweSUuuIAbcQAcMUAZcIAasOavuMAZ8MAZMLu9fsAc8e50ev1+v1WldPT4/Pk7visyug3hc291Owpf8tvo9ja6PWFr916qNqevOLJ3PBLi88cechzpdlknteCr91LkdI/ic7p8PmnxuaQtN8ogsxhmNTM3/GwzemGOiAnAAAGdElEQVR4nO2dfZ9yTBiGi2GGJkop4Zb0ppfv//keRvVUq6KNuO/z+Gfb3Z+zOTKNhqvR6QAAAAAAAAAAAAAAAAAAAAAAAAAAAAAAAAAAAMA/CGMypZKkkwRdkiiljLFyASzZiIqEtwIqRKY6J6azmnmqchwk2Ioa+9YkpJxQuUArGZUIl8PJ3o/V3vGNgCphlGvr5XFkdHMYjqexJSetfNJIRknfnCnBZvg4QHoWUClM4pN4lOd2jbuNOoTmB1Ae+oPcV6dYQLUkrVPHr/ROBBaXfuwHmbC4aMA0L6BaZG4Fd60YGsZmlDDebAzjvtMZqizdBDC+mv4I2IzdhwGxXOt+JJOr3rkJFM/amZQSnkGSAcKcRLE9umrncMmv9gJxrgKMQPGTAFn6EXB4GFAtjPfOTzvqWbJGpB9juxj8da45M/vSE92QXgLUyx+VvZkGyLkB5EFA1YL09Pq7S5NLz4dzlrQy7J0Gk6EjZ38k5wC/82qkTAOc+4Cq4Vn7RnOt2DDOJLLIepuRbcAPmZ9VPGB2E1AxdCmerNcv8XpSKRuXlHS4obF47PVL9LmbgKrhm/Sp7H6pjVjfFYMSTx5ros/Z2jsBY15qq/eg4sV0SnYX6onNePrOeitAygJIua3egcnimaySwxrfis3SHSf9JqA+w025A7C+7t4ZbmipAHIKqM+wa8x50SYmnz/97r1h17BKBGjngBoNu91DxPXXk5tk9kAXl4P2lWESYHH99fB/G1CrYXIEPiaTG/3hHC6ZFRNuLq4/f94YJgG2RZ8F0B8BNRumuFt/TjWeTMzpFclcnWum5Q3uZg93hqmkay9XtJ8bEP4M+ILhqZmBrcaxt4j2lmXNvLhnH3JnRj8NMww3OPZifxZZ1vOAbxkW5pFhYWAIQxjCEIYwhCEMYQhDGMIQhm03HI+mR1uc87YHgTvOu+jbVsPhYeuvTZ1wQrL2SSR9bM797aG0Z+MMx9vIIVzKO9ckzlMRxz8WvRDcQMPAZ9qr04WM6prpHdpoeJjJ/NpOVNykNTfilJp8fT2UUW76L0seGmZoT/7XE/UyPFxb0cJT//z5o3qLyFqHVCP/nyllVNsdW2Rom+TScpK81ZTAzRlSjIPtrWVyvgjMSFjAsRGG7uTkxyRtFwcvhktX2Z+7M+OTl6NOEwx7PLs4TLmjbF41OOMQUV04yvqg+YYLfvKbuTn/HRrGMLfASwnFjmf9Xs5/G2W4FIKMR1fFXMZooPorxyS6qF1MflBzt18q05t3p5JdkdSUZhsG4vI+7VwOcK445GcFM1chabVMMsLSiX+89OShJZrfz9v3zTEMUw06P/12WNAXpYnJAb8fXsrbvLT9dNVkw1HaR+VJ9stgxwuVvyQHfOu036K0o2rPxqdvG/bSuQMRb8HhqkQZGu1nNTbDtAKRPBtPm2BIZ+KhU67Wgi8vO1F6Npw2wVASg+G0bGmPJsZVtT2Go3I1U+c6IlVqjWFy5C9T9MT6g9YZdnukcOEy09mp4rhVhl0jpoS+LmBMDhadi1O7DBOms/DZdyZEvYzjXU1+W2eYsBks51R8bkun9hnpw/QjqrmPB7eH9zYaCgx3qsR+ZM0Fq/3MU+0g74Riaw0LA0MYwhCGMIQhDGEIQxjCEIZ/jSH92w1PJza/ZGjU8Q3LZwaVG/bq+JYskx+v81C14aaeJTLk8GE/rdhwY9a05oDcuV8xoh7DoL5FTpg2y++pVRoakVbn4h+U+3mFIdUZun7h79R+zJGsjj/ejxUZDu3iXzr+JLLeX6u39ZMVGA5HvXlfr2c9jDxJmpZTbINz+YTyEcNzwDhQ/DXl0tf0MtJyCsL78s6a+bElf8BQttTlbD8PeXqxozELfp2KK9NX+9eGHZH07UW+nvB7w6YDQxg2HxjCsPnAEIbNB4YwbD4whGHzgSEMmw8MYdh8YAjD5gPDf93wG5cJy3Jaufs9/DYYsvAXhnUVW/wOXX1t8gCvDW/DBP5q6YdHKHXUdH0ELX5L0G+NYHqXluKrBp0JwpZ00QymrR7VTT3wW9VaD/QJZO4UvlvSWA35lwsu3oJRzYmDVzesGgbxTqv7Zk6fg1GiOwvlkL/SxSZQ/B15ujRIK0gXwtKos4o8Vdkej0d7u1XURWTtqEa+d0u1j5OV20jpEjy6Lu4RIDenFggAAAAAAAAAAAAAAAAAAAAAAAAAAAAAAACgOP8BtE+F8M/0O30AAAAASUVORK5CYII=;" vertex="1" parent="1">
          <mxGeometry x="789.55" y="429.02" width="89.98" height="89.98" as="geometry" />
        </mxCell>
        <mxCell id="SYkxdP-PGaikRAJM0KuG-19" value="Azure Vault" style="shape=image;verticalLabelPosition=bottom;labelBackgroundColor=default;verticalAlign=top;aspect=fixed;imageAspect=0;image=data:image/png,iVBORw0KGgoAAAANSUhEUgAAAJIAAACmCAYAAAAxkNY1AAAAAXNSR0IArs4c6QAAAARnQU1BAACxjwv8YQUAAAAJcEhZcwAAEnQAABJ0Ad5mH3gAACBzSURBVHhe7Z0HfJT1/cc/ueSSy85lLxJm2EMMw8FQRAW1WoOoIIJWUVFcbf///h3F1ta2rmKpVRHQIkNEUAEVowyRPcKUTSB771ySG7n8v98nFwmQ5J7L/Z7LXXLvvq7xHpJn/H6f5zt+06OysrIBXZycciMOZ9biYJ4e6VUmGGvrUW1ogL6+AWZzY/F4eAC+Xir4qT3g4+eJXsFeSI7VYFC8BjHBaul3ujJdTkj8sEZTAyr0Zny2twyvbS9DVbUJUKsAFamFfsiCBVZPP0lwCPTE62O1uDs5BCG+nlB7eoDO1KXoMkJqoKdML9Jj9fFq7D1bgx8u1NDT0z9QpQuBxAkvD0xK9MOEJD9M7h+A+FBvyz92frqEkNhF/WFtHr44oUMpWxJ+YqVMBp2bHZ2WBPpAcjBeuDkC3iSwzk6nFlKpzoTVByvx8uZi1JH3ku22REFWKoLiqXkTwnDnkCAEk9vrrHRaIW09VY15G4txtMwA1lBHoiGDNCjcB2/dEYmrEnwtRzsXnU5Iujoz3ttVhj9vKXG8BbJCALnYv90RhelXB8NLVGzmJHQqIZ2jYPpP3xThyzM6KfB1Sqi0ZwwKwLxbIxAZ2HmaDTqNkDigHvfPdByvopzcBV72cZE+WPZQfKeJm5zM+NsOvwV7M2sx4B/ncLzSNUTE/JhXhwc/ycbZQr3liGvj8kLKKjNi9uo8FOnNrvU0FCNtydbjiVV5yCo1WA66Li4tpGwS0X1LspBeQXmZK8auVPp7KK7749eFqKrlZnLXxWWFVFRlwjNkiY5VGF37dVB5YM1pHR7/PA96bh13UVyyCri744Odpfg+q1aqCJeH3NzGszX4ZG+5FPO5Ii4ppPVHKvH6jnJx/WROgJEe5e0fS3C2wDWDb5cTEgemv1tX4KKvQNtkU8Iwdkm25Ztr4VLVUW9uwDvby5Bf3ymavlpEpzPhP2SZLMOgXAaXElIuZWefHqqwfFMQrkUOfOvMQK3lw80LRvooLWIvD6w4XIn8SkoiXAiXadlma/TAR9n4OoMDbMtBwUT7qBAW4IU7k/xwdbwvEkLVCPD1lEZH1tTV43yRATvSa7DxQh1KyHIUsNCUCNNIxO/+KgozRoZYDjg/LiOkHWd1mLQ4C6DKFgpZmBg/T8y+VouJvfyQFOUDDY+WbINaskyn8/VIpXtasqscOSQy0dljPD3ngd/2hK+3azgNlxCSiazRI6tysfaUznJEDJ4kopmDAvD6lFh4tzMDLK42YfaKXGzJrEW9yI5iEuv8SRF4+PowywHnxiXkzt0gh3IEpsX06mip0hfcFY037RARE06ucO3sBLxzeyRC1HQeUa8lWcUP0qpQxdbOBXAJIaXR236BW7BFQBWdSHHPzrndMW24uHFB0yme2TCrW2OgLkhMhVVG/JznGu1KLiGk/+6rgFlQDBKqoTf93ljEBauFhjWedLIhcRp89WA8QgXFcSX6BuzPqrN8c26cXkhFFINsbZrxYS8GM96aHInR3ZUb7jqmpx9euF5LMY4As0TPvOc8PbsL4PRC2nqimgpUgIqoXueMDEbK0CBFu+fYVc4eG4br4jXk5iwH2wvd51ckJE42nB2nFhKX35qTJCQB2VACBcWPODADeu+eGMT5Ciheyt4OXKi1fHFenFpIdVSIF4ooyBZgQW7u44de4Y6bsNgtVI3b+wfYH3iT+Uz9udLyxXlxaiEVUKZWzd0S9lJnxqOjQhRphG4NDr4n9wuAr70XpfP8mOH8AbdTC6mouh419XYKiSzCNXE+6BtNMYuDGU2Bt5+9zQv05ydKDDA4+aC3DhESz4AtkzG0tFBXD/pV+6BA6/7hwYoG2K3B3RuTelOGaOe7YNQ3oNrg3A2TDhfSfspCnlieizP51hvaSvVm1Nrb205/f32Sv+WL4/nVwCC7Rww0UC1V0EvlzDhMSJyBfU+p/JSlOThaZoTWz/qljdwWw+Nq7UCl8UQoZWwdRf84bgawU0j0kePa+DeM9r547cQhQiqrMeEvqUVI+TRXWg2EpwTK6d/SCwi0EzQqqEW0Q7WTaEGLcMmZGMDl9c73xTiQ4fhGTMWFVGsw47nP8/HWzrLGNL6pTmXUrZ3GSIIF23EyAny4DUxAf57cd2F/rh53f5SN1J+rLEccg6JC4oWt7qeHWntah4bLCqJBhrERsa5QDblHswhFthPJqwlwN7K1SL9HryweWpOPFWkVsDfplYtiQjpfbMCjq/KwOafuipZpDhvlNPuLEFJhXb10vY4iT9CoBTllwe9L00tTReX79LoC/PGHIhgcEDcpIiRe3DNlSRb28bz2Fq7Aw2ZrZXRqeqlVUNmZtxvoOrl0Px3FyVx6kex8Bg8qKj8f64tNcLk2Dyt5IviCn0rxzrZSxcUkXEiHs2uRQu7sLKerrRSggd6aal7E0wqRFCjb3aBHT7jzrNiRlbawnrs37Cxljo9C/KwLyUhC0l/uy6j8Xt1Sgpe/LZTiVaUQKiQTqX7m8lwcZwvQRv3zoL9KHjhvhSASko/dQvLAwt0OmHnSApxprTtOGZSdzxCnVcNPxthtbiLQ8WyXy6E/fW9vBd7cXGx3119rCBPSyfw6jJl/HuncFG2l3HT0wHk11iOXmCAvBNorJPrzUxSvnWAX42B4LFGNvYE+6SI5Sl5ncw2JqLwlITFU02/sLMffyTopMSxFiJB4as5vvyjAz5UkIjnxABVuWZX1vo+IQC/4W5nRIQuybO/uKRfSnCAXjlc2nqhGrb3XpPPc3Fdey3wlhQvS8j6tQUX5ty3FeHd7mXDLZHctVZOL+j2lmj/xGy/XeJDTzyix3kXCfVX9o+lttPep6b52ptcgvdhx4585W/vy56ormj1shoR0XVKA5UvbFFfXS/XRJvSiv/ljCTbxOC+B2CUk9skvbSjA57xmo40uaH+2vEq9vR+9jQIyjrNkLf9N2Ysj4NudsTof2TxD1066h6gRK7N1/ERurayXuYLqbc7qPOwSmITYJaQ1Ryux7GdStq1xDP36EYpb5PQLjesbIM0/sxu65uL9FVh7sKKxkVAh2KW9t7UYBzIFzAgmHY7vKX98+U5pFrKMuqBf4fUT5n6RjwtUDyJo96OmXajBvG+KYGhvrdCf/XDMejN+mL8XJnLvvYjK91Hh+W+L8OM55fqitp7SYcGuciHDg3ma3MhEP8u3tuHZvxvO2jZJ4jS5whc3Flm+2Ue7hMT+f+rSHORz61d7y8sTWE4WQg4zkkOEuDem1GDGPStzhLU4N+cAvVz3LqNzC2qvifL1xAieRCCD49yDYOtLTXW34VQ1/rAmz3Kg/dgsJHZHf/6hGIX2+gcywalU8JzxWWMoj3DUiluTmmO7Af88jzXk5kQMu+BT/Hd3Ge6ml8vAZkQEdM6+oWp0j/CxHGiblYcqG3d4spEGCkuW0N9+ebjSrqzW5it/d6wSa4+I6Vk2UZnvS7c+QyKOAs6B3QQOlaXrcivW0+sLMWdVjjR3rr3wwl8TPszE/35XhDKRwRdZtafHhjaOHrACN0JuPy8v0G6JOhLTXzcVt9yYKRObhMS9+dNW5aFW0EtnIqv0fbpOClDbggfSPzmC3JsdD9oS3LG56qQO18w/jw93lOJ0gV5q1LMGp9jH8vWYv6UY4/+dgbTcOtQI1BBbo0HRGtzQT17af5Luu7im/S8Dc6rMiN+tyW332HDZq5FU19Xjqc/ysJYDVUFCYoaFqfHVbxKgtdKXxFqbuTQLX/H15WQmtkIFGOXviSGRPhgc44NhsT7oEepNIm785zr69wslBmzN0SOnwIB99FJVcuu8gKD6ctiZLZ0ai0kD5Anp3W2leJEsitneWzE04O07IvHINVrLAfnIFtL3p3VIWZYtvhKNDUh9NEHWNOoiXT36vXlOyGzoNmGjxMrlT/Nr8bOLioHa4IZYDZbOiJO9vcSdCzOxhYNtAbc2mMKIVTPjEK+1bQ6gLNdWWVuPF3gBUCWGrNIbPe+7QlkJR6ivCs+MDJGG6ioKlwpbGu4o5QUhmj4OEBH0DXhktFa2iE7k1UlrM4nyEkfJ6r77Ew+Nsw0uMqu89X0RTnG6rEQ50jl3na7BBRndFxwrPXKtFo6d6uhAKP2bPsgfkwfJc2nMSxsKxXoJCrwXUgbKTRm2YFVIB7NrsfxoO1qvZRLK6ee0GPSUmeZyd8GiqdHwVdq9dQCJ5E7+nhIjvTByOJRVix+5wmWZA/kYyRLP/qoA5TZsa2H1FlYeqEChQgOiVBTAPnedFncNC7YckceEAYF4mpeOUea2OgR+MV6dEIYgGSMhm/j2jA7GpmxAMJmUxW08Lr9jt827KKgy4X0SkiKehIKi2/r445kbw9u1atqT14diArf6dgbLRC/+jKGBuGtokE1h6NxrQ9EzyEuRMqBQDe/vLJUGK8qhVSHx389amWP5Jhg694Tuflg0LdZywHZ4f/13UqIxIkzt2paJyuIeEtE/7oqxHJBPgEaFb2d3w1WhVAby6ls+JOi0AgOW75EXeLcqpD1nddjN6/KITveJWPLBf7klHL52DlpLCPPGspnx6BOgeB6nGCMjvPGvO6J+aa+yleggNf4yOVJaXFU4dM7n1xVKK/dao8Xb59bNjw9WoF7GOGGboXO/emsEBsaJWX4vhoJvXhOyDzdoupJlItd+c6IfVj0UD39uWrCD63r7Yy65eiUa2Ex0byv3VVjth2vxCQp1JmxSYqgF+ctnRwUjZbhtwbU1khN9sf6xBFwT6e0aYqJymETx4Yf3xkjDZOyFncbTY0Lxax5uI6dBzgZ4hOf6E9WosLJMc4tC+mxfOYpkDM63lUHh3nhsTJgS3lJqFlhMMdctJCpnDsCDKLGYSTHRx/fFWu0WsgWeQPlHcnHdFFgwY3deHQ5ltz154gohlZKAFuygAEt0uxG5tCeu0UquSCniQ73x8fQ4SqPDEaxEK7w9kKUIpcqef1skFkyJtTs+bInulHg8NoKsvcxMSzb05r+2qdjypWWueJq1lO6XiPa15G6GktvhTVqUsEbN8adM5pmxoVj9QBwiqLI6bkGbi6jp+cfGaLD/2R6YItitN4cbMp++IbxxMqXIKqQ6232+Vlo4vzUuERKPR1nNq1gIzgCiqXI/mRZn+eYYRvfyQ9rzPfDKuDBp1yPhb6kcyAoP1arx5uQIrHq4m7TdhCP4ekYcQkR7FKrDhTtKWx3yc4mQThXocVb01uF03SmDA6VU3dFwx+dT48NIUD3x22tC4M3TxB0RjJNoNfR5745IbHw8EbNGa+3OzGxhQKwGKTwERbBVOpSnR14r6yhc8nQ7z9egSMZUalsIJnM7bbiyi6S3BV83gCpx3uQo7H++O55MDsZI7tfj+xGZ4dC54km4ExN88fakCGT+MQnTRzUKyNGPzi5uKrnQAMHaPVNpanUa2SXjkSa+ewF7CskiiXpyeitnU4byekpshwnpclg7vBhqOr1ZbKo/O66z/3mNZnJfkRhPKT3vceJI69MaPC175sfZWC916goqfLIxDw8JwHxKFi7nlyfm+U17OMUTWOE8b/+l26KcRkQM3wvHKiPjfTE8Xt5UH6uYgMnkSpIifZxCRIwXPehrv4oSO0qCHm3NCZ20kP7l/PLUS3eXig2y6Y2YdXWw1CfWFbA27rwjSAz3xpQhgZIlEUUFhT6bjl85+UMSEpvBlYfFjjkK8lZh8kB6CDcdSsqwYPiKHNlJxuaN7eVXxPGSkHjJF53gN6qv1htDY+UNVnOjHFwHfUU2ApMms0sM0vYezZGElEZpXbVIIdG5ft3fHwGaruHWnJlQfy+M727/Wt/N0ZE9OnHZzpYqPv+pfD25N8sRAfjQue6hNNtNx8NObeZorZQQiEJH9buXhNRcmiqOj04WCGyEpIvc3NsfUUHK9am5sQ0eD399osDRpHSezCI9zM2snMpoasAxOigs7aeTzxoZYvnixhng/utZ7CFEdRPR+Q6TRTI2GyCi4lXM8qvFDRmJCvBEP3eQ7XQkd/eT5gWK4lSpEZX6i7pRHebNd0VZI2IwmdEQjbgbdiOGCD9PDJM55UsOvGLvsWZjlFQbz5CQBLYfJYRyF4E7W3M2fH1UiOdJAqKgKt517uLSgapUXv9RkI48KD5KjtM4VZeIm0a4y+SqWI1UR0KgwOuLk82ExKtsCMPYgOFx7vjIWRnOe8eJCofJWJymgLtp3ptKpFvjMyWGu4XkrPSM9IaHSMNB2sm1tHCLGyxD9zc4ynl6v91cCQ/0445cYVBVF1Q0tnSqyHlK/2E35Hsn9BC4PJ8bRZjYnTyGqDiJ4q6ssiaLJMqA0L0NiRcz6dGNcozuwXPfLF/shVxbhmXorTg/RDfXN9odHzk73bgJQJSQSD05lt2/xQmJzhQX6vgB/m5sQ4qRBDbP8G5M7CnFCcnLA37uQNvp0fIUcYEjYY0GszQ6VFjNB6tV8Ha3RDo9vJGiyBGT9SbefFqgRQpXYuUSN4rAM5BFwQ3a3Cgp5oykSLeOXAe7t3dtBg+I5J29hVW/QksZulEAqU9dUFNSA/9PaLDtpkvSQBaJNSlMSJfvEu7GeeGxRKLg0ZfsKMUIic5Upfi+Dm5EIS2fLShM8iQlcbIuzCIVtzCN141zIrKuGi0Sicny3W7qKAXUixpc7kYxuI5EjkHj/eQ8KXgXF2zTzdmzcZwbx1DOa4MKFJK3moREvk2ckOjeeDdFN85NVgnVkUDH4eWtEiwk8pWZgrb+dqMc6YV6oY0+viSkxmBbVFxDJ9vLU5vcODX7eEFRUUIi7fSw7LqgEuYvSZbbMtpei1k03KJ6tsiAdDLX7fmU2LkPrCvyE9cRp1oioJC4t2WKkwfm7G3gFUtFoKJgO/uVJGnNRkdQVluPxJdPSyuutgv+M7bL9lJrxtH/6YHEMOce2Mc7gSb86QzMoiawGhqw6dFuGNHDj4pS1Phdgs+U6+iAmy0rj69pz0eEiFyIDLLCvCWEMExmRAc3LvmsChRpPTw9kMab9LpxSnZnUd2IXL2NXsTYkMZRsaqbevkJSwcbSEgHsvUijZwbQXBf6NHcOjSIssJUxyPjNb+M+lCN701CElXzdI/nyHzWNFulwo1zUGOoR3a5wOSCNHNrn4urAquu6R0gblYBcbBQj1IKPt04F1wnadyGJAqq4tG9/C1fSEi8ekiwwO2eSqrrcbpA4A27EcIZqpNSgetgcbIygNcSsKDiVSqujqKASVRcQ3HS0j3lli9unIX3RW6dRloZFekN/2Zjv1W8w3U/3nlRFHTub05VSzt0u3EOuC42n9VJdSOKgWR8ms/2V3EQ3yv6YvQtAgOJ89P9bqvkLHyypwwmbjcTBGumt6SZi+eU5DMyxgeBotJChoS07oQO1Vb2QXWjPNya/TUviCXKrRH+dKphUZe24ktCSqKDASKFRJwrM+Borjvo7miOUB2ca2WPtfbiT6IcHH/pyjOSkHgowOT+lMoJHOFYqm9A6slqyzc3HcX6o5UoNwhsjuGGyARfaa2l5vwSGT3B+8YLHDnHZ/7X7jL3qMkOhDu1P9xXQXUh0NsYG/AUa+UyfhFSr0gfDOJlaQRqyQgPvLw+Xxru4caxcJnPW5cP0y81LIboQE8kd79yHaxLLpMyiPf2EmuVVlPQfSKv9d2Z3SjD4exarD0pdulrbs2eNjRQWiH3ci4R0uie/ggSPJaoguKuZYeqFOnI5TuN9PaUdtFuzydQYErsTPAyM8vSKlApuNC9vYAxfQIs3y7lkj1tK8in3r0oC/tKxI4piqFgftOcRMSHiN3ohjfkOZpd1+4Q4LMjVViwt1zqbLYLJxvYll5swIT3MlAiMHlihmjV+PyheES3sGHRJUJi3kgtxKs/CWxOZ+gKN8X64PPZiU41luw/O8rwh9SiTiUkNkJj56fjCPf0iyxrcmvThwTivSkxlgOXcoUfe5D3qBc1prcJOt0PGbVYeuDKLSzdiIPLdjFlykeKyKOIfmHJuj17vdby5UquEBLvs/bEKIFbMjVB7m0RWYA8wY1jbi6SXWrAh7vIm1BZC4Ws0ZR+/kiKbn356xavOIOsUjAFo6I5Qr777R9LFAm8uzo8AvKNzcU4aVn3WiR+JIU5Y8PaNHItqiU2WI2JPQXtid8cirsW7q/Aij301rgRyqLtJfj4cJXY2NbCdd180f+yvrXLaVFIvDDAPYODoBLt3hh60L9uKsaRLHfbkijSMmvxtugEyYJHPXDHwAD4W5nC1Oq/3tg/AKMixbZ0N5FjaMBz3xRJ6bsb+6jRm/H814XIE9mf1gRVT3fya1OGBVkOtE6rQmKrtPiBOECJG6QXZ19OLWZ9lG054Ka93L4wE2l5PHvWckAkVPeL7ouVte1+m/YqXqvGrKspg1PCcKg8sOFCDV5PLYRBZGdxF4HLbN6GAqTx+HglGueoSm7rGyDNopVD246PeICEFO6thNwpqySf/vbOcqzc6w6+bWXZ7jK8T4mLWaFunmA67yOj5O+WblVII0mR1/XhHXWUsRq8fsnc9YVYQWIyKhHctwVfjrvJpZ92fhwELyS6eHspnqW4SLF0hZ5nZJwGY7jeZXJFF0lLlFSbMG7BBWTWUbykzAsALb0Bb9waganJ8t8Ce/nmWBWW7+O+NvseivfjeOfeGMQEi+1LbIlFJKJXNpcI75BtThC5yt1PJSLehk2KZAmJ+e5ENe5fmQOTkp1lJNQlU6Jx11XB4Nktbi7C1nrhtmL8X2oJZUJWHUm78SSBLrg9Eg+MbL07pCVk39G1PXxxM8+sVNKMa1R4ktzc/M3F7nW7m8HDQl7bWIg/baFYUkERMSPjfDF5YKDlm3xkWySGZ2te/VY6IHBmbkuoqeBuo9hsycz4FgdRdSXqjA2YuiQT23PqlPUGTG09vn8sEaPa0athk7z7RPlg4ZQYeCtplQgjFdiX6TVI+TgHJ/O77jI5h7JqceviLGx1hIjo5Z13c0S7RMTYbCdTrg7GrwcEKJ+pUIy0JaMGUz/KwbpDlZaDXQOOo5fuKsO0ZTmNjY1Ki4iuN5nCljljrxzULxebXFsTF4r0uGNRFjIUzOKao6ZAc85oLebSg0YGNq4Q1hnhisgtN+LvW4rx3zTugG08rjSRlDGvoTBiaLf2b27dLiEx+y7U4q6lWahyVFBMYhoW4Y3HxoThvqGBl0wX7gxwVvbJvnJ8sLMMJ3goiKOyVrruiqmxuH2w7QF2c9otJObjveV45utCsesSWsPQgJQkP7xOsVq4v5ewBVo7Cm4P5UUeHl+Rg82il+azggf50FfGh+G5G8MtR9qPXULiuf0vrSvAkiNkhhVqqm8RKv1IjSdmXBWEB4YHS3PyXA0e+XAsuw6fHa7EcooBy3grRke+FWSJpiT5462UaGj97A8X7BISw8MYZi+ngJgXa3d0IyLdeaSPClPI1b1ySyQ0jhSzHRRVm/AivYCplJmW8vZkjr5t0uyoCDXWPpqAQBk9+3KwW0gMF8z0T3KwO1/v+EJh6O3i685NDsHEAYEYEuMtbUvuLLLiAi7TmXAkz4D1hyvw4QHKQln0yrYttgzdTJJWjXUPd0NskLjERYiQmJMFekyiTK6Exy91VA2Su/DzUmFAmBrjuvtKA7L6x/p22BQoTuPPFtRhZVoltlFy8nOxATXswjoyUSALuOnxBIywI0NrCWFCYnhLhqveyUA5r4vU0eaAa5EKbUCUD2aPCMbYpACE+XtKe977kNhEhyMcNOtJJDp6kTh43nqyGktIQKd5ahAH0E6QZQZT6LHtiUT0CBe4Qp8FoUJidtCbN/3TXJTWOoGYGH46EpWGKrIfFWDvUC8khvtgIP13z3A14kK9EaRRUXwlX1wsmlqjWXJX+RUmZFK6fqTQgIxiPU4UGXG61Egapl9i8ThDGRBatQofUaZ7Y1/5Q0NsQbiQmGwq2AFvpztVQTaHb0lF4lKxl+H4yluFMD9PDNB6SZu0JNLHl2IYH8tim3oWTa0Z6aUG5FbW40S5SVq9t4EsEC+AbqZ41Uw/hRekKOrM2DU3EQPifBWrDkWExBzMqcMjn+fhTImRasty0NnhkmBLIv2UjlyEa0D60P8pVRuioWeIC/DCYrJEPHpDSRQTEp80o8yAFArAz1SRm3MVMXUWqALCfVT46uF4DIrSKN5EpZiQmqgms/rw8hykZtRI5t+N8rDbvj5OgxUPxiPosiX6lEJxOxFAgeyCe6LxVHKw1L3hRmEoU/3NkEB8eF+sw0TEKG6RmrNwTzle+rYQXXeEkbL4kMF/gfvOxoVZjjgOhwqJ49jNp6rxtx+KsVfapNft6oRArmxIqDdeuCkctwwMdHhPFeNQITVRXG3C41/kI/WUzrGdvZ0RUwNu6OWPD1KiWlxJzVF0iJAYbr5ZvK1EWnovg/ctcVsn26DyS/D3xBMjgvH4uHChW4C0hw4TEsMXPk0u7l+bi/EJD0URvUBUZ8Vgxp19A/DirRHoG+XjFM1aHSqk5mw4WoV5qUU4U8HWyXLQzaVQTfUO9MKLE8ORMtT6CiGOxGmExPDSdSsPVmIJubsc7qtzu7tGKJiOo1T+0dFaTB0aaNMMWEfhVEJqolhnwu9W5+ELCsYb2N11YT156M2Y3MsPC+6PlYYWOytOKaQmeILByv3l2HiuBtmU6XVIXtsRUCYSrlFhfHdfTEvW4iaFeuxF4tRCYnh2BU/RWZ1WgT9vLgG4R76zxlCcyhoa8PtxWtyXHIJuWjU0zbb7dGacXkjNKa0x4T/by7CJXN65SiPKeeclV4+jKP7x9/JAnxBvTOjjh6fGhiLMiV1Ya7iUkJoor6nHsTw9tqfrsIqC83Oc6XHDpqtoikvcaEa3IDWmDArAmN7+GBavQXiA607+dEkhNYen9eymGGrBtlIcyKlDNdVSDRkqqbKcRViWe/GlT4CHB3pHekt9Ytcl+XeaRTJcXkjNKaFs71BmHfbm1eFcgV4aXCe1S/ETcoU5Ktzg63G8Q/QI8sLwGB/0jtUgOcoHwxI00u4KnY1OJaQmpHqkijSStSquridx1eCrI1VYf1InjbWWsj8WFo+ysNci0DVQTz/5oiYzfL1UmJTkh8kDAzCipz+iA72kRcPY8ig9uKzjAP4f76KZmGhLno8AAAAASUVORK5CYII=;" vertex="1" parent="1">
          <mxGeometry x="789.77" y="556" width="84.44" height="96" as="geometry" />
        </mxCell>
        <mxCell id="SYkxdP-PGaikRAJM0KuG-20" value="Azure CDN" style="shape=image;verticalLabelPosition=bottom;labelBackgroundColor=default;verticalAlign=top;aspect=fixed;imageAspect=0;image=data:image/png,iVBORw0KGgoAAAANSUhEUgAAATYAAACjCAMAAAA3vsLfAAAAt1BMVEX///85mcZPn8l6enp3d3fu7u5vb28plMOurq662upycnLPz8+VlZX29vbHx8esx9lFm8d8eHZBmcb3+/0gksLl8fft9fl+fn63t7ebm5tfk7PE3euOjo47nMiQv9pTostgqM7U5/GcyOCEvNnj4+NkkKpyg49UnMOu0uVaqc92f4aCgoJrip6lpaXAwMDQ5PB1stNXhqKlzuNmjaaQoq16nrWUw9za2tpwdXpmgJFVja3AztiwydqZa/5YAAAHZklEQVR4nO2dW1viSBBAbRDDxbhAEpRFbsLMBh0l4+4yszP7/3/XJoCujkm6q7sq1dE+L77i+ar6WtU5OXE4HA6Hw+FwOByO90zwEu4fUweCbedxlizm8+FQiOFwPl8sklk8iZy8IoJlPFsMh8N+v/Gafr8vpptVHHH/QvsYdVb9t8JeyxPzVWfE/UMtInpMo6xM2f/qvE3s8jUjmCRKyg7ehPDCZML9m9mJZqWZ+UZahueJmw+drNEKLu1gTsw+7ASxhEh7ZW0vbvUhxY0g6fmrtKO4D5eqQTwHSGtM31rLxE073P9HtWwXEGk5oXYkXCy5/5XqCG4g0kqsZZm6q3Id5/stNpagUGsMS6xl4jZVTQ3+xfj6snvGxNchRFqjXNqeaka4h2b39LTJxe8gaSrWhLeiT9TWXZdNWXNw+wdIWtmwVmmirhkDrTn4Ags1pVjbexO0M6p/yWntTyJrmTjS/f05p7VPMGmKGXokjOms9c74rEEnA5i11NsNlTX/mjHYgNYgGXr0tiPStmacRMmtpd4eabRdsWmDjms61lJvNAvfe64cBc+h0IHtCM18yjWPgtdrmtZSKNZvTNoGn4HW9FJ0z5Tg6HLMow24ozKxJrwEXxvT2Aa1pp+igmT51uOYScGTqEmwCYppocVhrcKB7QD+8MaRpVBrRim6Dzf04a1VubYBdHdgHGwUq96Hivfy8BQ1DjZBkqYVe4NaQwi27JQcW9tJu0pv4E0VSrCl3rbo3nqn1S1DblmCLWWDru3Ev7o7655WAXw+wAm2NNxIznrXF1ftCviLK9iEaNS46HIFun5HDDaqcKuECHb/jhlsQsy5/3ttZnzBloZbXYu4Iqg1VG21DbcdWBumNeILZzJGc9ZgIzmwxCQYRdvJJI47k230orOsA54QJJVsYG/2lvYuH2dJQ2SNUhnp30Wy6xzKfxLeHLV2DRLFSV6fVGqvkcRL5gkhw8JJIegkorhCPgs8qDV8baFtnQvRSr1PShlsa8IjK6bRgkQagTaKcxBtRqCeH3XQczTNUnv28zGNNBpttqx4lwl8qFcEedWW4VFVvAEhC7UGxdBmyRIkmJGFGpG20IKNQgRf97Nr4z89imCtUlAIZgQbVm5LUAOoLdrwL0yB1kidUWnjXvBG4MMzBVH9/nNX8pTGmpiyLnhH2OMakaU38E6lqNb6VTnLtOFXNagDvu8sk1adM8F7VNnBs0awgyrXRtQYo8AIzVq1kbbXxrdwW9RWmqo2v3d1f47M30jBxiAt1TaTS1uPL7voFVjfcaRxhJpQ2ia0mwQFzfAStVyqngqetcnumP0xSZEkuGQ5FyZpKTJt5zSlpRjBxpSgGbJoa9NYgxffWmVNNrZRtXMjBBunNdltAtHbAQjBxmpNoq1FE2zw5jzLrEk2VxdEOQrtBH0LrzVJKSpR55756oPZmuTgiGZoM89RbmuSoqM7CmvmOco8sGXayqydXJNYM55HuaXJruVJnlwAv95hnzXJ3uqKRJvhWpc/RWXHbTSbBMOhjduZkLfCXBJYMxzaLAg2afUuxXrXcNXGrSzDK7dGsXIznBFsCDZ5LUML/a1Ow8Uut7EMhQuY9R2yN7OJ1Ipg82L5p7Ja18jjm9FEym3swDRjvkl2nVGxu4dL1Fev34G2Jzwv3NwUzqp+7/4O7abPSJsVOfoaL0zKnhL0kRiZ3MZzO8onTOjrtt6htjTiyCuQAgNtFubokTAhrq800cZ1Ca+A16BtlwwSfW3cbkqZ0n4k4L1qE7Txpt/0Yu/QtsfbUI5v4Edj6qKNtsvjUVtb/kfQLIKyEnqirY3bihyKN7SPwB/Eqo82wjSFv7ZTH21C0M2m2isQbiUKEIYb7AuF9dImPLJFyFZ3cONWogLds3gjTWu10EbYaqq7T+A2ooT0MlCb+F1rI9vR6zapcRtRgnCnoNlIym1ECcIlyERvLuU2ogbdnKB5wsstRI0GmTbNScH2g6MDUzptgVa01UOboNOmd+j2DrT5696FAQ9a4cYtRImSsa03bp51jdCqcuM2okThTPrtumtcSjPQKQXhNqJE0brtwVxaU68WtQ6DW1EXG9K3b3XKA2uhLb8dC60KWidNuZ0okP+6LOJ35zQq7S0uAnkif0ZA7JXUqBm3P0vzD0BQv6mpUTTObUVK/tcUcPs7+L7zRUXBsRF2zx/D9zJJ8fLvSdG7YqDe7J4Uip6Mwu9dg3rjNlNKUQ0IQcsf0JvVo1vRywMUjw4A51NuNcUUvw5C8cQFcP1mbbiVXL6QfEJ+cAvaZ3HrKcBbFJd/UH1CHpSo3IJy8Uo7E9o0D9GAAs7GNJVcj/rofblP4gAjnH2Lt1DWmUsyuu29NdXFcVv6hXAuL/x4IPsU+mDwRTVVuUW9xFMr++ihHIoXiLtVnBy4XT3jeTvFAsrW+IxMXJqrnz+pxBy3royse/kRUHX6rX1neOFXzvd/vv740c9neCD9zbyE4TSJoYXhvr/u0fPz579HfgMQd6pgW/K8gMPhcDgcDofD4XC84D89ZkZmfo1X5wAAAABJRU5ErkJggg==;" vertex="1" parent="1">
          <mxGeometry x="100.00000000000003" y="620" width="114.84" height="60.38" as="geometry" />
        </mxCell>
      </root>
    </mxGraphModel>
  </diagram>
</mxfile>
